<svg width="771" height="713" xmlns="http://www.w3.org/2000/svg" xmlns:xlink="http://www.w3.org/1999/xlink" overflow="hidden"><defs><clipPath id="clip0"><rect x="233" y="20" width="771" height="713"/></clipPath></defs><g clip-path="url(#clip0)" transform="translate(-233 -20)"><path d="M402.745 99.3405C401.871 100.106 401.386 101.13 401.29 102.413 401.195 103.696 401.62 104.994 402.564 106.307L409.263 100.444C408.399 99.5634 407.717 99.0071 407.217 98.7753 406.437 98.4159 405.639 98.2958 404.823 98.415 404.006 98.5342 403.314 98.8427 402.745 99.3405ZM402.648 97.4444C404.27 96.0248 406.071 95.3933 408.049 95.5499 410.027 95.7065 411.8 96.6801 413.367 98.4708L403.366 107.223C405.236 109.381 407.232 110.61 409.355 110.911 411.477 111.211 413.25 110.738 414.672 109.494 415.62 108.664 416.216 107.682 416.46 106.548 416.704 105.414 416.51 104.007 415.878 102.328L416.644 102.215C417.686 103.852 418.193 105.729 418.166 107.845 418.14 109.961 417.326 111.719 415.725 113.12 413.986 114.641 411.906 115.267 409.484 114.996 407.062 114.726 404.851 113.448 402.85 111.162 400.684 108.686 399.63 106.201 399.687 103.705 399.744 101.209 400.731 99.122 402.648 97.4444Z" fill-rule="evenodd"/><text fill="#000000" fill-opacity="0" font-family="Arial,Arial_MSFontService,sans-serif" font-size="19.5308" x="399.685" y="112.616">e</text><path d="M414.837 87.6844 415.546 87.1607 418.115 90.6406C417.697 87.3647 418.17 85.2238 419.533 84.218 420.152 83.7608 420.804 83.5713 421.488 83.6493 422.172 83.7273 422.696 84.0141 423.062 84.5096 423.386 84.9488 423.514 85.4285 423.446 85.9487 423.378 86.4689 423.141 86.8786 422.735 87.1779 422.341 87.4688 421.756 87.6008 420.979 87.5739 420.202 87.5469 419.696 87.6207 419.459 87.7953 419.257 87.9449 419.12 88.2196 419.05 88.6194 418.884 89.4552 418.921 90.6019 419.162 92.0596L424.636 99.4755C425.268 100.331 425.853 100.9 426.391 101.181 426.762 101.377 427.208 101.439 427.729 101.368 428.25 101.296 428.86 101.003 429.558 100.487L430.007 101.096 422.084 106.943 421.635 106.335C422.424 105.753 422.918 105.197 423.118 104.667 423.267 104.279 423.252 103.846 423.073 103.369 422.988 103.136 422.613 102.569 421.948 101.668L417.522 95.6711C416.192 93.8692 415.363 92.8235 415.037 92.534 414.71 92.2446 414.39 92.0938 414.076 92.0816 413.763 92.0694 413.46 92.1713 413.167 92.3875 412.818 92.6451 412.486 93.0205 412.172 93.5137L411.554 93.0302Z" fill-rule="evenodd"/><text fill="#000000" fill-opacity="0" font-family="Arial,Arial_MSFontService,sans-serif" font-size="23.3112" x="411.554" y="104.029">r</text><path d="M427.094 79.1575 427.836 78.68 430.177 82.3163C429.969 79.0205 430.577 76.914 432.001 75.997 432.649 75.5801 433.311 75.4324 433.988 75.5537 434.666 75.6751 435.172 75.9947 435.505 76.5125 435.801 76.9714 435.898 77.4583 435.796 77.9731 435.695 78.4879 435.433 78.8817 435.009 79.1545 434.597 79.4198 434.004 79.5143 433.231 79.438 432.458 79.3617 431.947 79.4031 431.7 79.5623 431.488 79.6987 431.335 79.9642 431.239 80.3587 431.02 81.1823 430.985 82.329 431.132 83.799L436.123 91.5482C436.699 92.4425 437.247 93.0472 437.766 93.3621 438.124 93.5813 438.565 93.6718 439.09 93.6335 439.614 93.5952 440.242 93.3411 440.971 92.8712L441.381 93.5067 433.102 98.8386 432.693 98.2031C433.516 97.6726 434.045 97.149 434.278 96.6324 434.451 96.2547 434.464 95.822 434.316 95.3343 434.246 95.0964 433.908 94.5067 433.302 93.5652L429.266 87.2988C428.053 85.416 427.293 84.3197 426.985 84.0101 426.678 83.7004 426.368 83.5295 426.056 83.4974 425.744 83.4653 425.435 83.5478 425.129 83.7448 424.764 83.9798 424.409 84.3333 424.064 84.8054L423.478 84.2836Z" fill-rule="evenodd"/><text fill="#000000" fill-opacity="0" font-family="Arial,Arial_MSFontService,sans-serif" font-size="23.3259" x="423.478" y="95.9229">r</text><path d="M444.085 70.5957C443.434 70.9514 442.885 71.5023 442.44 72.2483 441.994 72.9943 441.833 73.9632 441.958 75.1551 442.083 76.347 442.562 77.7045 443.394 79.2276 444.736 81.6842 446.382 83.5363 448.332 84.7838 450.282 86.0313 452.055 86.2187 453.652 85.3462 454.843 84.6952 455.558 83.6669 455.795 82.2614 456.031 80.8559 455.495 78.9555 454.187 76.5603 452.549 73.5631 450.615 71.5571 448.386 70.5422 446.87 69.8396 445.436 69.8574 444.085 70.5957ZM444.001 69.086C446.556 67.6899 449.138 67.5394 451.746 68.6345 453.966 69.5746 455.664 71.1194 456.838 73.269 457.664 74.7798 458.137 76.5071 458.258 78.4507 458.379 80.3944 458.019 82.1067 457.177 83.5875 456.335 85.0683 455.134 86.2349 453.574 87.0873 451.032 88.4766 448.458 88.5674 445.852 87.3595 443.653 86.3434 441.974 84.7729 440.813 82.6479 439.967 81.1002 439.51 79.3519 439.442 77.4032 439.374 75.4544 439.767 73.7723 440.621 72.3569 441.474 70.9414 442.601 69.8511 444.001 69.086Z" fill-rule="evenodd"/><text fill="#000000" fill-opacity="0" font-family="Arial,Arial_MSFontService,sans-serif" font-size="20.2897" x="439.435" y="85.6659">o</text><path d="M459.594 61.1931 460.394 60.8217 462.215 64.7446C462.461 61.4515 463.352 59.4482 464.888 58.735 465.586 58.4107 466.263 58.3552 466.917 58.5683 467.572 58.7814 468.029 59.1672 468.288 59.7258 468.518 60.221 468.547 60.7165 468.376 61.2126 468.205 61.7086 467.891 62.0628 467.434 62.275 466.99 62.4813 466.39 62.4937 465.634 62.3121 464.879 62.1305 464.368 62.1016 464.101 62.2254 463.873 62.3315 463.684 62.5734 463.535 62.9511 463.206 63.7369 463.013 64.868 462.958 66.3443L466.84 74.7044C467.288 75.6692 467.747 76.3432 468.218 76.7264 468.542 76.9925 468.967 77.1426 469.492 77.1766 470.017 77.2106 470.673 77.0448 471.46 76.6794L471.779 77.3649 462.847 81.5119 462.529 80.8263C463.418 80.4137 464.013 79.9675 464.315 79.4878 464.538 79.1373 464.61 78.7104 464.531 78.2071 464.494 77.9618 464.24 77.3313 463.768 76.3157L460.629 69.5552C459.686 67.5239 459.083 66.3338 458.821 65.9849 458.559 65.636 458.275 65.4243 457.97 65.3497 457.666 65.2751 457.348 65.3145 457.018 65.4677 456.625 65.6505 456.225 65.952 455.818 66.3723L455.309 65.7752Z" fill-rule="evenodd"/><text fill="#000000" fill-opacity="0" font-family="Arial,Arial_MSFontService,sans-serif" font-size="23.0704" x="455.309" y="78.6281">r</text><path d="M484.263 50.9236 485.129 50.6018 490.513 65.0869C490.932 66.2153 491.293 66.9359 491.596 67.2489 491.899 67.5619 492.246 67.7505 492.635 67.8147 493.025 67.8789 493.646 67.7526 494.499 67.4356L494.763 68.1441 486.005 71.399 485.741 70.6905C486.62 70.3638 487.179 70.0591 487.417 69.7764 487.656 69.4937 487.79 69.1226 487.821 68.6631 487.852 68.2037 487.66 67.4163 487.246 66.3011L484.664 59.3538C483.937 57.3988 483.408 56.1546 483.075 55.6212 482.827 55.2355 482.574 54.9972 482.317 54.9063 482.059 54.8155 481.759 54.8334 481.418 54.9602 481.051 55.0967 480.641 55.3609 480.19 55.7528L479.651 55.1467ZM479.992 41.7818C480.543 41.577 481.084 41.5962 481.615 41.8394 482.146 42.0826 482.514 42.4797 482.719 43.0308 482.924 43.5819 482.906 44.1261 482.665 44.6636 482.424 45.2011 482.028 45.5722 481.477 45.777 480.926 45.9818 480.381 45.9605 479.841 45.7132 479.301 45.4659 478.928 45.0667 478.724 44.5156 478.519 43.9646 478.538 43.4236 478.781 42.8927 479.024 42.3618 479.428 41.9915 479.992 41.7818Z" fill-rule="evenodd"/><text fill="#000000" fill-opacity="0" font-family="Arial,Arial_MSFontService,sans-serif" font-size="29.7577" x="478.583" y="67.6793">i</text><path d="M496.781 46.6024C497.5 46.3705 498.422 46.2424 499.547 46.2181 500.29 46.1989 500.776 46.1528 501.002 46.0798 501.215 46.0111 501.367 45.9108 501.457 45.7789 501.546 45.647 501.62 45.3954 501.677 45.0241L502.336 44.8115 504.346 51.0464 503.686 51.2589C502.549 49.4638 501.47 48.3409 500.45 47.8904 499.429 47.4398 498.306 47.4121 497.081 47.8072 496.148 48.1078 495.475 48.5969 495.061 49.2745 494.647 49.9521 494.537 50.5907 494.73 51.1902 494.97 51.9362 495.39 52.507 495.988 52.9024 496.577 53.3155 497.603 53.6245 499.066 53.8293L502.441 54.3076C505.571 54.7547 507.483 56.0573 508.179 58.2155 508.716 59.8808 508.519 61.426 507.589 62.851 506.658 64.276 505.414 65.2397 503.855 65.7422 502.736 66.1029 501.393 66.3154 499.825 66.3795 499.342 66.388 498.961 66.4374 498.682 66.5276 498.375 66.6264 498.191 66.8768 498.13 67.2791L497.47 67.4916 495.364 60.9571 496.023 60.7445C496.997 62.4893 498.163 63.6651 499.521 64.2717 500.878 64.8783 502.209 64.9712 503.515 64.5503 504.434 64.2539 505.097 63.7426 505.502 63.0162 505.908 62.2898 505.988 61.547 505.743 60.7876 505.447 59.8684 504.875 59.1998 504.027 58.782 503.179 58.3641 501.634 57.987 499.394 57.6505 497.153 57.314 495.608 56.856 494.759 56.2766 493.915 55.7105 493.306 54.8479 492.932 53.6889 492.447 52.1835 492.557 50.7581 493.264 49.4128 493.97 48.0674 495.142 47.1307 496.781 46.6024Z" fill-rule="evenodd"/><text fill="#000000" fill-opacity="0" font-family="Arial,Arial_MSFontService,sans-serif" font-size="22.6801" x="492.636" y="64.6566">s</text><path d="M515.848 42.4332C515.13 42.6213 514.465 43.0236 513.852 43.64 513.24 44.2564 512.85 45.158 512.684 46.3447 512.518 47.5315 512.654 48.9644 513.095 50.6433 513.804 53.3513 514.955 55.5458 516.546 57.2269 518.137 58.9081 519.813 59.5179 521.573 59.0565 522.886 58.7122 523.828 57.8866 524.397 56.5798 524.966 55.273 524.904 53.2995 524.212 50.6592 523.346 47.3554 521.953 44.9421 520.035 43.4192 518.733 42.3714 517.337 42.0427 515.848 42.4332ZM516.131 40.948C518.948 40.2097 521.489 40.6866 523.756 42.3787 525.684 43.8268 526.958 45.7355 527.58 48.105 528.016 49.7704 528.059 51.5609 527.707 53.4763 527.355 55.3917 526.593 56.9664 525.418 58.2003 524.244 59.4343 522.797 60.2766 521.078 60.7274 518.275 61.4621 515.755 60.929 513.517 59.1279 511.629 57.6115 510.378 55.6821 509.764 53.3396 509.317 51.6336 509.295 49.8268 509.7 47.9193 510.104 46.0117 510.891 44.4741 512.061 43.3064 513.231 42.1388 514.588 41.3526 516.131 40.948Z" fill-rule="evenodd"/><text fill="#000000" fill-opacity="0" font-family="Arial,Arial_MSFontService,sans-serif" font-size="20.4352" x="509.412" y="58.4923">o</text><path d="M531.666 26.9499 532.59 26.7525 537.92 51.6996C538.172 52.8768 538.424 53.6388 538.677 53.9855 538.93 54.3322 539.256 54.5668 539.654 54.6892 540.052 54.8117 540.737 54.7691 541.709 54.5614L541.867 55.3006 532.648 57.2704 532.49 56.5312C533.353 56.347 533.922 56.1322 534.199 55.887 534.476 55.6418 534.659 55.2948 534.75 54.8462 534.84 54.3975 534.76 53.5914 534.512 52.4279L530.862 35.3447C530.408 33.223 530.082 31.9295 529.882 31.464 529.683 30.9985 529.458 30.6995 529.208 30.5669 528.957 30.4343 528.668 30.403 528.339 30.4732 527.984 30.5493 527.555 30.7553 527.055 31.0913L526.552 30.4473Z" fill-rule="evenodd"/><text fill="#000000" fill-opacity="0" font-family="Arial,Arial_MSFontService,sans-serif" font-size="30.5179" x="526.552" y="53.4557">l</text><path d="M552.415 41.7675C550.473 42.9518 549.228 43.7683 548.68 44.2171 547.694 45.0106 547.023 45.7786 546.667 46.5212 546.312 47.2637 546.201 48.0281 546.335 48.8146 546.505 49.8079 546.943 50.5815 547.648 51.1354 548.354 51.6893 549.093 51.9001 549.865 51.7679 550.914 51.5885 552.176 50.6626 553.651 48.9902ZM548.112 34.0472C549.795 33.7592 551.223 33.806 552.396 34.1875 553.283 34.476 553.998 35.0424 554.54 35.8869 554.89 36.4377 555.222 37.6306 555.536 39.4656L556.637 45.9019C556.946 47.7093 557.17 48.8106 557.309 49.2058 557.447 49.601 557.608 49.854 557.79 49.9648 557.972 50.0756 558.167 50.1133 558.374 50.0779 558.594 50.0402 558.779 49.9588 558.928 49.8339 559.188 49.605 559.66 49.0058 560.346 48.0364L560.545 49.1953C559.353 51.5292 558.054 52.8166 556.647 53.0573 555.971 53.173 555.393 53.0305 554.912 52.6299 554.432 52.2292 554.088 51.4644 553.881 50.3354 552.193 52.1721 551.12 53.2502 550.664 53.5697 549.978 54.0421 549.214 54.3503 548.372 54.4943 547.062 54.7186 545.905 54.4549 544.903 53.7032 543.901 52.9516 543.275 51.8446 543.025 50.3821 542.867 49.4577 542.937 48.6221 543.235 47.8752 543.64 46.8402 544.472 45.789 545.731 44.7216 546.99 43.6542 549.146 42.2487 552.199 40.5051L552.071 39.7601C551.748 37.8699 551.226 36.6243 550.505 36.0234 549.785 35.4224 548.852 35.2199 547.707 35.4158 546.838 35.5645 546.188 35.9171 545.758 36.4735 545.314 37.0323 545.144 37.6152 545.247 38.2223L545.494 39.4156C545.603 40.0502 545.525 40.5677 545.259 40.9681 544.994 41.3685 544.599 41.6136 544.075 41.7033 543.565 41.7906 543.117 41.6827 542.731 41.3794 542.345 41.0762 542.099 40.6141 541.993 39.9932 541.79 38.8067 542.211 37.6129 543.255 36.4118 544.299 35.2107 545.918 34.4225 548.112 34.0472Z" fill-rule="evenodd"/><text fill="#000000" fill-opacity="0" font-family="Arial,Arial_MSFontService,sans-serif" font-size="20.7102" x="541.944" y="51.9828">a</text><path d="M563.632 25.8966 564.277 25.8124 565.094 32.0792 569.55 31.4983 569.74 32.9556 565.284 33.5366 566.897 45.9036C567.058 47.1389 567.343 47.9486 567.753 48.3327 568.163 48.7169 568.646 48.8727 569.201 48.8003 569.659 48.7406 570.085 48.5404 570.478 48.1998 570.871 47.8592 571.15 47.3959 571.313 46.8099L572.125 46.704C571.817 48.1276 571.263 49.2408 570.464 50.0437 569.666 50.8466 568.794 51.3096 567.851 51.4326 567.212 51.5159 566.564 51.4203 565.908 51.146 565.251 50.8717 564.734 50.4239 564.356 49.8026 563.979 49.1814 563.7 48.1837 563.521 46.8095L561.849 33.9845 558.83 34.3781 558.74 33.6911C559.464 33.2862 560.177 32.6674 560.88 31.8346 561.583 31.0018 562.182 30.0451 562.677 28.9643 562.927 28.3952 563.245 27.3726 563.632 25.8966Z" fill-rule="evenodd"/><text fill="#000000" fill-opacity="0" font-family="Arial,Arial_MSFontService,sans-serif" font-size="25.6493" x="558.74" y="48.2555">t</text><path d="M577.255 30.1398 578.174 30.0477 579.714 45.4239C579.834 46.6217 580.001 47.4103 580.215 47.7898 580.429 48.1693 580.716 48.4395 581.077 48.6003 581.438 48.7611 582.071 48.7962 582.976 48.7055L583.051 49.4576 573.755 50.3888 573.679 49.6367C574.612 49.5432 575.23 49.3899 575.532 49.1768 575.834 48.9636 576.059 48.6387 576.205 48.2021 576.351 47.7654 576.365 46.9551 576.246 45.7713L575.507 38.3966C575.3 36.3213 575.102 34.9836 574.916 34.3833 574.773 33.9474 574.589 33.6529 574.363 33.4997 574.136 33.3465 573.842 33.2881 573.48 33.3244 573.09 33.3634 572.627 33.5153 572.091 33.78L571.723 33.0572ZM575.438 20.2144C576.023 20.1558 576.541 20.3113 576.993 20.681 577.445 21.0508 577.7 21.5281 577.759 22.1131 577.818 22.698 577.662 23.22 577.293 23.679 576.924 24.138 576.447 24.3968 575.862 24.4554 575.277 24.5139 574.755 24.3553 574.295 23.9793 573.836 23.6033 573.577 23.1228 573.518 22.5379 573.459 21.9529 573.615 21.4344 573.985 20.9824 574.354 20.5304 574.839 20.2744 575.438 20.2144Z" fill-rule="evenodd"/><text fill="#000000" fill-opacity="0" font-family="Arial,Arial_MSFontService,sans-serif" font-size="30.1865" x="571.723" y="46.6155">i</text><path d="M588.526 29.173 589.427 29.1199 589.667 33.1861C591.757 30.3427 593.821 28.8608 595.862 28.7405 596.91 28.6787 597.826 28.8876 598.612 29.3671 599.397 29.8466 600.049 30.674 600.567 31.8493 600.924 32.6696 601.153 33.946 601.255 35.6787L601.739 43.8739C601.81 45.0896 601.957 45.9083 602.178 46.3299 602.352 46.6702 602.616 46.928 602.97 47.1034 603.324 47.2789 603.962 47.3394 604.884 47.285L604.929 48.0396 595.434 48.5994 595.39 47.8449 595.788 47.8214C596.682 47.7687 597.299 47.5956 597.64 47.3021 597.98 47.0086 598.204 46.5922 598.313 46.053 598.356 45.8401 598.345 45.1817 598.28 44.0779L597.817 36.218C597.714 34.4713 597.412 33.2167 596.911 32.454 596.411 31.6912 595.622 31.3416 594.546 31.4051 592.884 31.5031 591.281 32.509 589.74 34.4227L590.336 44.5462C590.413 45.8457 590.537 46.6447 590.709 46.943 590.929 47.3367 591.215 47.6178 591.569 47.7862 591.922 47.9547 592.623 48.008 593.671 47.9462L593.715 48.7008 584.221 49.2606 584.176 48.506 584.595 48.4813C585.573 48.4237 586.219 48.1367 586.532 47.6205 586.845 47.1042 586.961 46.1475 586.878 44.7502L586.458 37.6239C586.322 35.3183 586.187 33.9171 586.052 33.4202 585.918 32.9234 585.737 32.5905 585.51 32.4216 585.282 32.2527 584.987 32.179 584.624 32.2004 584.233 32.2235 583.771 32.3559 583.238 32.5976L582.879 31.8616Z" fill-rule="evenodd"/><text fill="#000000" fill-opacity="0" font-family="Arial,Arial_MSFontService,sans-serif" font-size="20.5307" x="582.879" y="46.6943">n</text><path d="M610.863 48.0064C610.21 48.725 609.718 49.3935 609.387 50.0119 609.055 50.6302 608.891 51.1983 608.895 51.7162 608.9 52.388 609.31 52.9729 610.126 53.4709 611.532 54.3285 613.557 54.7476 616.203 54.7282 618.722 54.7098 620.577 54.2518 621.768 53.3543 622.958 52.4567 623.549 51.504 623.542 50.4962 623.536 49.7684 623.176 49.2531 622.46 48.9504 621.73 48.6478 620.287 48.4764 618.131 48.4361 614.981 48.3752 612.558 48.2319 610.863 48.0064ZM614.588 29.1871C613.553 29.1947 612.688 29.614 611.994 30.4449 611.3 31.2758 610.96 32.5451 610.972 34.2528 610.988 36.4643 611.477 38.1755 612.437 39.3862 613.172 40.3047 614.099 40.7599 615.219 40.7517 616.283 40.7439 617.155 40.3386 617.835 39.5357 618.515 38.7329 618.848 37.4776 618.836 35.77 618.82 33.5445 618.324 31.8054 617.349 30.5527 616.628 29.6341 615.708 29.1789 614.588 29.1871ZM614.938 28.1767C616.772 28.1633 618.363 28.5996 619.714 29.4856L623.787 29.4558C624.389 29.4514 624.739 29.4663 624.837 29.5006 624.935 29.5349 625.006 29.5939 625.048 29.6775 625.133 29.8029 625.177 30.0265 625.179 30.3485 625.182 30.7124 625.149 30.9646 625.08 31.1051 625.038 31.1754 624.965 31.2319 624.86 31.2746 624.756 31.3174 624.403 31.341 623.801 31.3454L621.302 31.3637C622.093 32.3657 622.495 33.6506 622.506 35.2182 622.519 37.0099 621.845 38.5476 620.482 39.8313 619.12 41.1151 617.284 41.7654 614.974 41.7823 614.023 41.7893 613.049 41.6564 612.053 41.3837 611.441 41.9201 611.028 42.3886 610.814 42.7891 610.6 43.1896 610.494 43.5298 610.496 43.8097 610.498 44.0477 610.615 44.2778 610.847 44.5 611.08 44.7223 611.533 44.88 612.205 44.973 612.598 45.0262 613.578 45.068 615.146 45.0985 618.03 45.1474 619.899 45.2317 620.754 45.3514 622.057 45.5239 623.099 45.9992 623.882 46.7773 624.665 47.5555 625.06 48.5184 625.068 49.6662 625.08 51.2479 624.349 52.737 622.876 54.1335 620.707 56.1931 617.866 57.2357 614.353 57.2614 611.651 57.2811 609.365 56.6889 607.495 55.4848 606.44 54.7927 605.91 54.0686 605.904 53.3128 605.902 52.9769 605.976 52.6404 606.128 52.3033 606.362 51.7837 606.847 51.0593 607.582 50.13 607.679 50.0034 608.387 49.2423 609.707 47.8469 608.976 47.4183 608.458 47.0336 608.155 46.6929 607.852 46.3522 607.698 45.9649 607.695 45.5309 607.691 45.041 607.887 44.4657 608.281 43.8049 608.675 43.1442 609.588 42.2066 611.021 40.9923 609.841 40.4271 608.933 39.6323 608.295 38.6082 607.658 37.584 607.335 36.449 607.326 35.2033 607.312 33.2997 608.017 31.6568 609.442 30.2746 610.866 28.8924 612.698 28.1931 614.938 28.1767Z" fill-rule="evenodd"/><text fill="#000000" fill-opacity="0" font-family="Arial,Arial_MSFontService,sans-serif" font-size="29.0854" x="605.904" y="53.6262">g</text><path d="M648.166 34.476C646.411 35.2961 645.062 36.2491 644.12 37.335 643.178 38.4209 642.649 39.6403 642.534 40.9931 642.407 42.4855 642.777 43.8374 643.643 45.0489 644.51 46.2604 645.759 46.9355 647.39 47.0742 648.269 47.1489 649.131 47.0466 649.977 46.7673 650.822 46.4879 651.998 45.8363 653.504 44.8124 651.876 42.1454 650.756 40.2029 650.143 38.9848 649.53 37.7668 648.871 36.2638 648.166 34.476ZM654.128 21.855C652.914 21.7518 651.961 22.0958 651.269 22.8869 650.577 23.6779 650.196 24.4779 650.127 25.2868 650.069 25.9702 650.123 26.7439 650.288 27.6079 650.454 28.4718 650.815 29.7563 651.372 31.4613 653.172 30.7855 654.545 29.9609 655.492 28.9878 656.438 28.0147 656.966 26.8866 657.075 25.6034 657.16 24.5992 656.921 23.743 656.356 23.0347 655.791 22.3265 655.048 21.9332 654.128 21.855ZM654.299 20.3313C655.959 20.4724 657.27 21.079 658.232 22.1512 659.195 23.2234 659.615 24.4777 659.493 25.9143 659.367 27.3927 658.752 28.6468 657.646 29.6766 656.54 30.7064 654.647 31.7748 651.968 32.8816 653.472 36.1842 655.074 39.2284 656.776 42.014 659.48 39.2938 660.917 36.9294 661.088 34.921 661.142 34.2795 660.981 33.6899 660.606 33.1522 660.331 32.7496 659.911 32.4891 659.345 32.3707L659.41 31.5967 668.197 32.3435 668.131 33.1175C666.91 33.112 665.991 33.3044 665.375 33.6945 664.758 34.0846 663.742 35.3363 662.327 37.4496 660.911 39.5629 659.354 41.5167 657.656 43.311 658.774 44.867 659.797 45.9759 660.724 46.6377 661.651 47.2994 662.61 47.6724 663.6 47.7566 664.562 47.8384 665.4 47.6462 666.114 47.1801 666.828 46.714 667.368 45.9837 667.733 44.9893L668.459 45.6199C667.776 47.5426 666.823 48.9226 665.6 49.7598 664.377 50.5971 663.005 50.9511 661.485 50.8219 660.341 50.7247 659.207 50.3157 658.081 49.5949 656.955 48.874 655.758 47.7152 654.489 46.1182 652.629 47.5054 650.98 48.4364 649.542 48.9112 648.104 49.386 646.596 49.5564 645.02 49.4225 642.719 49.2269 640.944 48.4579 639.696 47.1156 638.447 45.7733 637.895 44.2513 638.04 42.5498 638.183 40.8622 638.933 39.2296 640.289 37.6521 641.646 36.0746 644.074 34.5286 647.574 33.0139 647.042 31.5077 646.697 30.2807 646.538 29.3331 646.38 28.3855 646.337 27.4863 646.409 26.6355 646.612 24.2505 647.645 22.5051 649.509 21.3992 650.959 20.5391 652.556 20.1831 654.299 20.3313Z" fill-rule="evenodd"/><text fill="#000000" fill-opacity="0" font-family="Arial,Arial_MSFontService,sans-serif" font-size="30.5491" x="638.017" y="47.0292">&amp;</text><path d="M682.817 33.4034 690.728 34.961 690.578 35.7232C689.839 35.6348 689.336 35.6713 689.069 35.8327 688.802 35.9941 688.63 36.267 688.554 36.6516 688.471 37.0773 688.486 37.6153 688.6 38.2656L690.5 49.9171 696.299 41.8785 695.775 38.8865C695.608 37.9976 695.288 37.3425 694.814 36.9212 694.55 36.6694 694.01 36.4418 693.194 36.2383L693.344 35.4761 702.326 37.2446 702.176 38.0069C701.179 37.8534 700.443 37.894 699.969 38.1287 699.651 38.2944 699.445 38.6176 699.35 39.0982 699.296 39.3729 699.296 39.6653 699.349 39.9753L701.5 51.6549 707.532 41.9933C707.953 41.3058 708.207 40.7422 708.293 40.3028 708.345 40.0418 708.257 39.782 708.029 39.5233 707.802 39.2645 707.3 39.0443 706.522 38.8627L706.672 38.1005 712.626 39.2728 712.476 40.035C711.246 39.9783 710.207 40.6155 709.36 41.9467L699.856 56.9593 699.012 56.793 696.667 43.8128 688.794 54.7811 688.032 54.631 685.098 37.576C684.897 36.495 684.639 35.7416 684.324 35.3156 684.008 34.8897 683.456 34.5064 682.667 34.1656Z" fill-rule="evenodd"/><text fill="#000000" fill-opacity="0" font-family="Arial,Arial_MSFontService,sans-serif" font-size="23.5559" x="682.667" y="54.0148">w</text><path d="M722.291 42.9713C721.17 42.669 720.049 42.8345 718.928 43.4677 717.808 44.1009 716.965 45.1747 716.397 46.6889L724.993 49.0049C725.246 47.7974 725.33 46.9212 725.245 46.3764 725.111 45.5285 724.767 44.7981 724.215 44.1854 723.662 43.5726 723.021 43.1679 722.291 42.9713ZM723.814 41.8378C725.896 42.3986 727.421 43.5452 728.389 45.2775 729.358 47.0098 729.532 49.0248 728.913 51.3224L716.08 47.8647C715.324 50.6182 715.41 52.9609 716.339 54.8929 717.268 56.8248 718.645 58.0366 720.47 58.5282 721.686 58.856 722.834 58.8064 723.913 58.3796 724.992 57.9527 726.054 57.0103 727.099 55.5523L727.619 56.1271C726.836 57.9023 725.557 59.3662 723.782 60.5189 722.008 61.6715 720.093 61.9711 718.039 61.4176 715.809 60.8167 714.134 59.434 713.014 57.2694 711.893 55.1048 711.728 52.556 712.519 49.6232 713.375 46.4471 714.856 44.1898 716.964 42.8513 719.071 41.5129 721.355 41.175 723.814 41.8378Z" fill-rule="evenodd"/><text fill="#000000" fill-opacity="0" font-family="Arial,Arial_MSFontService,sans-serif" font-size="20.1784" x="712.028" y="59.1647">e</text><path d="M739.285 46.4514 740.165 46.7318 735.476 61.4562C735.111 62.6033 734.951 63.3934 734.997 63.8266 735.042 64.2598 735.199 64.6218 735.466 64.9126 735.734 65.2034 736.301 65.4868 737.168 65.7629L736.938 66.4831 728.035 63.6479 728.265 62.9277C729.158 63.2122 729.786 63.3167 730.148 63.241 730.51 63.1653 730.845 62.9561 731.152 62.6133 731.46 62.2705 731.794 61.5323 732.155 60.3986L734.404 53.3365C735.037 51.3492 735.387 50.043 735.454 49.418 735.496 48.9614 735.444 48.6179 735.297 48.3875 735.15 48.1571 734.903 47.9867 734.557 47.8762 734.183 47.7573 733.698 47.7129 733.101 47.7431L733.05 46.9336ZM741.557 36.6201C742.117 36.7985 742.531 37.147 742.799 37.6658 743.067 38.1845 743.112 38.724 742.934 39.2842 742.755 39.8443 742.406 40.2618 741.885 40.5367 741.364 40.8115 740.824 40.8597 740.263 40.6813 739.703 40.5029 739.287 40.1499 739.014 39.6224 738.741 39.0948 738.694 38.551 738.873 37.9908 739.051 37.4306 739.4 37.0165 739.918 36.7483 740.437 36.4802 740.983 36.4374 741.557 36.6201Z" fill-rule="evenodd"/><text fill="#000000" fill-opacity="0" font-family="Arial,Arial_MSFontService,sans-serif" font-size="29.9741" x="728.035" y="62.7364">i</text><path d="M743.395 68.7346C742.528 69.1713 741.829 69.6188 741.298 70.0771 740.767 70.5354 740.41 71.0069 740.228 71.4917 739.991 72.1206 740.165 72.8137 740.747 73.5711 741.752 74.8759 743.493 75.9938 745.969 76.9247 748.327 77.8113 750.223 78.0491 751.656 77.6383 753.089 77.2274 753.983 76.5503 754.337 75.6069 754.594 74.9256 754.442 74.3152 753.882 73.7758 753.309 73.2314 752.023 72.5538 750.025 71.7429 747.107 70.556 744.897 69.5533 743.395 68.7346ZM753.624 52.5043C752.654 52.1398 751.697 52.2209 750.751 52.7477 749.805 53.2744 749.032 54.3371 748.431 55.9355 747.653 58.0057 747.495 59.7782 747.957 61.253 748.313 62.3738 749.016 63.1313 750.064 63.5253 751.06 63.8997 752.019 63.8341 752.942 63.3286 753.864 62.8231 754.626 61.7711 755.227 60.1727 756.01 58.0894 756.172 56.2883 755.711 54.7692 755.368 53.6533 754.672 52.8983 753.624 52.5043ZM754.312 51.6865C756.029 52.3317 757.358 53.31 758.301 54.6214L762.114 56.0547C762.677 56.2665 762.998 56.406 763.078 56.4732 763.157 56.5405 763.202 56.6208 763.212 56.7141 763.246 56.8616 763.206 57.086 763.093 57.3874 762.965 57.728 762.844 57.9516 762.729 58.058 762.665 58.1087 762.576 58.1353 762.463 58.1376 762.35 58.14 762.012 58.0353 761.449 57.8235L759.11 56.9443C759.489 58.1635 759.403 59.5068 758.851 60.9742 758.221 62.6513 757.039 63.8447 755.307 64.5543 753.575 65.2639 751.628 65.2124 749.466 64.3997 748.575 64.0648 747.714 63.5914 746.882 62.9797 746.118 63.2608 745.565 63.55 745.221 63.847 744.878 64.1441 744.657 64.4236 744.558 64.6857 744.475 64.9084 744.501 65.1653 744.639 65.4562 744.776 65.7471 745.142 66.0566 745.737 66.3847 746.084 66.575 746.984 66.9657 748.436 67.5566 751.111 68.6367 752.825 69.386 753.58 69.8044 754.735 70.4328 755.538 71.2505 755.989 72.2576 756.44 73.2647 756.464 74.3054 756.06 75.3798 755.504 76.8603 754.287 77.9881 752.411 78.7631 749.648 79.9077 746.622 79.8618 743.333 78.6256 740.804 77.675 738.883 76.3022 737.569 74.5072 736.833 73.4827 736.597 72.6167 736.863 71.9092 736.982 71.5947 737.172 71.3074 737.434 71.0471 737.839 70.646 738.551 70.1437 739.571 69.54 739.707 69.4565 740.641 69.0002 742.373 68.171 741.845 67.5087 741.5 66.9641 741.339 66.5372 741.178 66.1103 741.174 65.6938 741.326 65.2876 741.499 64.829 741.887 64.362 742.492 63.8866 743.097 63.4112 744.286 62.8637 746.059 62.2442 745.161 61.2933 744.598 60.2255 744.37 59.0409 744.142 57.8562 744.248 56.6808 744.686 55.5148 745.356 53.7328 746.604 52.4523 748.429 51.6732 750.255 50.894 752.216 50.8984 754.312 51.6865Z" fill-rule="evenodd"/><text fill="#000000" fill-opacity="0" font-family="Arial,Arial_MSFontService,sans-serif" font-size="28.4964" x="736.757" y="76.0264">g</text><path d="M774.919 49.1925 775.797 49.5957 769.924 62.3786C772.049 61.4755 773.625 60.9944 774.654 60.9354 775.682 60.8764 776.61 61.0369 777.436 61.4167 778.429 61.8725 779.155 62.5375 779.616 63.4116 780.077 64.2858 780.211 65.3868 780.016 66.7148 779.884 67.6399 779.321 69.1835 778.328 71.3458L775.488 77.5274C774.979 78.634 774.721 79.4317 774.712 79.9205 774.699 80.2842 774.804 80.6252 775.027 80.9435 775.251 81.2618 775.77 81.608 776.584 81.982L776.268 82.6688 767.683 78.7245 767.998 78.0376 768.399 78.2217C769.213 78.5957 769.836 78.7317 770.268 78.6298 770.7 78.5278 771.09 78.2644 771.44 77.8395 771.571 77.6535 771.865 77.0645 772.321 76.0724L775.161 69.8908C776.037 67.9829 776.514 66.6848 776.592 65.9964 776.669 65.308 776.56 64.715 776.265 64.2174 775.97 63.7198 775.517 63.3308 774.907 63.0503 774.284 62.764 773.559 62.6313 772.733 62.6523 771.907 62.6733 770.792 62.97 769.389 63.5424L765.147 72.7766C764.598 73.9723 764.323 74.747 764.322 75.1009 764.321 75.4548 764.457 75.8136 764.729 76.1773 765 76.541 765.582 76.9274 766.472 77.3364L766.156 78.0232 757.495 74.0438 757.81 73.357C758.586 73.7134 759.252 73.8731 759.808 73.836 760.121 73.8256 760.436 73.6775 760.752 73.3914 761.068 73.1054 761.477 72.4155 761.98 71.3216L769.246 55.5052C770.164 53.5082 770.68 52.2589 770.795 51.7572 770.91 51.2555 770.907 50.8766 770.786 50.6207 770.664 50.3648 770.438 50.1609 770.108 50.0089 769.841 49.8862 769.361 49.7893 768.67 49.7182L768.71 48.9277Z" fill-rule="evenodd"/><text fill="#000000" fill-opacity="0" font-family="Arial,Arial_MSFontService,sans-serif" font-size="33.7411" x="757.495" y="78.4512">h</text><path d="M793.505 63.0738 794.079 63.3808 791.098 68.9533 795.06 71.0729 794.366 72.3688 790.405 70.2492 784.521 81.246C783.934 82.3444 783.695 83.1691 783.805 83.7201 783.915 84.2711 784.217 84.6787 784.71 84.9428 785.118 85.1607 785.58 85.2455 786.098 85.1972 786.616 85.1488 787.112 84.934 787.586 84.5525L788.308 84.9388C787.229 85.9172 786.131 86.5006 785.014 86.6889 783.898 86.8773 782.92 86.7469 782.08 86.2979 781.513 85.9942 781.042 85.5397 780.667 84.9344 780.292 84.3292 780.132 83.6641 780.187 82.9392 780.241 82.2143 780.595 81.2409 781.249 80.019L787.35 68.6149 784.666 67.1788 784.992 66.5678C785.817 66.6595 786.757 66.5712 787.813 66.3029 788.869 66.0346 789.913 65.6047 790.944 65.0132 791.479 64.6961 792.332 64.0496 793.505 63.0738Z" fill-rule="evenodd"/><text fill="#000000" fill-opacity="0" font-family="Arial,Arial_MSFontService,sans-serif" font-size="23.6986" x="780.176" y="83.8101">t</text><path d="M802.235 74.652 803.028 75.1253 795.112 88.3967C794.495 89.4305 794.16 90.1636 794.105 90.5958 794.051 91.028 794.121 91.4161 794.316 91.7601 794.51 92.1041 794.997 92.5091 795.779 92.9752L795.392 93.6244 787.367 88.838 787.755 88.1888C788.56 88.6693 789.148 88.9138 789.517 88.9225 789.887 88.9311 790.261 88.8035 790.638 88.5397 791.015 88.2758 791.509 87.633 792.118 86.6112L795.915 80.246C796.984 78.4548 797.621 77.2625 797.829 76.6691 797.974 76.2342 798.001 75.8878 797.911 75.63 797.82 75.3722 797.618 75.1501 797.306 74.9636 796.969 74.7628 796.507 74.6092 795.918 74.5027L796.053 73.703ZM806.683 65.5953C807.188 65.8965 807.512 66.3301 807.655 66.8963 807.798 67.4624 807.719 67.998 807.418 68.5029 807.117 69.0078 806.682 69.3348 806.112 69.4839 805.542 69.633 805.005 69.5569 804.5 69.2558 803.995 68.9546 803.67 68.5161 803.524 67.9404 803.379 67.3646 803.457 66.8243 803.758 66.3194 804.059 65.8145 804.493 65.4905 805.059 65.3474 805.625 65.2044 806.167 65.287 806.683 65.5953Z" fill-rule="evenodd"/><text fill="#000000" fill-opacity="0" font-family="Arial,Arial_MSFontService,sans-serif" font-size="28.345" x="787.367" y="90.0812">i</text><path d="M812.139 80.8888 812.879 81.4053 810.549 84.746C813.951 83.8083 816.49 83.9241 818.166 85.0934 819.027 85.694 819.617 86.4259 819.937 87.2888 820.256 88.1518 820.255 89.2051 819.934 90.4486 819.706 91.3136 819.095 92.4578 818.102 93.8813L813.405 100.614C812.708 101.613 812.316 102.346 812.229 102.814 812.155 103.189 812.202 103.555 812.371 103.912 812.541 104.269 813.004 104.712 813.762 105.241L813.329 105.861 805.529 100.419 805.961 99.7987 806.288 100.027C807.023 100.539 807.615 100.786 808.064 100.766 808.513 100.747 808.947 100.559 809.366 100.203 809.532 100.062 809.931 99.539 810.564 98.632L815.069 92.1747C816.07 90.7397 816.61 89.5677 816.69 88.6588 816.769 87.75 816.367 86.9872 815.483 86.3705 814.117 85.4174 812.236 85.2146 809.84 85.7619L804.038 94.079C803.293 95.1467 802.895 95.8508 802.845 96.1915 802.774 96.6365 802.825 97.0346 802.998 97.3858 803.171 97.737 803.688 98.2129 804.549 98.8136L804.117 99.4335 796.316 93.9915 796.748 93.3716 797.093 93.6119C797.896 94.1725 798.581 94.3471 799.147 94.1358 799.712 93.9245 800.395 93.2449 801.196 92.0969L805.281 86.2422C806.602 84.348 807.364 83.1642 807.566 82.6909 807.768 82.2176 807.833 81.8442 807.759 81.5708 807.685 81.2975 807.499 81.0567 807.2 80.8484 806.879 80.6242 806.434 80.442 805.866 80.3018L806.041 79.5017Z" fill-rule="evenodd"/><text fill="#000000" fill-opacity="0" font-family="Arial,Arial_MSFontService,sans-serif" font-size="26.3588" x="796.316" y="102.566">n</text><path d="M817.451 109.443C816.486 109.552 815.675 109.73 815.018 109.976 814.361 110.222 813.863 110.541 813.525 110.933 813.085 111.441 813.008 112.151 813.292 113.063 813.783 114.635 815.029 116.287 817.03 118.017 818.935 119.666 820.631 120.545 822.118 120.656 823.604 120.766 824.677 120.441 825.337 119.678 825.813 119.128 825.882 118.503 825.543 117.803 825.194 117.094 824.223 116.013 822.629 114.56 820.302 112.437 818.576 110.731 817.451 109.443ZM832.666 97.7576C831.883 97.08 830.956 96.8245 829.886 96.9913 828.817 97.158 827.724 97.8872 826.606 99.1787 825.16 100.851 824.398 102.46 824.321 104.003 824.267 105.178 824.664 106.132 825.51 106.864 826.315 107.56 827.238 107.831 828.278 107.676 829.319 107.522 830.398 106.798 831.515 105.507 832.971 103.824 833.746 102.19 833.84 100.605 833.904 99.4393 833.513 98.4901 832.666 97.7576ZM833.595 97.2289C834.982 98.4284 835.891 99.8065 836.321 101.363L839.402 104.028C839.857 104.422 840.11 104.664 840.161 104.754 840.212 104.845 840.226 104.936 840.203 105.027 840.184 105.177 840.07 105.374 839.859 105.617 839.621 105.893 839.43 106.06 839.285 106.12 839.208 106.146 839.115 106.14 839.008 106.103 838.902 106.066 838.621 105.851 838.165 105.457L836.276 103.823C836.209 105.098 835.663 106.328 834.638 107.514 833.465 108.869 831.944 109.579 830.073 109.645 828.202 109.711 826.394 108.989 824.647 107.478 823.927 106.855 823.283 106.113 822.714 105.251 821.901 105.25 821.281 105.33 820.856 105.49 820.431 105.649 820.127 105.835 819.944 106.047 819.788 106.227 819.724 106.477 819.752 106.798 819.781 107.118 820.017 107.535 820.461 108.049 820.721 108.348 821.43 109.026 822.588 110.083 824.723 112.022 826.072 113.319 826.635 113.973 827.501 114.962 827.971 116.007 828.046 117.108 828.121 118.209 827.782 119.194 827.032 120.062 825.997 121.258 824.465 121.895 822.436 121.972 819.448 122.09 816.625 120.999 813.968 118.7 811.925 116.933 810.597 114.98 809.986 112.841 809.65 111.625 809.729 110.731 810.224 110.159 810.443 109.905 810.721 109.702 811.058 109.548 811.576 109.312 812.419 109.088 813.584 108.874 813.74 108.843 814.775 108.738 816.687 108.56 816.421 107.756 816.286 107.125 816.282 106.669 816.279 106.213 816.419 105.821 816.703 105.493 817.024 105.122 817.55 104.819 818.282 104.582 819.014 104.345 820.319 104.243 822.197 104.276 821.683 103.073 821.525 101.876 821.721 100.686 821.918 99.4958 822.424 98.4296 823.239 97.4874 824.484 96.0477 826.098 95.2784 828.081 95.1795 830.063 95.0806 831.901 95.7637 833.595 97.2289Z" fill-rule="evenodd"/><text fill="#000000" fill-opacity="0" font-family="Arial,Arial_MSFontService,sans-serif" font-size="26.8108" x="809.782" y="118.63">g</text><path d="M804.094 616.85 804.641 616.497 808.067 621.808 811.842 619.372 812.639 620.607 808.863 623.043 815.624 633.523C816.299 634.57 816.904 635.179 817.439 635.35 817.975 635.521 818.477 635.455 818.948 635.152 819.336 634.901 819.635 634.538 819.844 634.061 820.053 633.585 820.106 633.047 820.002 632.448L820.69 632.004C821.022 633.422 821 634.665 820.622 635.733 820.245 636.801 819.656 637.593 818.857 638.109 818.316 638.458 817.69 638.649 816.979 638.683 816.267 638.717 815.608 638.534 815.001 638.135 814.393 637.736 813.714 636.954 812.963 635.789L805.952 624.921 803.394 626.571 803.018 625.989C803.498 625.312 803.877 624.448 804.155 623.394 804.433 622.34 804.564 621.219 804.547 620.03 804.529 619.409 804.378 618.349 804.094 616.85Z" fill-rule="evenodd"/><text fill="#000000" fill-opacity="0" font-family="Arial,Arial_MSFontService,sans-serif" font-size="22.1903" x="803.018" y="635.913">t</text><path d="M819.513 614.836C818.588 615.538 818.033 616.526 817.848 617.799 817.663 619.072 817.996 620.397 818.846 621.772L825.938 616.392C825.138 615.453 824.497 614.85 824.014 614.584 823.261 614.171 822.473 613.996 821.651 614.058 820.828 614.12 820.115 614.379 819.513 614.836ZM819.549 612.937C821.266 611.635 823.106 611.13 825.069 611.425 827.032 611.719 828.732 612.814 830.17 614.71L819.582 622.743C821.297 625.026 823.202 626.391 825.299 626.839 827.395 627.287 829.196 626.939 830.702 625.797 831.705 625.036 832.369 624.098 832.691 622.983 833.014 621.869 832.919 620.452 832.406 618.733L833.178 618.674C834.103 620.38 834.478 622.287 834.303 624.396 834.129 626.505 833.194 628.202 831.499 629.488 829.659 630.884 827.54 631.363 825.143 630.924 822.745 630.485 820.629 629.055 818.793 626.635 816.805 624.015 815.927 621.462 816.158 618.976 816.389 616.49 817.52 614.477 819.549 612.937Z" fill-rule="evenodd"/><text fill="#000000" fill-opacity="0" font-family="Arial,Arial_MSFontService,sans-serif" font-size="19.7378" x="816.122" y="628.614">e</text><path d="M830.078 604.651 830.735 604.032 833.542 607.013C833.602 605.034 833.651 603.882 833.69 603.556 833.784 602.737 833.995 601.971 834.323 601.258 834.652 600.545 835.076 599.944 835.595 599.454 836.471 598.629 837.465 598.173 838.577 598.088 839.688 598.002 840.807 598.342 841.933 599.109 841.831 596.898 841.961 595.26 842.325 594.197 842.688 593.133 843.252 592.242 844.016 591.522 844.76 590.821 845.6 590.391 846.535 590.23 847.471 590.07 848.515 590.265 849.667 590.814 850.447 591.194 851.433 592.016 852.623 593.279L858.295 599.3C859.121 600.177 859.753 600.715 860.193 600.917 860.506 601.045 860.874 601.058 861.298 600.957 861.722 600.856 862.245 600.513 862.866 599.927L863.384 600.477 856.477 606.985 855.958 606.434 856.249 606.161C856.85 605.595 857.208 605.036 857.324 604.485 857.404 604.101 857.328 603.683 857.094 603.23 856.971 603.019 856.526 602.505 855.758 601.69L850.086 595.669C849.011 594.528 848.115 593.852 847.399 593.643 846.387 593.365 845.443 593.639 844.567 594.464 844.027 594.973 843.612 595.619 843.321 596.402 843.03 597.186 842.843 598.309 842.76 599.772L842.888 599.969 843.537 600.597 849.828 607.276C850.731 608.234 851.346 608.78 851.673 608.913 852.001 609.047 852.387 609.053 852.831 608.933 853.276 608.812 853.854 608.416 854.568 607.745L855.086 608.295 848.01 614.96 847.491 614.41C848.266 613.681 848.712 613.088 848.829 612.631 848.947 612.174 848.889 611.709 848.656 611.237 848.543 611.015 848.094 610.487 847.307 609.652L841.635 603.63C840.56 602.489 839.619 601.827 838.812 601.645 837.75 601.415 836.816 601.679 836.011 602.437 835.461 602.956 835.055 603.617 834.793 604.421 834.37 605.666 834.193 606.784 834.262 607.777L841.331 615.281C842.195 616.198 842.82 616.734 843.207 616.889 843.593 617.044 843.976 617.073 844.355 616.975 844.734 616.878 845.306 616.469 846.07 615.749L846.588 616.299 839.665 622.821 839.147 622.271C839.789 621.666 840.172 621.175 840.297 620.797 840.423 620.42 840.41 620.019 840.259 619.593 840.108 619.168 839.625 618.522 838.809 617.656L833.771 612.307C832.321 610.769 831.34 609.818 830.826 609.456 830.438 609.187 830.107 609.061 829.834 609.078 829.562 609.094 829.293 609.228 829.028 609.477 828.743 609.746 828.473 610.144 828.22 610.671L827.472 610.337Z" fill-rule="evenodd"/><text fill="#000000" fill-opacity="0" font-family="Arial,Arial_MSFontService,sans-serif" font-size="32.6447" x="827.472" y="618.74">m</text><path d="M858.404 580.365C857.96 580.869 857.646 581.478 857.463 582.194 857.319 582.739 857.335 583.863 857.512 585.568L862.898 590.317C864.063 591.344 864.872 591.973 865.322 592.202 866.061 592.592 866.913 592.704 867.88 592.54 868.846 592.375 869.714 591.856 870.482 590.985 871.408 589.935 871.748 588.724 871.503 587.351 871.182 585.556 870.05 583.802 868.108 582.09 865.903 580.146 863.781 579.134 861.743 579.054 860.332 579.004 859.219 579.441 858.404 580.365ZM857.218 577.107C858.495 575.658 860.127 574.951 862.112 574.984 864.544 575.02 866.873 576.019 869.099 577.981 871.587 580.175 873.016 582.703 873.384 585.566 873.681 587.918 873.042 589.986 871.469 591.771 870.784 592.548 870.081 593.123 869.361 593.495 868.833 593.776 868.101 593.971 867.166 594.079L871.56 597.953C872.547 598.824 873.228 599.316 873.602 599.432 873.976 599.547 874.374 599.524 874.795 599.364 875.216 599.204 875.774 598.73 876.468 597.942L877.051 598.456 870.386 606.016 869.803 605.502 870.151 605.108C870.67 604.54 870.995 603.949 871.125 603.336 871.185 603.035 871.136 602.716 870.976 602.379 870.816 602.042 870.211 601.41 869.161 600.484L855.522 588.46C854.587 587.636 853.957 587.155 853.631 587.017 853.305 586.879 852.998 586.846 852.71 586.919 852.422 586.991 852.139 587.185 851.862 587.5 851.639 587.752 851.431 588.137 851.235 588.655L850.564 588.4 852.685 582.376 853.212 581.777 856.583 584.749C855.969 582.883 855.739 581.35 855.892 580.151 856.044 578.951 856.486 577.936 857.218 577.107Z" fill-rule="evenodd"/><text fill="#000000" fill-opacity="0" font-family="Arial,Arial_MSFontService,sans-serif" font-size="31.0323" x="850.564" y="602.137">p</text><path d="M869.594 564.167C869.141 564.754 868.859 565.478 868.75 566.34 868.641 567.203 868.883 568.154 869.475 569.196 870.068 570.238 871.051 571.289 872.424 572.351 874.639 574.063 876.889 575.099 879.176 575.46 881.462 575.821 883.162 575.281 884.275 573.842 885.105 572.768 885.347 571.539 885 570.157 884.653 568.774 883.4 567.248 881.241 565.579 878.538 563.49 875.963 562.428 873.513 562.393 871.842 562.357 870.536 562.948 869.594 564.167ZM868.913 562.817C870.693 560.514 872.998 559.34 875.826 559.297 878.237 559.268 880.412 560.002 882.35 561.5 883.712 562.553 884.838 563.946 885.729 565.678 886.619 567.41 886.976 569.123 886.798 570.817 886.621 572.511 885.989 574.061 884.902 575.468 883.13 577.76 880.808 578.876 877.936 578.814 875.515 578.765 873.347 578 871.431 576.519 870.036 575.441 868.916 574.023 868.072 572.265 867.228 570.507 866.914 568.808 867.128 567.169 867.342 565.53 867.937 564.08 868.913 562.817Z" fill-rule="evenodd"/><text fill="#000000" fill-opacity="0" font-family="Arial,Arial_MSFontService,sans-serif" font-size="19.5203" x="867.063" y="576.377">o</text><path d="M878.416 549.896 878.92 549.172 882.47 551.642C881.023 548.674 880.782 546.495 881.75 545.104 882.189 544.472 882.746 544.083 883.418 543.938 884.091 543.792 884.68 543.895 885.186 544.246 885.634 544.558 885.909 544.971 886.011 545.486 886.114 546 886.021 546.465 885.733 546.878 885.453 547.28 884.942 547.594 884.197 547.818 883.453 548.042 882.997 548.274 882.829 548.516 882.685 548.722 882.644 549.026 882.706 549.427 882.818 550.272 883.222 551.346 883.918 552.649L891.484 557.913C892.357 558.521 893.094 558.871 893.694 558.965 894.108 559.031 894.551 558.947 895.021 558.712 895.492 558.476 895.975 558.002 896.471 557.29L897.091 557.722 891.467 565.805 890.847 565.373C891.406 564.569 891.696 563.884 891.715 563.317 891.731 562.902 891.578 562.497 891.255 562.102 891.1 561.909 890.563 561.492 889.644 560.853L883.525 556.596C881.687 555.317 880.566 554.593 880.164 554.424 879.761 554.255 879.41 554.215 879.109 554.304 878.808 554.393 878.554 554.587 878.346 554.886 878.098 555.242 877.905 555.704 877.765 556.272L877.025 556.013Z" fill-rule="evenodd"/><text fill="#000000" fill-opacity="0" font-family="Arial,Arial_MSFontService,sans-serif" font-size="21.9316" x="877.025" y="563.064">r</text><path d="M896.347 537.855C895.929 540.091 895.704 541.563 895.671 542.27 895.602 543.534 895.724 544.546 896.038 545.307 896.353 546.069 896.847 546.662 897.522 547.088 898.374 547.626 899.242 547.818 900.125 547.663 901.009 547.509 901.66 547.101 902.078 546.438 902.646 545.538 902.801 543.981 902.544 541.766ZM887.729 535.893C888.64 534.448 889.63 533.418 890.698 532.801 891.506 532.334 892.405 532.181 893.395 532.343 894.039 532.451 895.148 533.002 896.722 533.995L902.244 537.48C903.795 538.459 904.763 539.029 905.15 539.19 905.536 539.351 905.832 539.401 906.036 539.34 906.24 539.278 906.399 539.159 906.511 538.981 906.63 538.792 906.693 538.6 906.7 538.406 906.703 538.06 906.574 537.308 906.312 536.149L907.306 536.777C908.245 539.223 908.333 541.05 907.571 542.258 907.205 542.838 906.713 543.172 906.094 543.262 905.474 543.351 904.676 543.095 903.698 542.494 903.935 544.978 904.019 546.496 903.952 547.049 903.844 547.875 903.563 548.649 903.107 549.371 902.397 550.496 901.428 551.179 900.199 551.422 898.97 551.664 897.728 551.389 896.474 550.597 895.681 550.097 895.106 549.486 894.75 548.765 894.252 547.772 894.026 546.45 894.074 544.8 894.122 543.151 894.519 540.608 895.264 537.172L894.625 536.768C893.003 535.745 891.728 535.3 890.799 535.434 889.87 535.568 889.096 536.126 888.476 537.109 888.005 537.854 887.833 538.573 887.959 539.265 888.078 539.969 888.397 540.485 888.918 540.814L889.97 541.428C890.515 541.772 890.847 542.176 890.968 542.641 891.088 543.106 891.006 543.564 890.723 544.013 890.446 544.451 890.066 544.712 889.583 544.796 889.1 544.88 888.592 544.754 888.059 544.418 887.041 543.776 886.434 542.665 886.24 541.085 886.045 539.505 886.541 537.775 887.729 535.893Z" fill-rule="evenodd"/><text fill="#000000" fill-opacity="0" font-family="Arial,Arial_MSFontService,sans-serif" font-size="19.2262" x="886.198" y="549.104">a</text><path d="M887.373 516.974 887.845 516.155 909.953 528.884C910.996 529.484 911.731 529.807 912.158 529.851 912.585 529.894 912.977 529.809 913.335 529.595 913.692 529.381 914.119 528.843 914.615 527.982L915.27 528.359 910.566 536.529 909.911 536.152C910.351 535.388 910.573 534.821 910.575 534.451 910.578 534.081 910.443 533.713 910.17 533.346 909.897 532.978 909.245 532.498 908.214 531.904L893.075 523.188C891.195 522.106 890.015 521.483 889.535 521.32 889.056 521.157 888.683 521.124 888.417 521.221 888.151 521.318 887.934 521.513 887.767 521.804 887.585 522.119 887.452 522.575 887.366 523.172L886.551 523.115Z" fill-rule="evenodd"/><text fill="#000000" fill-opacity="0" font-family="Arial,Arial_MSFontService,sans-serif" font-size="20.3738" x="886.551" y="533.982">l</text><path d="M916.097 501.807C915.925 504.075 915.861 505.562 915.906 506.269 915.974 507.533 916.206 508.526 916.601 509.249 916.996 509.971 917.553 510.507 918.27 510.857 919.175 511.299 920.059 511.395 920.921 511.145 921.782 510.896 922.385 510.419 922.728 509.714 923.195 508.758 923.179 507.193 922.682 505.02ZM907.316 500.794C908.065 499.259 908.937 498.127 909.931 497.398 910.683 496.846 911.56 496.596 912.562 496.649 913.214 496.686 914.376 497.113 916.049 497.929L921.918 500.792C923.566 501.596 924.591 502.057 924.993 502.176 925.395 502.294 925.694 502.311 925.89 502.228 926.086 502.144 926.231 502.008 926.323 501.82 926.421 501.618 926.463 501.421 926.448 501.227 926.414 500.883 926.203 500.149 925.817 499.026L926.873 499.542C928.073 501.872 928.36 503.678 927.734 504.961 927.433 505.578 926.98 505.964 926.374 506.12 925.768 506.276 924.947 506.109 923.909 505.618 924.415 508.061 924.664 509.561 924.657 510.118 924.64 510.951 924.445 511.751 924.07 512.518 923.487 513.714 922.598 514.498 921.403 514.873 920.208 515.248 918.944 515.11 917.61 514.46 916.767 514.048 916.13 513.504 915.697 512.826 915.093 511.892 914.726 510.603 914.594 508.958 914.462 507.313 914.579 504.742 914.946 501.245L914.266 500.914C912.543 500.073 911.227 499.77 910.318 500.004 909.41 500.238 908.701 500.878 908.191 501.922 907.805 502.714 907.712 503.448 907.912 504.122 908.107 504.809 908.481 505.287 909.034 505.557L910.147 506.053C910.726 506.335 911.1 506.701 911.271 507.15 911.441 507.599 911.409 508.063 911.176 508.541 910.949 509.006 910.6 509.307 910.129 509.443 909.657 509.579 909.139 509.509 908.573 509.233 907.491 508.705 906.767 507.667 906.401 506.118 906.035 504.569 906.341 502.794 907.316 500.794Z" fill-rule="evenodd"/><text fill="#000000" fill-opacity="0" font-family="Arial,Arial_MSFontService,sans-serif" font-size="18.4369" x="906.252" y="512.774">a</text><path d="M913.683 487.107 914.033 486.275 917.787 487.856C916.159 484.725 915.742 482.218 916.536 480.335 916.943 479.367 917.535 478.637 918.313 478.144 919.09 477.651 920.12 477.432 921.403 477.487 922.297 477.529 923.543 477.887 925.143 478.561L932.708 481.748C933.831 482.22 934.63 482.451 935.106 482.439 935.488 482.432 935.836 482.309 936.15 482.07 936.464 481.83 936.8 481.284 937.158 480.432L937.855 480.726 934.163 489.491 933.466 489.198 933.621 488.83C933.969 488.005 934.086 487.374 933.973 486.939 933.86 486.505 933.586 486.119 933.15 485.784 932.978 485.651 932.383 485.37 931.364 484.94L924.108 481.884C922.495 481.205 921.236 480.921 920.331 481.033 919.425 481.146 918.763 481.698 918.345 482.692 917.698 484.227 917.893 486.109 918.929 488.337L928.275 492.274C929.474 492.779 930.246 493.021 930.589 492.998 931.04 492.975 931.418 492.842 931.726 492.6 932.033 492.357 932.39 491.752 932.798 490.784L933.494 491.078 929.802 499.843 929.106 499.55 929.269 499.163C929.649 498.26 929.677 497.554 929.352 497.045 929.027 496.536 928.22 496.01 926.93 495.467L920.351 492.695C918.222 491.799 916.906 491.301 916.401 491.202 915.895 491.103 915.517 491.119 915.265 491.248 915.013 491.377 914.816 491.61 914.675 491.945 914.523 492.306 914.438 492.779 914.419 493.364L913.6 493.36Z" fill-rule="evenodd"/><text fill="#000000" fill-opacity="0" font-family="Arial,Arial_MSFontService,sans-serif" font-size="22.3646" x="913.6" y="497.048">n</text><path d="M931.287 464.891C931.373 467.163 931.479 468.648 931.603 469.346 931.815 470.594 932.158 471.554 932.632 472.227 933.107 472.9 933.72 473.369 934.472 473.636 935.422 473.972 936.311 473.968 937.139 473.622 937.966 473.277 938.511 472.734 938.772 471.995 939.127 470.993 938.935 469.44 938.195 467.336ZM922.449 464.88C923.019 463.27 923.756 462.046 924.662 461.208 925.346 460.575 926.189 460.227 927.191 460.166 927.843 460.13 929.046 460.422 930.801 461.043L936.956 463.223C938.685 463.835 939.755 464.177 940.168 464.248 940.58 464.32 940.879 464.304 941.065 464.199 941.251 464.094 941.379 463.942 941.449 463.744 941.523 463.533 941.543 463.332 941.506 463.141 941.433 462.803 941.141 462.098 940.629 461.026L941.738 461.419C943.194 463.597 943.683 465.359 943.207 466.705 942.978 467.352 942.571 467.787 941.987 468.011 941.403 468.235 940.568 468.162 939.481 467.792 940.261 470.161 940.679 471.624 940.735 472.178 940.812 473.007 940.709 473.824 940.424 474.629 939.98 475.883 939.185 476.763 938.04 477.271 936.896 477.779 935.624 477.785 934.225 477.29 933.341 476.977 932.646 476.508 932.139 475.884 931.434 475.025 930.922 473.786 930.604 472.166 930.287 470.547 930.112 467.979 930.08 464.463L929.367 464.211C927.56 463.571 926.218 463.419 925.342 463.755 924.465 464.09 923.833 464.806 923.446 465.901 923.151 466.732 923.142 467.471 923.418 468.118 923.689 468.779 924.115 469.211 924.695 469.417L925.857 469.784C926.464 469.999 926.878 470.32 927.098 470.747 927.318 471.173 927.339 471.638 927.162 472.139 926.989 472.627 926.676 472.966 926.223 473.154 925.77 473.343 925.247 473.332 924.653 473.122 923.519 472.72 922.682 471.77 922.143 470.273 921.604 468.775 921.706 466.978 922.449 464.88Z" fill-rule="evenodd"/><text fill="#000000" fill-opacity="0" font-family="Arial,Arial_MSFontService,sans-serif" font-size="17.4936" x="921.803" y="475.47">a</text><path d="M917.832 446.612 918.104 445.707 942.531 453.063C943.684 453.41 944.473 453.556 944.899 453.501 945.324 453.447 945.687 453.275 945.986 452.985 946.285 452.695 946.578 452.074 946.865 451.122L947.589 451.34 944.87 460.367 944.147 460.149C944.401 459.305 944.487 458.702 944.406 458.342 944.324 457.981 944.109 457.653 943.759 457.358 943.41 457.062 942.665 456.743 941.526 456.4L924.799 451.363C922.722 450.737 921.431 450.4 920.927 450.35 920.423 450.301 920.052 450.354 919.816 450.509 919.579 450.664 919.412 450.903 919.315 451.225 919.21 451.573 919.184 452.048 919.237 452.648L918.431 452.778Z" fill-rule="evenodd"/><text fill="#000000" fill-opacity="0" font-family="Arial,Arial_MSFontService,sans-serif" font-size="14.6602" x="917.832" y="458.535">l</text><path d="M929.424 445.453 931.529 436.739 932.285 436.921 932.181 437.35C932.033 437.962 932.055 438.453 932.246 438.823 932.438 439.194 932.731 439.426 933.125 439.522 933.656 439.65 934.445 439.603 935.492 439.381L946.02 437.107 936.704 430.429C936.202 430.063 935.679 429.814 935.135 429.682 934.89 429.623 934.695 429.626 934.549 429.692 934.373 429.765 934.213 429.906 934.069 430.116 933.924 430.326 933.782 430.724 933.64 431.309L932.885 431.126 934.354 425.044 935.109 425.227C935.042 425.743 935.057 426.157 935.155 426.469 935.253 426.78 935.486 427.154 935.856 427.589 936.017 427.757 936.485 428.115 937.26 428.662L954.075 440.781C955.707 441.953 956.842 443.246 957.48 444.66 958.118 446.074 958.303 447.332 958.037 448.434 957.843 449.237 957.453 449.841 956.865 450.246 956.277 450.651 955.684 450.782 955.086 450.637 954.514 450.499 954.1 450.201 953.844 449.743 953.587 449.285 953.538 448.729 953.695 448.076 953.804 447.627 954.102 447.051 954.588 446.348 954.924 445.853 955.108 445.537 955.141 445.401 955.239 444.993 955.136 444.497 954.831 443.912 954.526 443.327 953.827 442.643 952.734 441.861L949.81 439.75 934.085 443.058C933.614 443.161 933.011 443.361 932.277 443.659 931.719 443.884 931.332 444.085 931.116 444.264 930.822 444.524 930.51 444.981 930.179 445.636Z" fill-rule="evenodd"/><text fill="#000000" fill-opacity="0" font-family="Arial,Arial_MSFontService,sans-serif" font-size="25.6497" x="929.424" y="447.488">y</text><path d="M934.902 417.805C935.027 417.059 935.337 416.182 935.833 415.172 936.158 414.503 936.34 414.051 936.379 413.816 936.416 413.595 936.397 413.415 936.321 413.274 936.245 413.134 936.056 412.953 935.752 412.732L935.867 412.048 942.327 413.131 942.213 413.814C940.095 413.999 938.602 414.441 937.733 415.139 936.864 415.838 936.322 416.822 936.11 418.092 935.948 419.059 936.072 419.882 936.484 420.561 936.895 421.24 937.411 421.632 938.032 421.736 938.805 421.865 939.505 421.756 940.131 421.406 940.769 421.073 941.515 420.304 942.37 419.099L944.347 416.322C946.183 413.749 948.22 412.65 950.456 413.025 952.182 413.314 953.463 414.199 954.301 415.681 955.138 417.162 955.421 418.711 955.151 420.326 954.956 421.485 954.527 422.776 953.863 424.198 953.649 424.63 953.517 424.991 953.469 425.281 953.415 425.599 953.553 425.877 953.882 426.117L953.768 426.8 946.996 425.665 947.111 424.982C949.108 424.919 950.689 424.425 951.851 423.498 953.014 422.572 953.709 421.433 953.936 420.08 954.096 419.127 953.946 418.304 953.488 417.61 953.029 416.915 952.407 416.502 951.62 416.37 950.667 416.211 949.81 416.411 949.049 416.972 948.288 417.533 947.243 418.731 945.914 420.566 944.584 422.401 943.467 423.562 942.562 424.049 941.671 424.539 940.625 424.683 939.424 424.481 937.864 424.22 936.649 423.466 935.78 422.22 934.91 420.975 934.617 419.503 934.902 417.805Z" fill-rule="evenodd"/><text fill="#000000" fill-opacity="0" font-family="Arial,Arial_MSFontService,sans-serif" font-size="14.7517" x="934.797" y="424.956">s</text><path d="M936.929 402.87 937.026 401.951 952.393 403.579C953.59 403.706 954.397 403.704 954.812 403.572 955.227 403.44 955.55 403.214 955.781 402.893 956.012 402.573 956.175 401.96 956.271 401.055L957.023 401.135 956.039 410.426 955.287 410.347C955.386 409.414 955.362 408.778 955.215 408.439 955.068 408.099 954.795 407.814 954.397 407.582 954 407.349 953.209 407.171 952.026 407.045L944.656 406.264C942.582 406.045 941.232 405.965 940.606 406.025 940.15 406.076 939.825 406.196 939.628 406.386 939.432 406.577 939.315 406.853 939.277 407.215 939.235 407.604 939.29 408.089 939.44 408.668L938.657 408.88ZM926.841 402.625C926.903 402.04 927.161 401.564 927.616 401.197 928.07 400.83 928.589 400.677 929.174 400.739 929.758 400.801 930.238 401.06 930.612 401.514 930.986 401.969 931.142 402.489 931.08 403.074 931.018 403.658 930.756 404.137 930.294 404.511 929.833 404.884 929.309 405.04 928.725 404.978 928.14 404.916 927.664 404.658 927.297 404.204 926.93 403.75 926.778 403.223 926.841 402.625Z" fill-rule="evenodd"/><text fill="#000000" fill-opacity="0" font-family="Arial,Arial_MSFontService,sans-serif" font-size="9.70038" x="926.828" y="409.214">i</text><path d="M937.758 391.031C937.785 390.276 937.98 389.366 938.341 388.3 938.577 387.595 938.699 387.123 938.708 386.885 938.716 386.661 938.673 386.485 938.58 386.355 938.487 386.226 938.275 386.071 937.946 385.891L937.971 385.198 944.517 385.437 944.492 386.13C942.416 386.586 940.993 387.217 940.221 388.022 939.449 388.827 939.04 389.874 938.993 391.16 938.957 392.14 939.187 392.939 939.682 393.56 940.178 394.18 940.741 394.502 941.37 394.525 942.153 394.553 942.833 394.354 943.409 393.927 943.998 393.514 944.639 392.655 945.331 391.35L946.932 388.341C948.421 385.552 950.298 384.199 952.564 384.282 954.313 384.345 955.698 385.058 956.72 386.419 957.742 387.78 958.223 389.279 958.163 390.915 958.12 392.09 957.861 393.425 957.386 394.921 957.23 395.377 957.146 395.752 957.135 396.046 957.123 396.368 957.296 396.626 957.653 396.821L957.628 397.514 950.767 397.263 950.792 396.571C952.765 396.251 954.268 395.556 955.301 394.487 956.335 393.419 956.876 392.199 956.926 390.828 956.962 389.863 956.707 389.066 956.163 388.436 955.619 387.807 954.948 387.478 954.151 387.449 953.185 387.414 952.362 387.723 951.679 388.378 950.997 389.032 950.115 390.355 949.034 392.347 947.953 394.338 946.995 395.634 946.161 396.234 945.341 396.834 944.322 397.112 943.105 397.067 941.524 397.01 940.222 396.419 939.199 395.296 938.175 394.174 937.695 392.752 937.758 391.031Z" fill-rule="evenodd"/><text fill="#000000" fill-opacity="0" font-family="Arial,Arial_MSFontService,sans-serif" font-size="13.2357" x="937.752" y="395.859">s</text><path d="M288.836 406.202C287.777 404.189 287.042 402.895 286.629 402.319 285.9 401.285 285.176 400.566 284.457 400.164 283.739 399.762 282.983 399.603 282.19 399.687 281.188 399.793 280.388 400.181 279.79 400.849 279.192 401.518 278.935 402.242 279.018 403.022 279.13 404.079 279.974 405.398 281.549 406.976ZM296.814 402.4C296.994 404.098 296.857 405.52 296.401 406.666 296.057 407.533 295.446 408.21 294.569 408.698 293.997 409.012 292.785 409.267 290.934 409.463L284.441 410.153C282.617 410.346 281.504 410.5 281.101 410.613 280.698 410.726 280.435 410.87 280.313 411.045 280.191 411.22 280.141 411.411 280.163 411.62 280.186 411.843 280.256 412.033 280.371 412.189 280.583 412.462 281.151 412.972 282.075 413.719L280.905 413.843C278.652 412.505 277.45 411.127 277.299 409.707 277.227 409.025 277.406 408.457 277.836 408.003 278.267 407.549 279.052 407.255 280.192 407.12 278.466 405.318 277.459 404.18 277.169 403.703 276.741 402.989 276.482 402.207 276.392 401.358 276.252 400.036 276.588 398.898 277.402 397.946 278.216 396.994 279.361 396.44 280.836 396.283 281.769 396.184 282.598 396.307 283.325 396.653 284.332 397.123 285.328 398.02 286.313 399.344 287.298 400.668 288.563 402.909 290.109 406.067L290.861 405.987C292.768 405.785 294.044 405.343 294.69 404.663 295.335 403.982 295.597 403.064 295.474 401.908 295.381 401.031 295.071 400.361 294.543 399.896 294.013 399.417 293.442 399.21 292.83 399.275L291.623 399.446C290.983 399.514 290.472 399.402 290.089 399.112 289.706 398.822 289.487 398.413 289.431 397.884 289.376 397.369 289.512 396.928 289.839 396.563 290.167 396.197 290.643 395.981 291.27 395.915 292.467 395.788 293.631 396.284 294.764 397.402 295.896 398.521 296.579 400.186 296.814 402.4Z" fill-rule="evenodd"/><text fill="#000000" fill-opacity="0" font-family="Arial,Arial_MSFontService,sans-serif" font-size="17.9474" x="276.361" y="411.599">a</text><path d="M304.61 416.354 304.723 416.995 298.499 418.093 299.279 422.518 297.832 422.773 297.052 418.348 284.769 420.514C283.543 420.731 282.747 421.052 282.381 421.479 282.016 421.906 281.882 422.395 281.979 422.947 282.059 423.401 282.278 423.818 282.636 424.195 282.994 424.573 283.47 424.83 284.062 424.967L284.204 425.773C282.769 425.529 281.632 425.026 280.794 424.264 279.956 423.502 279.454 422.653 279.289 421.715 279.177 421.081 279.243 420.43 279.488 419.762 279.732 419.093 280.157 418.556 280.76 418.151 281.364 417.746 282.348 417.424 283.713 417.183L296.45 414.937 295.921 411.938 296.603 411.818C297.04 412.523 297.691 413.208 298.554 413.873 299.418 414.538 300.4 415.093 301.502 415.538 302.082 415.763 303.118 416.035 304.61 416.354Z" fill-rule="evenodd"/><text fill="#000000" fill-opacity="0" font-family="Arial,Arial_MSFontService,sans-serif" font-size="13.9553" x="279.236" y="424.029">t</text><path d="M306.795 427.156 306.938 427.791 300.771 429.175 301.755 433.559 300.321 433.881 299.337 429.497 287.168 432.228C285.953 432.501 285.172 432.859 284.827 433.303 284.482 433.746 284.371 434.241 284.493 434.787 284.595 435.238 284.833 435.643 285.208 436.004 285.583 436.364 286.069 436.599 286.668 436.709L286.847 437.508C285.401 437.33 284.242 436.88 283.37 436.158 282.498 435.436 281.958 434.61 281.749 433.682 281.608 433.053 281.644 432.4 281.858 431.721 282.071 431.041 282.47 430.486 283.054 430.053 283.639 429.621 284.607 429.253 285.959 428.949L298.578 426.116 297.912 423.146 298.588 422.994C299.057 423.678 299.738 424.332 300.631 424.956 301.525 425.581 302.532 426.09 303.653 426.484 304.243 426.681 305.29 426.905 306.795 427.156Z" fill-rule="evenodd"/><text fill="#000000" fill-opacity="0" font-family="Arial,Arial_MSFontService,sans-serif" font-size="14.5137" x="281.665" y="435.694">t</text><path d="M303.843 439.161 304.076 440.012 299.903 441.151C303.109 441.944 304.935 443.158 305.381 444.792 305.584 445.534 305.525 446.211 305.206 446.82 304.886 447.43 304.429 447.816 303.835 447.978 303.308 448.122 302.815 448.068 302.354 447.816 301.894 447.565 301.597 447.196 301.465 446.71 301.336 446.237 301.424 445.644 301.729 444.929 302.035 444.215 302.149 443.716 302.071 443.432 302.005 443.189 301.798 442.962 301.451 442.753 300.731 442.296 299.648 441.917 298.202 441.616L289.31 444.044C288.284 444.324 287.542 444.664 287.086 445.064 286.769 445.339 286.55 445.733 286.429 446.245 286.307 446.757 286.361 447.432 286.59 448.269L285.86 448.468 283.267 438.968 283.996 438.769C284.254 439.715 284.594 440.376 285.017 440.754 285.325 441.033 285.734 441.175 286.243 441.181 286.491 441.186 287.155 441.041 288.235 440.746L295.426 438.782C297.586 438.192 298.861 437.797 299.248 437.597 299.636 437.397 299.892 437.153 300.017 436.865 300.142 436.577 300.156 436.258 300.06 435.906 299.946 435.488 299.715 435.043 299.369 434.572L300.043 434.17Z" fill-rule="evenodd"/><text fill="#000000" fill-opacity="0" font-family="Arial,Arial_MSFontService,sans-serif" font-size="14.2979" x="283.267" y="446.681">r</text><path d="M307.992 453.171 308.273 454.052 293.549 458.742C292.402 459.107 291.665 459.434 291.338 459.722 291.011 460.009 290.806 460.346 290.723 460.733 290.641 461.119 290.737 461.745 291.014 462.612L290.293 462.842 287.458 453.939 288.178 453.71C288.462 454.603 288.74 455.176 289.011 455.428 289.282 455.679 289.647 455.831 290.104 455.884 290.562 455.936 291.357 455.782 292.491 455.421L299.553 453.171C301.54 452.538 302.808 452.068 303.357 451.761 303.754 451.532 304.004 451.291 304.107 451.038 304.21 450.784 304.206 450.484 304.095 450.138 303.976 449.764 303.732 449.343 303.362 448.873L303.993 448.363ZM317.327 449.339C317.505 449.899 317.46 450.438 317.192 450.957 316.924 451.476 316.51 451.824 315.95 452.003 315.39 452.181 314.847 452.137 314.321 451.871 313.796 451.605 313.444 451.192 313.265 450.632 313.087 450.072 313.134 449.528 313.407 449.001 313.679 448.473 314.096 448.12 314.656 447.942 315.216 447.763 315.756 447.808 316.274 448.076 316.793 448.344 317.144 448.765 317.327 449.339Z" fill-rule="evenodd"/><text fill="#000000" fill-opacity="0" font-family="Arial,Arial_MSFontService,sans-serif" font-size="15.0071" x="287.458" y="460.966">i</text><path d="M310.189 468.518C309.93 467.823 309.493 467.194 308.879 466.631 308.421 466.205 307.647 465.732 306.556 465.213L295.778 469.239C295.372 470.152 295.136 471.029 295.068 471.869 295.001 472.708 295.107 473.501 295.386 474.249 295.831 475.442 296.902 476.309 298.598 476.848 300.294 477.388 302.394 477.19 304.898 476.254 307.206 475.392 308.787 474.215 309.642 472.723 310.497 471.231 310.679 469.829 310.189 468.518ZM320.545 458.979 320.875 459.864 307.815 464.742C310.892 465.58 312.808 467.009 313.563 469.028 314.253 470.877 314.066 472.785 313 474.752 311.934 476.719 310.031 478.214 307.29 479.238 304.091 480.433 301.118 480.333 298.37 478.939 296.011 477.743 294.413 476.024 293.575 473.782 293.183 472.733 292.976 471.597 292.952 470.373 292.928 469.149 293.086 467.831 293.425 466.42L312.091 459.447C314.136 458.683 315.377 458.164 315.812 457.889 316.247 457.614 316.511 457.34 316.603 457.067 316.695 456.793 316.682 456.499 316.565 456.185 316.428 455.818 316.151 455.398 315.736 454.925L316.321 454.393Z" fill-rule="evenodd"/><text fill="#000000" fill-opacity="0" font-family="Arial,Arial_MSFontService,sans-serif" font-size="25.6724" x="292.949" y="476.856">b</text><path d="M315.842 476.776 318.563 482.942 306.788 488.139C305.149 488.862 304.199 489.622 303.939 490.418 303.678 491.214 303.726 492.015 304.082 492.822 304.325 493.373 304.773 493.921 305.427 494.466 306.081 495.011 307.106 495.549 308.503 496.08L318.473 491.68C319.471 491.239 320.066 490.759 320.257 490.238 320.448 489.718 320.302 488.876 319.819 487.712L320.53 487.398 323.175 493.391 312.515 498.097C310.479 498.995 309.254 499.593 308.842 499.89 308.43 500.186 308.181 500.48 308.095 500.77 308.009 501.061 308.028 501.347 308.152 501.629 308.328 502.025 308.634 502.426 309.072 502.829L308.519 503.395 304.025 499.09 303.644 498.225 307.37 496.58C305.064 495.793 303.525 495.095 302.752 494.488 301.979 493.881 301.397 493.135 301.007 492.251 300.572 491.265 300.479 490.285 300.73 489.31 300.98 488.335 301.492 487.509 302.264 486.831 303.036 486.154 304.241 485.453 305.88 484.73L313.737 481.262C314.569 480.895 315.106 480.551 315.347 480.23 315.588 479.91 315.717 479.535 315.734 479.107 315.752 478.678 315.551 478.006 315.131 477.09Z" fill-rule="evenodd"/><text fill="#000000" fill-opacity="0" font-family="Arial,Arial_MSFontService,sans-serif" font-size="26.6185" x="300.593" y="500.067">u</text><path d="M332.764 498.587 333.051 499.171 327.383 501.967 329.371 505.996 328.053 506.646 326.065 502.617 314.88 508.133C313.763 508.684 313.088 509.216 312.857 509.728 312.626 510.24 312.634 510.747 312.882 511.249 313.086 511.663 313.413 512.002 313.862 512.264 314.311 512.526 314.84 512.64 315.447 512.606L315.809 513.34C314.362 513.508 313.13 513.343 312.112 512.846 311.095 512.349 310.375 511.673 309.954 510.82 309.67 510.242 309.551 509.599 309.599 508.888 309.646 508.178 309.903 507.544 310.37 506.986 310.836 506.429 311.691 505.843 312.933 505.23L324.533 499.51 323.186 496.779 323.808 496.473C324.424 497.027 325.24 497.502 326.255 497.899 327.271 498.296 328.369 498.554 329.552 498.673 330.171 498.727 331.242 498.698 332.764 498.587Z" fill-rule="evenodd"/><text fill="#000000" fill-opacity="0" font-family="Arial,Arial_MSFontService,sans-serif" font-size="16.9308" x="309.589" y="511.287">t</text><path d="M332.925 514.611C332.372 513.589 331.48 512.891 330.249 512.514 329.019 512.138 327.659 512.265 326.17 512.896L330.409 520.725C331.459 520.077 332.152 519.534 332.489 519.097 333.012 518.416 333.305 517.664 333.369 516.842 333.433 516.019 333.285 515.276 332.925 514.611ZM334.796 514.935C335.822 516.831 336.041 518.726 335.451 520.621 334.862 522.516 333.521 524.03 331.428 525.163L325.1 513.476C322.582 514.824 320.942 516.499 320.181 518.503 319.42 520.507 319.489 522.34 320.389 524.002 320.989 525.11 321.815 525.908 322.868 526.396 323.92 526.885 325.335 527.006 327.112 526.76L327.052 527.533C325.226 528.188 323.284 528.268 321.226 527.775 319.168 527.281 317.633 526.099 316.62 524.228 315.52 522.198 315.369 520.031 316.168 517.728 316.966 515.425 318.701 513.551 321.372 512.104 324.264 510.538 326.922 510.058 329.343 510.665 331.765 511.272 333.583 512.695 334.796 514.935Z" fill-rule="evenodd"/><text fill="#000000" fill-opacity="0" font-family="Arial,Arial_MSFontService,sans-serif" font-size="17.6821" x="315.664" y="525.883">e</text><path d="M343.358 545.674C341.512 544.344 340.277 543.514 339.65 543.183 338.536 542.582 337.568 542.262 336.746 542.222 335.923 542.182 335.176 542.377 334.503 542.807 333.654 543.349 333.111 544.052 332.874 544.917 332.638 545.783 332.73 546.545 333.152 547.206 333.724 548.103 335.067 548.906 337.181 549.616ZM348.802 538.711C349.721 540.151 350.232 541.485 350.336 542.714 350.415 543.644 350.17 544.522 349.602 545.35 349.23 545.886 348.26 546.655 346.69 547.656L341.186 551.17C339.641 552.156 338.713 552.79 338.402 553.071 338.092 553.352 337.921 553.598 337.889 553.809 337.858 554.02 337.899 554.214 338.012 554.391 338.132 554.58 338.279 554.719 338.452 554.808 338.764 554.958 339.499 555.161 340.659 555.417L339.668 556.049C337.055 555.858 335.364 555.16 334.596 553.956 334.227 553.378 334.134 552.79 334.316 552.192 334.499 551.594 335.07 550.98 336.03 550.351 333.683 549.508 332.273 548.938 331.801 548.641 331.099 548.192 330.519 547.608 330.06 546.888 329.344 545.767 329.138 544.599 329.442 543.384 329.746 542.169 330.523 541.162 331.774 540.364 332.564 539.86 333.362 539.6 334.166 539.585 335.277 539.556 336.568 539.915 338.041 540.661 339.513 541.407 341.645 542.848 344.437 544.985L345.074 544.578C346.691 543.546 347.636 542.582 347.91 541.685 348.184 540.787 348.009 539.849 347.384 538.87 346.909 538.126 346.332 537.664 345.652 537.484 344.965 537.292 344.362 537.361 343.843 537.692L342.839 538.383C342.296 538.729 341.789 538.858 341.317 538.769 340.845 538.68 340.466 538.411 340.18 537.963 339.901 537.526 339.827 537.072 339.956 536.599 340.086 536.126 340.417 535.72 340.947 535.381 341.962 534.733 343.226 534.657 344.738 535.153 346.25 535.649 347.605 536.835 348.802 538.711Z" fill-rule="evenodd"/><text fill="#000000" fill-opacity="0" font-family="Arial,Arial_MSFontService,sans-serif" font-size="21.2188" x="329.306" y="553.397">a</text><path d="M357.173 551.347 357.697 552.083 354.379 554.445C357.898 554.706 360.251 555.669 361.436 557.333 362.045 558.188 362.355 559.076 362.366 559.996 362.377 560.917 362.022 561.908 361.301 562.971 360.795 563.709 359.836 564.582 358.422 565.588L351.734 570.35C350.743 571.057 350.127 571.615 349.887 572.027 349.691 572.355 349.613 572.716 349.652 573.109 349.691 573.502 349.979 574.075 350.515 574.827L349.899 575.266 344.382 567.518 344.998 567.08 345.229 567.405C345.749 568.134 346.223 568.565 346.653 568.698 347.082 568.83 347.554 568.799 348.069 568.605 348.272 568.529 348.824 568.17 349.725 567.528L356.139 562.961C357.564 561.946 358.467 561.024 358.847 560.195 359.227 559.366 359.105 558.512 358.48 557.634 357.514 556.277 355.81 555.454 353.37 555.164L345.109 561.046C344.049 561.801 343.438 562.331 343.276 562.635 343.059 563.03 342.973 563.422 343.018 563.811 343.063 564.2 343.39 564.822 343.999 565.677L343.384 566.116 337.867 558.368 338.482 557.929 338.726 558.271C339.294 559.07 339.88 559.464 340.484 559.455 341.088 559.447 341.96 559.036 343.1 558.224L348.915 554.083C350.796 552.744 351.912 551.885 352.261 551.507 352.611 551.129 352.797 550.799 352.819 550.517 352.842 550.235 352.747 549.945 352.536 549.649 352.309 549.33 351.951 549.009 351.464 548.686L351.897 547.991Z" fill-rule="evenodd"/><text fill="#000000" fill-opacity="0" font-family="Arial,Arial_MSFontService,sans-serif" font-size="27.2749" x="337.867" y="571.856">n</text><path d="M366.79 578.057C364.817 576.926 363.501 576.229 362.844 575.965 361.673 575.484 360.677 575.266 359.855 575.312 359.033 575.359 358.31 575.63 357.685 576.127 356.897 576.755 356.43 577.511 356.285 578.396 356.14 579.281 356.311 580.03 356.799 580.643 357.462 581.476 358.881 582.135 361.057 582.621ZM371.48 570.565C372.544 571.901 373.191 573.175 373.422 574.387 373.597 575.303 373.445 576.202 372.967 577.084 372.653 577.656 371.768 578.522 370.311 579.682L365.203 583.749C363.768 584.891 362.911 585.618 362.632 585.93 362.352 586.242 362.208 586.504 362.199 586.717 362.19 586.931 362.25 587.119 362.381 587.284 362.521 587.459 362.681 587.582 362.862 587.652 363.188 587.769 363.94 587.894 365.121 588.028L364.201 588.76C361.582 588.841 359.828 588.323 358.938 587.207 358.511 586.67 358.357 586.095 358.477 585.481 358.596 584.867 359.101 584.197 359.99 583.471 357.567 582.877 356.105 582.457 355.605 582.211 354.861 581.838 354.223 581.317 353.691 580.649 352.863 579.609 352.536 578.469 352.712 577.229 352.887 575.988 353.556 574.906 354.716 573.982 355.45 573.398 356.216 573.057 357.014 572.958 358.116 572.814 359.438 573.036 360.98 573.625 362.522 574.213 364.793 575.425 367.792 577.259L368.383 576.788C369.884 575.594 370.723 574.536 370.903 573.615 371.082 572.694 370.81 571.779 370.086 570.87 369.537 570.18 368.915 569.781 368.22 569.672 367.516 569.553 366.924 569.685 366.442 570.068L365.515 570.86C365.011 571.261 364.52 571.441 364.042 571.402 363.563 571.363 363.158 571.135 362.827 570.719 362.504 570.314 362.383 569.869 362.463 569.385 362.542 568.901 362.829 568.463 363.321 568.071 364.263 567.321 365.512 567.114 367.068 567.45 368.623 567.786 370.094 568.824 371.48 570.565Z" fill-rule="evenodd"/><text fill="#000000" fill-opacity="0" font-family="Arial,Arial_MSFontService,sans-serif" font-size="21.4745" x="352.666" y="586.084">a</text><path d="M389.443 576.4 390.063 577.113 370.821 593.862C369.913 594.652 369.369 595.242 369.188 595.631 369.007 596.021 368.96 596.419 369.046 596.827 369.132 597.235 369.501 597.813 370.153 598.563L369.583 599.059 363.394 591.948 363.964 591.452C364.543 592.117 365.007 592.512 365.355 592.635 365.704 592.758 366.096 592.751 366.532 592.612 366.969 592.474 367.635 592.014 368.533 591.233L381.709 579.764C383.346 578.339 384.319 577.427 384.63 577.027 384.94 576.627 385.093 576.285 385.088 576.002 385.082 575.719 384.969 575.45 384.749 575.197 384.51 574.923 384.122 574.648 383.586 574.372L383.906 573.621Z" fill-rule="evenodd"/><text fill="#000000" fill-opacity="0" font-family="Arial,Arial_MSFontService,sans-serif" font-size="25.4385" x="363.394" y="595.879">l</text><path d="M384.283 586.852 390.507 593.305 389.948 593.844 389.642 593.527C389.204 593.074 388.778 592.828 388.363 592.791 387.948 592.754 387.594 592.876 387.302 593.158 386.909 593.537 386.526 594.228 386.151 595.231L382.419 605.335 393.054 601.058C393.633 600.831 394.123 600.523 394.526 600.134 394.708 599.959 394.81 599.793 394.832 599.635 394.865 599.447 394.832 599.236 394.732 599.002 394.633 598.767 394.374 598.433 393.956 598L394.515 597.461 398.859 601.964 398.3 602.504C397.9 602.17 397.542 601.96 397.227 601.876 396.912 601.791 396.471 601.788 395.906 601.867 395.677 601.912 395.124 602.115 394.246 602.475L374.997 610.16C373.132 610.909 371.432 611.172 369.897 610.952 368.361 610.731 367.2 610.212 366.413 609.396 365.84 608.802 365.54 608.148 365.513 607.435 365.486 606.721 365.695 606.151 366.138 605.724 366.561 605.315 367.035 605.126 367.559 605.155 368.083 605.185 368.578 605.441 369.045 605.925 369.365 606.257 369.692 606.817 370.024 607.605 370.262 608.154 370.429 608.479 370.526 608.58 370.818 608.882 371.292 609.061 371.949 609.118 372.607 609.174 373.559 608.951 374.805 608.449L378.155 607.114 383.803 592.07C383.969 591.618 384.124 591.002 384.267 590.222 384.376 589.63 384.414 589.196 384.379 588.918 384.317 588.531 384.099 588.022 383.724 587.391Z" fill-rule="evenodd"/><text fill="#000000" fill-opacity="0" font-family="Arial,Arial_MSFontService,sans-serif" font-size="24.1749" x="365.511" y="608.005">y</text><path d="M404.694 606.394C405.253 606.902 405.823 607.638 406.404 608.601 406.791 609.237 407.073 609.635 407.249 609.795 407.415 609.945 407.577 610.027 407.736 610.039 407.895 610.051 408.15 609.99 408.5 609.854L409.013 610.32 404.607 615.167 404.094 614.701C405.084 612.821 405.521 611.326 405.404 610.217 405.286 609.108 404.751 608.12 403.798 607.254 403.073 606.595 402.314 606.255 401.52 606.233 400.726 606.211 400.118 606.434 399.694 606.9 399.167 607.48 398.881 608.128 398.835 608.843 398.771 609.56 399.014 610.603 399.564 611.974L400.83 615.139C402.001 618.076 401.823 620.383 400.298 622.061 399.121 623.356 397.683 623.955 395.984 623.857 394.285 623.76 392.83 623.161 391.618 622.059 390.748 621.268 389.895 620.209 389.058 618.881 388.811 618.467 388.578 618.161 388.361 617.963 388.122 617.747 387.814 617.712 387.434 617.859L386.921 617.393 391.539 612.312 392.052 612.778C391.024 614.492 390.585 616.089 390.735 617.568 390.885 619.047 391.467 620.248 392.482 621.171 393.197 621.82 393.97 622.14 394.802 622.13 395.634 622.12 396.318 621.82 396.855 621.23 397.504 620.515 397.799 619.686 397.739 618.742 397.68 617.799 397.238 616.272 396.414 614.161 395.59 612.05 395.218 610.482 395.298 609.458 395.368 608.444 395.813 607.486 396.632 606.585 397.696 605.415 398.987 604.801 400.505 604.743 402.024 604.686 403.42 605.236 404.694 606.394Z" fill-rule="evenodd"/><text fill="#000000" fill-opacity="0" font-family="Arial,Arial_MSFontService,sans-serif" font-size="19.1287" x="386.921" y="621.477">s</text><path d="M416.181 616.242 416.899 616.824 407.167 628.828C406.409 629.763 405.973 630.44 405.857 630.86 405.742 631.281 405.756 631.675 405.899 632.043 406.042 632.411 406.467 632.882 407.173 633.455L406.697 634.042 399.44 628.158 399.916 627.571C400.644 628.161 401.191 628.487 401.555 628.549 401.92 628.61 402.308 628.537 402.719 628.33 403.13 628.123 403.711 627.557 404.46 626.633L409.127 620.875C410.441 619.255 411.243 618.167 411.533 617.609 411.739 617.199 411.815 616.86 411.762 616.592 411.709 616.324 411.541 616.075 411.259 615.846 410.954 615.599 410.518 615.381 409.951 615.192L410.199 614.419ZM421.879 607.914C422.335 608.284 422.594 608.76 422.655 609.341 422.716 609.921 422.561 610.44 422.191 610.897 421.82 611.353 421.343 611.615 420.757 611.681 420.172 611.747 419.651 611.595 419.195 611.225 418.738 610.855 418.479 610.374 418.417 609.784 418.355 609.193 418.51 608.669 418.88 608.213 419.25 607.756 419.725 607.497 420.306 607.437 420.887 607.376 421.411 607.535 421.879 607.914Z" fill-rule="evenodd"/><text fill="#000000" fill-opacity="0" font-family="Arial,Arial_MSFontService,sans-serif" font-size="26.6178" x="399.44" y="630.715">i</text><path d="M425.688 623.434C426.305 623.871 426.96 624.532 427.654 625.418 428.115 626.002 428.443 626.362 428.637 626.5 428.82 626.629 428.991 626.69 429.151 626.683 429.31 626.676 429.555 626.584 429.887 626.407L430.452 626.807 426.667 632.154 426.102 631.753C426.856 629.767 427.108 628.23 426.857 627.143 426.606 626.056 425.955 625.141 424.904 624.397 424.104 623.831 423.309 623.585 422.519 623.66 421.728 623.735 421.151 624.029 420.787 624.544 420.334 625.183 420.129 625.861 420.171 626.577 420.193 627.296 420.561 628.302 421.274 629.596L422.915 632.584C424.433 635.357 424.537 637.669 423.227 639.52 422.216 640.948 420.861 641.716 419.163 641.826 417.465 641.936 415.947 641.517 414.611 640.571 413.651 639.892 412.676 638.944 411.685 637.728 411.388 637.347 411.12 637.071 410.88 636.901 410.618 636.715 410.307 636.718 409.948 636.91L409.383 636.51 413.35 630.906 413.915 631.306C413.103 633.132 412.861 634.77 413.189 636.22 413.517 637.67 414.241 638.792 415.361 639.584 416.149 640.142 416.955 640.366 417.78 640.255 418.604 640.144 419.247 639.763 419.708 639.112 420.266 638.324 420.458 637.465 420.284 636.536 420.111 635.607 419.486 634.144 418.412 632.149 417.338 630.154 416.779 628.643 416.734 627.616 416.68 626.601 417.006 625.597 417.709 624.603 418.623 623.312 419.83 622.546 421.33 622.304 422.831 622.063 424.283 622.44 425.688 623.434Z" fill-rule="evenodd"/><text fill="#000000" fill-opacity="0" font-family="Arial,Arial_MSFontService,sans-serif" font-size="19.6096" x="409.383" y="639.392">s</text><path d="M328 360C328 199.837 458.061 70 618.5 70 778.939 70 909 199.837 909 360 909 520.163 778.939 650 618.5 650 458.061 650 328 520.163 328 360Z" stroke="#A6A6A6" stroke-width="2" stroke-miterlimit="8" stroke-dasharray="2 2" fill="#F2F2F2" fill-rule="evenodd"/><path d="M428 360C428 254.514 513.29 169 618.5 169 723.71 169 809 254.514 809 360 809 465.486 723.71 551 618.5 551 513.29 551 428 465.486 428 360Z" stroke="#A6A6A6" stroke-width="2" stroke-miterlimit="8" stroke-dasharray="2 2" fill="#F2F2F2" fill-rule="evenodd"/><path d="M522 360C522 306.981 565.205 264 618.5 264 671.795 264 715 306.981 715 360 715 413.019 671.795 456 618.5 456 565.205 456 522 413.019 522 360Z" stroke="#A6A6A6" stroke-width="2" stroke-miterlimit="8" stroke-dasharray="2 2" fill="#F2F2F2" fill-rule="evenodd"/><path d="M618.302 70 366 505 870 504.396 618.302 70Z" fill="#FDA830" fill-rule="evenodd" fill-opacity="0.756863"/><path d="M618 168 367 504 618 360.173 618 168Z" fill="#26A199" fill-rule="evenodd" fill-opacity="0.741176"/><path d="M618 263 365 505 617.875 359.358C617.906 312.495 617.969 309.864 618 263Z" fill="#9771BC" fill-rule="evenodd" fill-opacity="0.74902"/><path d="M772 707 794.5 670 817 707Z" fill="#FABA5F" fill-rule="evenodd"/><text font-family="Times New Roman,Times New Roman_MSFontService,sans-serif" font-weight="700" font-size="37" transform="translate(870.734 701)">TIVE</text><path d="M515 706 537.5 670 560 706Z" fill="#5BA486" fill-rule="evenodd"/><text font-family="Times New Roman,Times New Roman_MSFontService,sans-serif" font-weight="700" font-size="37" transform="translate(613.756 701)">TIDE</text><path d="M256 707 279 670 302 707Z" fill="#887FB0" fill-rule="evenodd"/><text font-family="Times New Roman,Times New Roman_MSFontService,sans-serif" font-weight="700" font-size="37" transform="translate(355.403 701)">UAP</text><path d="M0 0 251.192 142.976" stroke="#A6A6A6" stroke-width="2" stroke-miterlimit="8" stroke-dasharray="2 2" fill="none" fill-rule="evenodd" transform="matrix(-1 0 0 1 618.192 360)"/><path d="M618 360 869.192 502.976" stroke="#A6A6A6" stroke-width="2" stroke-miterlimit="8" stroke-dasharray="2 2" fill="none" fill-rule="evenodd"/><path d="M618 70 618 360.113" stroke="#A6A6A6" stroke-width="2" stroke-miterlimit="8" stroke-dasharray="2 2" fill="none" fill-rule="evenodd"/></g></svg>