<svg width="727" height="701" xmlns="http://www.w3.org/2000/svg" xmlns:xlink="http://www.w3.org/1999/xlink" overflow="hidden"><defs><clipPath id="clip0"><rect x="238" y="20" width="727" height="701"/></clipPath></defs><g clip-path="url(#clip0)" transform="translate(-238 -20)"><text font-family="Times New Roman,Times New Roman_MSFontService,sans-serif" font-weight="700" font-size="37" transform="translate(850.242 689)">TIVE<tspan font-size="37" x="-262.891" y="0">TIDE</tspan><tspan font-size="37" x="-529.261" y="0">UAP</tspan></text><path d="M770 695 793 658 816 695Z" fill="#FABA5F" fill-rule="evenodd"/><path d="M504 695 527 658 550 695Z" fill="#5BA486" fill-rule="evenodd"/><path d="M239 695 261.5 658 284 695Z" fill="#887FB0" fill-rule="evenodd"/><path d="M376.816 110.32C376.064 111.206 375.736 112.29 375.832 113.574 375.928 114.857 376.54 116.078 377.668 117.236L383.425 110.446C382.441 109.703 381.684 109.254 381.154 109.099 380.33 108.859 379.523 108.858 378.734 109.097 377.944 109.336 377.305 109.743 376.816 110.32ZM376.439 108.459C377.833 106.815 379.52 105.924 381.5 105.786 383.48 105.648 385.377 106.348 387.192 107.887L378.597 118.024C380.765 119.881 382.922 120.801 385.065 120.784 387.209 120.766 388.892 120.037 390.114 118.596 390.929 117.635 391.373 116.575 391.446 115.417 391.52 114.259 391.12 112.897 390.246 111.33L390.987 111.105C392.26 112.57 393.04 114.35 393.326 116.447 393.613 118.544 393.068 120.403 391.692 122.026 390.199 123.788 388.234 124.714 385.798 124.805 383.363 124.896 380.987 123.96 378.67 121.995 376.161 119.868 374.75 117.565 374.437 115.089 374.124 112.612 374.792 110.402 376.439 108.459Z" fill-rule="evenodd"/><text fill="#000000" fill-opacity="0" font-family="Arial,Arial_MSFontService,sans-serif" font-size="19.0426" x="374.362" y="122.431">e</text><path d="M387.161 97.1832 387.801 96.5763 390.777 99.7147C389.961 96.5148 390.167 94.3321 391.396 93.1666 391.955 92.6369 392.578 92.3687 393.267 92.3622 393.955 92.3557 394.511 92.5759 394.935 93.0228 395.31 93.4189 395.496 93.8792 395.492 94.4039 395.488 94.9286 395.303 95.3643 394.938 95.711 394.582 96.0481 394.017 96.251 393.243 96.3196 392.469 96.3882 391.976 96.5236 391.762 96.7259 391.579 96.8993 391.478 97.1886 391.457 97.594 391.395 98.4439 391.573 99.5773 391.991 100.994L398.333 107.682C399.065 108.454 399.716 108.947 400.284 109.16 400.676 109.309 401.127 109.316 401.635 109.181 402.144 109.046 402.713 108.68 403.343 108.082L403.863 108.631 396.718 115.407 396.198 114.859C396.909 114.184 397.331 113.572 397.464 113.021 397.564 112.617 397.496 112.19 397.261 111.738 397.148 111.517 396.706 111.001 395.935 110.188L390.806 104.78C389.265 103.155 388.315 102.219 387.955 101.972 387.595 101.724 387.259 101.614 386.946 101.64 386.634 101.667 386.345 101.805 386.081 102.056 385.767 102.354 385.483 102.767 385.232 103.295L384.559 102.892Z" fill-rule="evenodd"/><text fill="#000000" fill-opacity="0" font-family="Arial,Arial_MSFontService,sans-serif" font-size="23.0449" x="384.559" y="112.526">r</text><path d="M398.309 87.3486 398.996 86.7959 401.707 90.1662C401.154 86.9104 401.538 84.7518 402.857 83.6903 403.457 83.2078 404.1 82.9913 404.787 83.0408 405.474 83.0904 406.01 83.3551 406.396 83.835 406.738 84.2604 406.886 84.7344 406.839 85.257 406.792 85.7796 406.573 86.1988 406.18 86.5146 405.798 86.8216 405.219 86.9778 404.442 86.9832 403.665 86.9885 403.161 87.0833 402.932 87.2675 402.736 87.4254 402.611 87.7056 402.558 88.108 402.426 88.9499 402.511 90.0941 402.813 91.5405L408.59 98.7227C409.256 99.5516 409.864 100.095 410.414 100.354 410.792 100.535 411.241 100.578 411.759 100.485 412.276 100.392 412.873 100.073 413.55 99.5293L414.023 100.118 406.35 106.29 405.877 105.701C406.64 105.087 407.111 104.511 407.289 103.973 407.421 103.579 407.388 103.147 407.19 102.678 407.095 102.448 406.697 101.897 405.995 101.025L401.324 95.2169C399.92 93.4718 399.049 92.4614 398.711 92.1858 398.372 91.9102 398.046 91.7728 397.732 91.7736 397.419 91.7744 397.12 91.8889 396.836 92.117 396.498 92.3889 396.182 92.7778 395.889 93.2835L395.251 92.8262Z" fill-rule="evenodd"/><text fill="#000000" fill-opacity="0" font-family="Arial,Arial_MSFontService,sans-serif" font-size="23.2562" x="395.251" y="103.383">r</text><path d="M414.313 77.2484C413.696 77.6594 413.197 78.2558 412.818 79.0378 412.439 79.8197 412.363 80.7989 412.591 81.9754 412.819 83.1519 413.414 84.4627 414.376 85.9077 415.926 88.2384 417.727 89.9403 419.778 91.0136 421.829 92.0869 423.612 92.1195 425.127 91.1115 426.257 90.3593 426.879 89.2729 426.993 87.8521 427.107 86.4313 426.408 84.5847 424.896 82.3123 423.004 79.4689 420.903 77.6386 418.594 76.8213 417.022 76.2531 415.595 76.3955 414.313 77.2484ZM414.099 75.7517C416.523 74.1388 419.082 73.7645 421.775 74.6287 424.069 75.3722 425.894 76.7636 427.251 78.803 428.205 80.2363 428.827 81.9159 429.116 83.8417 429.406 85.7676 429.195 87.5046 428.485 89.053 427.776 90.6014 426.681 91.868 425.201 92.8527 422.788 94.4578 420.232 94.772 417.531 93.7952 415.253 92.974 413.443 91.5554 412.101 89.5394 411.124 88.0711 410.517 86.3692 410.28 84.4337 410.043 82.4982 410.288 80.7883 411.016 79.304 411.743 77.8198 412.771 76.6356 414.099 75.7517Z" fill-rule="evenodd"/><text fill="#000000" fill-opacity="0" font-family="Arial,Arial_MSFontService,sans-serif" font-size="20.1731" x="410.193" y="91.8279">o</text><path d="M428.807 66.7589 429.577 66.33 431.68 70.1095C431.685 66.8071 432.427 64.7442 433.907 63.9206 434.58 63.5462 435.25 63.4414 435.918 63.6061 436.587 63.7709 437.071 64.1223 437.37 64.6605 437.636 65.1375 437.701 65.6296 437.567 66.1368 437.433 66.644 437.145 67.0201 436.705 67.2651 436.277 67.5034 435.68 67.5595 434.913 67.4336 434.146 67.3077 433.634 67.3163 433.377 67.4592 433.157 67.5817 432.987 67.8367 432.866 68.2243 432.594 69.0321 432.485 70.1742 432.538 71.6506L437.02 79.7048C437.537 80.6344 438.045 81.273 438.543 81.6207 438.885 81.8624 439.32 81.9811 439.846 81.9766 440.372 81.9722 441.014 81.759 441.773 81.337L442.14 81.9975 433.536 86.7857 433.168 86.1252C434.024 85.6488 434.585 85.1603 434.851 84.6598 435.048 84.294 435.089 83.863 434.973 83.3668 434.918 83.1248 434.619 82.5146 434.074 81.5361L430.45 75.0231C429.361 73.0661 428.673 71.9232 428.386 71.5944 428.099 71.2656 427.8 71.0751 427.491 71.023 427.182 70.9708 426.868 71.0333 426.55 71.2102 426.171 71.4212 425.794 71.7512 425.419 72.2001L424.868 71.6417Z" fill-rule="evenodd"/><text fill="#000000" fill-opacity="0" font-family="Arial,Arial_MSFontService,sans-serif" font-size="23.2551" x="424.868" y="83.8788">r</text><path d="M452.497 55.0237 453.343 54.6518 459.564 68.7975C460.048 69.8994 460.451 70.5978 460.772 70.8925 461.092 71.1872 461.449 71.3553 461.842 71.3966 462.235 71.4379 462.848 71.2755 463.681 70.9092L463.985 71.6011 455.432 75.3624 455.128 74.6704C455.986 74.2929 456.526 73.9561 456.748 73.6599 456.969 73.3637 457.082 72.9854 457.086 72.5249 457.09 72.0645 456.852 71.2897 456.373 70.2006L453.39 63.416C452.55 61.5069 451.949 60.2958 451.585 59.7827 451.315 59.4121 451.049 59.189 450.786 59.1134 450.524 59.0377 450.226 59.0732 449.893 59.2197 449.534 59.3774 449.141 59.6651 448.713 60.0827L448.139 59.5091ZM447.699 46.1471C448.237 45.9105 448.778 45.898 449.323 46.1098 449.867 46.3215 450.257 46.6965 450.494 47.2346 450.731 47.7728 450.744 48.3172 450.535 48.8678 450.327 49.4184 449.953 49.8121 449.415 50.0487 448.877 50.2854 448.331 50.296 447.777 50.0807 447.224 49.8653 446.829 49.4886 446.592 48.9504 446.356 48.4123 446.343 47.8711 446.555 47.3269 446.767 46.7827 447.148 46.3894 447.699 46.1471Z" fill-rule="evenodd"/><text fill="#000000" fill-opacity="0" font-family="Arial,Arial_MSFontService,sans-serif" font-size="29.4026" x="446.405" y="71.687">i</text><path d="M464.562 50.1055C465.269 49.8369 466.183 49.6615 467.305 49.5794 468.047 49.522 468.529 49.451 468.751 49.3664 468.961 49.2868 469.107 49.1789 469.19 49.0425 469.273 48.9062 469.333 48.6511 469.37 48.2774L470.018 48.0312 472.346 54.1544 471.698 54.4006C470.47 52.6663 469.335 51.6004 468.293 51.203 467.25 50.8055 466.128 50.8356 464.924 51.2933 464.008 51.6415 463.361 52.1646 462.982 52.8626 462.604 53.5606 462.526 54.2039 462.75 54.7927 463.029 55.5254 463.477 56.0738 464.095 56.438 464.704 56.8202 465.745 57.076 467.217 57.2052L470.612 57.5093C473.76 57.7947 475.737 58.9973 476.543 61.1168 477.165 62.7523 477.048 64.3055 476.192 65.7765 475.336 67.2475 474.143 68.2739 472.612 68.856 471.513 69.2738 470.182 69.5551 468.62 69.6998 468.139 69.7331 467.76 69.802 467.486 69.9065 467.185 70.0209 467.014 70.2805 466.973 70.6854L466.326 70.9316 463.886 64.5141 464.533 64.2678C465.596 65.9603 466.821 67.0745 468.208 67.6104 469.594 68.1464 470.929 68.1706 472.211 67.6831 473.114 67.3399 473.749 66.7951 474.117 66.0489 474.484 65.3026 474.526 64.5566 474.243 63.8108 473.9 62.908 473.294 62.2698 472.426 61.8961 471.557 61.5225 469.995 61.2253 467.74 61.0045 465.485 60.7838 463.918 60.4059 463.041 59.8709 462.169 59.349 461.516 58.5189 461.084 57.3806 460.521 55.9021 460.558 54.473 461.194 53.0931 461.83 51.7132 462.953 50.7174 464.562 50.1055Z" fill-rule="evenodd"/><text fill="#000000" fill-opacity="0" font-family="Arial,Arial_MSFontService,sans-serif" font-size="22.9004" x="460.688" y="68.0691">s</text><path d="M483.13 45.13C482.421 45.3491 481.774 45.78 481.189 46.4224 480.604 47.0649 480.254 47.9826 480.139 49.1755 480.025 50.3684 480.224 51.794 480.737 53.4522 481.564 56.1267 482.809 58.2691 484.471 59.8793 486.134 61.4896 487.835 62.0259 489.573 61.4883 490.87 61.0872 491.775 60.2215 492.286 58.8911 492.798 57.5608 492.651 55.5918 491.844 52.9841 490.835 49.7212 489.339 47.3708 487.356 45.9328 486.01 44.9427 484.601 44.6751 483.13 45.13ZM483.349 43.6338C486.13 42.7737 488.69 43.1395 491.028 44.7313 493.017 46.0941 494.374 47.9456 495.098 50.2858 495.606 51.9307 495.727 53.7175 495.459 55.6465 495.191 57.5754 494.497 59.1818 493.378 60.4657 492.258 61.7495 490.849 62.654 489.151 63.1792 486.383 64.0352 483.842 63.6123 481.528 61.9103 479.576 60.4775 478.242 58.6043 477.527 56.2909 477.006 54.6059 476.906 52.8018 477.227 50.8784 477.548 48.9551 478.267 47.3847 479.385 46.1672 480.503 44.9497 481.824 44.1053 483.349 43.6338Z" fill-rule="evenodd"/><text fill="#000000" fill-opacity="0" font-family="Arial,Arial_MSFontService,sans-serif" font-size="20.4277" x="477.043" y="61.0555">o</text><path d="M498.076 29.0857 498.992 28.8536 505.258 53.5824C505.554 54.7493 505.835 55.5012 506.101 55.8381 506.366 56.1751 506.701 56.3972 507.103 56.5046 507.506 56.6119 508.189 56.5435 509.152 56.2994L509.338 57.0321 500.2 59.3477 500.014 58.615C500.869 58.3984 501.43 58.1624 501.697 57.9069 501.965 57.6514 502.135 57.2978 502.208 56.8461 502.281 56.3943 502.172 55.5918 501.88 54.4385L497.589 37.5049C497.056 35.4017 496.681 34.1214 496.464 33.6637 496.247 33.2061 496.011 32.9158 495.756 32.7927 495.501 32.6696 495.211 32.6493 494.885 32.7318 494.532 32.8212 494.112 33.0432 493.624 33.3978L493.098 32.7731Z" fill-rule="evenodd"/><text fill="#000000" fill-opacity="0" font-family="Arial,Arial_MSFontService,sans-serif" font-size="30.4941" x="493.098" y="55.536">l</text><path d="M519.09 43.2278C517.188 44.4752 515.971 45.3322 515.438 45.7987 514.478 46.6243 513.833 47.4139 513.502 48.1677 513.171 48.9215 513.085 49.6892 513.245 50.4708 513.448 51.458 513.911 52.2168 514.634 52.7472 515.357 53.2776 516.103 53.4641 516.871 53.3066 517.913 53.0928 519.143 52.126 520.562 50.406ZM514.536 35.653C516.209 35.3099 517.637 35.3097 518.822 35.6525 519.718 35.9117 520.451 36.4544 521.021 37.2806 521.389 37.8196 521.76 39.0009 522.134 40.8246L523.446 47.2212C523.814 49.0175 524.074 50.1108 524.226 50.5013 524.377 50.8917 524.546 51.1393 524.732 51.2441 524.917 51.3489 525.113 51.3802 525.319 51.338 525.538 51.293 525.72 51.2056 525.865 51.0759 526.117 50.8386 526.569 50.2242 527.223 49.2327L527.459 50.3845C526.346 52.7563 525.089 54.0856 523.691 54.3725 523.019 54.5103 522.436 54.3869 521.943 54.0023 521.45 53.6176 521.081 52.8645 520.837 51.7429 519.21 53.6341 518.173 54.7468 517.728 55.0812 517.057 55.5759 516.304 55.909 515.468 56.0806 514.165 56.3477 513.001 56.1222 511.975 55.4039 510.949 54.6856 510.286 53.5997 509.988 52.1462 509.8 51.2275 509.842 50.39 510.116 49.6338 510.487 48.586 511.284 47.5081 512.507 46.3999 513.73 45.2917 515.839 43.8162 518.833 41.9732L518.681 41.2327C518.296 39.3542 517.733 38.1265 516.993 37.5495 516.253 36.9725 515.314 36.8008 514.176 37.0342 513.312 37.2114 512.674 37.5851 512.263 38.1554 511.837 38.7284 511.686 39.3167 511.81 39.92L512.096 41.1045C512.225 41.7352 512.164 42.255 511.912 42.6639 511.66 43.0728 511.274 43.3307 510.753 43.4376 510.245 43.5416 509.794 43.4485 509.399 43.158 509.003 42.8676 508.742 42.4139 508.616 41.7969 508.374 40.6176 508.755 39.4106 509.759 38.1759 510.763 36.9411 512.355 36.1002 514.536 35.653Z" fill-rule="evenodd"/><text fill="#000000" fill-opacity="0" font-family="Arial,Arial_MSFontService,sans-serif" font-size="20.7937" x="508.545" y="53.59">a</text><path d="M529.559 27.0748 530.202 26.9723 531.197 33.2132 535.634 32.5055 535.866 33.9569 531.429 34.6646 533.393 46.9806C533.589 48.2108 533.898 49.0121 534.319 49.3843 534.739 49.7566 535.226 49.8987 535.779 49.8105 536.235 49.7377 536.655 49.5255 537.038 49.1738 537.422 48.822 537.687 48.351 537.834 47.7606L538.642 47.6316C538.374 49.0634 537.853 50.192 537.077 51.0173 536.302 51.8426 535.444 52.3303 534.504 52.4802 533.868 52.5816 533.218 52.5046 532.554 52.2491 531.889 51.9936 531.36 51.5608 530.965 50.9505 530.57 50.3402 530.263 49.3509 530.045 47.9824L528.007 35.2103 525.001 35.6898 524.892 35.0056C525.604 34.5802 526.299 33.9413 526.978 33.0889 527.657 32.2364 528.228 31.2629 528.692 30.1685 528.926 29.5925 529.215 28.5613 529.559 27.0748Z" fill-rule="evenodd"/><text fill="#000000" fill-opacity="0" font-family="Arial,Arial_MSFontService,sans-serif" font-size="25.5511" x="524.892" y="49.3295">t</text><path d="M543.096 30.9791 544.013 30.8636 545.944 46.1956C546.095 47.39 546.281 48.1741 546.505 48.548 546.728 48.922 547.022 49.1847 547.387 49.3363 547.752 49.4879 548.386 49.5068 549.288 49.3931L549.383 50.143 540.113 51.3106 540.018 50.5607C540.949 50.4435 541.562 50.2745 541.859 50.0537 542.156 49.833 542.372 49.5025 542.507 49.0622 542.642 48.622 542.635 47.8116 542.486 46.6312L541.56 39.2776C541.299 37.2084 541.068 35.8761 540.866 35.2808 540.713 34.8486 540.521 34.5589 540.291 34.4115 540.061 34.2641 539.765 34.2132 539.404 34.2587 539.015 34.3077 538.556 34.4713 538.027 34.7496L537.641 34.0364ZM541.027 21.1031C541.61 21.0296 542.133 21.172 542.594 21.53 543.055 21.8881 543.323 22.3588 543.396 22.9421 543.47 23.5254 543.328 24.0511 542.971 24.5194 542.613 24.9876 542.143 25.2584 541.56 25.3319 540.977 25.4054 540.45 25.26 539.981 24.8959 539.512 24.5317 539.241 24.058 539.167 23.4747 539.094 22.8914 539.236 22.3692 539.594 21.9079 539.952 21.4466 540.43 21.1783 541.027 21.1031Z" fill-rule="evenodd"/><text fill="#000000" fill-opacity="0" font-family="Arial,Arial_MSFontService,sans-serif" font-size="30.2263" x="537.641" y="47.5323">i</text><path d="M554.064 29.7704 554.964 29.6979 555.29 33.758C557.319 30.8704 559.352 29.3447 561.389 29.1807 562.435 29.0964 563.356 29.2856 564.151 29.7482 564.947 30.2107 565.616 31.024 566.159 32.1879 566.534 33.0003 566.791 34.2716 566.93 36.0017L567.589 44.1847C567.686 45.3985 567.85 46.2138 568.08 46.6306 568.262 46.9671 568.531 47.2192 568.889 47.387 569.247 47.5548 569.886 47.6017 570.807 47.5276L570.867 48.281 561.387 49.0442 561.326 48.2908 561.724 48.2588C562.617 48.1869 563.23 48.0006 563.564 47.6999 563.898 47.3992 564.113 46.9781 564.21 46.4367 564.249 46.2229 564.224 45.5649 564.135 44.4627L563.504 36.6145C563.363 34.8705 563.035 33.6226 562.518 32.8708 562.001 32.119 561.205 31.7863 560.131 31.8728 558.47 32.0065 556.89 33.0465 555.39 34.9928L556.203 45.1012C556.308 46.3988 556.449 47.1948 556.627 47.4894 556.855 47.8783 557.148 48.1532 557.505 48.314 557.862 48.4749 558.564 48.5132 559.61 48.4289L559.671 49.1823 550.19 49.9456 550.129 49.1921 550.548 49.1584C551.525 49.0798 552.164 48.7791 552.466 48.2563 552.768 47.7334 552.863 46.7744 552.75 45.3792L552.177 38.2635C551.992 35.9614 551.827 34.5634 551.682 34.0696 551.537 33.5757 551.349 33.2468 551.118 33.0828 550.887 32.9189 550.59 32.8515 550.228 32.8807 549.837 32.9121 549.378 33.0544 548.851 33.3075L548.476 32.5793Z" fill-rule="evenodd"/><text fill="#000000" fill-opacity="0" font-family="Arial,Arial_MSFontService,sans-serif" font-size="20.7843" x="548.476" y="47.3475">n</text><path d="M576.277 48.1767C575.636 48.9062 575.156 49.5829 574.835 50.2067 574.514 50.8305 574.36 51.4013 574.372 51.919 574.388 52.5907 574.808 53.1686 575.632 53.6528 577.052 54.4866 579.085 54.8716 581.729 54.8078 584.248 54.747 586.095 54.2579 587.27 53.3405 588.445 52.423 589.021 51.4605 588.996 50.453 588.979 49.7254 588.609 49.2162 587.888 48.9256 587.153 48.6353 585.707 48.4882 583.551 48.4842 580.401 48.4762 577.976 48.3737 576.277 48.1767ZM579.686 29.2974C578.65 29.3224 577.793 29.7562 577.113 30.5986 576.433 31.4411 576.114 32.716 576.155 34.4232 576.208 36.6341 576.726 38.3368 577.707 39.5313 578.456 40.4373 579.391 40.8768 580.511 40.8498 581.574 40.8241 582.439 40.4042 583.106 39.59 583.772 38.7758 584.085 37.5152 584.043 35.808 583.99 33.583 583.465 31.8525 582.469 30.6164 581.733 29.7101 580.805 29.2704 579.686 29.2974ZM580.018 28.2813C581.852 28.2371 583.451 28.6465 584.815 29.5097L588.888 29.4114C589.489 29.3969 589.84 29.406 589.938 29.4386 590.037 29.4712 590.109 29.529 590.153 29.6119 590.24 29.7359 590.287 29.9587 590.295 30.2806 590.303 30.6444 590.275 30.8971 590.208 31.0388 590.168 31.1097 590.096 31.1675 589.992 31.212 589.888 31.2565 589.535 31.286 588.933 31.3005L586.435 31.3608C587.243 32.3494 587.666 33.6274 587.704 35.1946 587.747 36.9858 587.099 38.5346 585.758 39.841 584.417 41.1475 582.592 41.8286 580.284 41.8843 579.332 41.9073 578.356 41.7908 577.356 41.5349 576.753 42.0815 576.348 42.5569 576.141 42.9609 575.933 43.3649 575.833 43.7069 575.84 43.9868 575.846 44.2247 575.967 44.4528 576.203 44.6711 576.439 44.8894 576.894 45.0394 577.568 45.1212 577.962 45.1677 578.942 45.193 580.51 45.1972 583.395 45.1976 585.265 45.2505 586.122 45.3558 587.428 45.5064 588.478 45.9641 589.274 46.7289 590.069 47.4938 590.481 48.45 590.509 49.5975 590.547 51.1787 589.841 52.6799 588.391 54.101 586.258 56.1967 583.435 57.2869 579.922 57.3717 577.221 57.4368 574.926 56.8832 573.035 55.7107 571.969 55.0363 571.427 54.3213 571.408 53.5657 571.4 53.2299 571.469 52.8922 571.615 52.5526 571.84 52.0291 572.313 51.2966 573.032 50.3552 573.127 50.2269 573.823 49.454 575.118 48.0366 574.38 47.6204 573.857 47.2445 573.548 46.9089 573.238 46.5733 573.079 46.1886 573.068 45.7548 573.056 45.2651 573.242 44.6865 573.625 44.0192 574.008 43.3519 574.905 42.3991 576.318 41.1609 575.128 40.6156 574.207 39.8362 573.552 38.8229 572.897 37.8096 572.555 36.6802 572.525 35.4348 572.479 33.5317 573.157 31.8772 574.558 30.4713 575.959 29.0653 577.779 28.3353 580.018 28.2813Z" fill-rule="evenodd"/><text fill="#000000" fill-opacity="0" font-family="Arial,Arial_MSFontService,sans-serif" font-size="29.0988" x="571.408" y="53.7395">g</text><path d="M612.646 34.106C610.898 34.9427 609.558 35.9084 608.627 37.0032 607.695 38.0979 607.178 39.3223 607.076 40.6762 606.963 42.1697 607.345 43.518 608.223 44.7213 609.101 45.9245 610.356 46.5877 611.989 46.711 612.869 46.7773 613.73 46.6668 614.573 46.3795 615.416 46.0922 616.585 45.4294 618.081 44.3913 616.428 41.7399 615.29 39.808 614.665 38.5958 614.041 37.3836 613.368 35.887 612.646 34.106ZM618.487 21.429C617.273 21.3374 616.323 21.6903 615.639 22.4879 614.954 23.2855 614.581 24.0891 614.52 24.8986 614.468 25.5825 614.529 26.3557 614.703 27.218 614.876 28.0804 615.25 29.3614 615.823 31.061 617.616 30.3681 618.981 29.5307 619.919 28.5486 620.856 27.5665 621.373 26.4335 621.47 25.1493 621.546 24.1444 621.298 23.2905 620.727 22.5876 620.155 21.8847 619.408 21.4985 618.487 21.429ZM618.644 19.9038C620.305 20.0291 621.622 20.6233 622.595 21.6863 623.567 22.7493 623.999 23.9996 623.891 25.4373 623.779 26.9168 623.175 28.1767 622.079 29.217 620.983 30.2572 619.101 31.3434 616.432 32.4756 617.967 35.7638 619.599 38.7926 621.327 41.562 624.004 38.8163 625.419 36.4384 625.571 34.4285 625.619 33.7865 625.453 33.1984 625.072 32.6643 624.794 32.2643 624.371 32.0078 623.804 31.8948L623.862 31.1202 632.656 31.7837 632.597 32.5584C631.375 32.5644 630.458 32.7655 629.846 33.1614 629.234 33.5574 628.229 34.8186 626.834 36.9452 625.438 39.0718 623.9 41.0403 622.219 42.8506 623.352 44.3959 624.385 45.4951 625.318 46.1481 626.251 46.801 627.214 47.1649 628.205 47.2397 629.168 47.3124 630.004 47.1123 630.713 46.6394 631.423 46.1665 631.956 45.4312 632.312 44.4333L633.044 45.0571C632.379 46.9862 631.439 48.3751 630.224 49.2239 629.008 50.0727 627.64 50.4397 626.119 50.3249 624.974 50.2385 623.836 49.8403 622.703 49.1302 621.571 48.4201 620.362 47.2726 619.078 45.6877 617.232 47.0925 615.591 48.0391 614.158 48.5275 612.724 49.0159 611.219 49.2006 609.642 49.0816 607.339 48.9078 605.557 48.1557 604.295 46.8252 603.034 45.4948 602.468 43.9782 602.596 42.2753 602.724 40.5864 603.458 38.9469 604.799 37.3566 606.141 35.7663 608.554 34.1973 612.04 32.6495 611.493 31.1484 611.136 29.9248 610.969 28.9787 610.802 28.0326 610.75 27.1339 610.815 26.2824 610.995 23.8957 612.012 22.1405 613.865 21.0171 615.307 20.1432 616.9 19.7721 618.644 19.9038Z" fill-rule="evenodd"/><text fill="#000000" fill-opacity="0" font-family="Arial,Arial_MSFontService,sans-serif" font-size="30.4675" x="602.578" y="46.537">&amp;</text><path d="M646.51 32.6564 654.422 34.2075 654.272 34.9699C653.533 34.8821 653.03 34.919 652.763 35.0806 652.496 35.2422 652.325 35.5153 652.25 35.8999 652.166 36.3257 652.182 36.8637 652.297 37.5139L654.207 49.1639 659.998 41.1206 659.472 38.129C659.304 37.2402 658.983 36.5853 658.51 36.1644 658.245 35.9128 657.705 35.6857 656.889 35.4829L657.038 34.7205 666.021 36.4817 665.872 37.2441C664.875 37.0914 664.139 37.1326 663.665 37.3678 663.348 37.5337 663.142 37.857 663.047 38.3378 662.993 38.6125 662.993 38.9048 663.047 39.2148L665.207 50.8927 671.232 41.2261C671.652 40.5382 671.905 39.9745 671.991 39.535 672.043 39.274 671.954 39.0142 671.727 38.7557 671.5 38.4971 670.997 38.2774 670.219 38.0964L670.369 37.334 676.323 38.5014 676.174 39.2638C674.944 39.2081 673.906 39.8461 673.06 41.178L663.568 56.1984 662.723 56.0328 660.368 43.0545 652.504 54.0292 651.742 53.8798 648.794 36.8272C648.593 35.7464 648.334 34.9931 648.018 34.5675 647.702 34.1418 647.149 33.7589 646.36 33.4188Z" fill-rule="evenodd"/><text fill="#000000" fill-opacity="0" font-family="Arial,Arial_MSFontService,sans-serif" font-size="23.542" x="646.36" y="53.2556">w</text><path d="M685.551 42.1632C684.431 41.8553 683.309 42.0151 682.186 42.6426 681.062 43.2701 680.213 44.3396 679.638 45.8509L688.222 48.2104C688.481 47.0042 688.569 46.1284 688.487 45.5832 688.357 44.7346 688.018 44.0026 687.469 43.387 686.919 42.7715 686.28 42.3635 685.551 42.1632ZM687.08 41.0374C689.159 41.6088 690.678 42.763 691.637 44.5003 692.597 46.2375 692.761 48.2533 692.131 50.5478L679.315 47.0251C678.545 49.7747 678.62 52.1179 679.539 54.0545 680.458 55.9911 681.829 57.2099 683.651 57.7107 684.866 58.0446 686.014 58.0009 687.095 57.5795 688.176 57.1581 689.243 56.2211 690.295 54.7684L690.812 55.3459C690.02 57.117 688.734 58.5744 686.953 59.7181 685.173 60.8618 683.257 61.1516 681.205 60.5877 678.978 59.9756 677.31 58.5844 676.201 56.4141 675.092 54.2438 674.94 51.6943 675.745 48.7655 676.617 45.5938 678.11 43.344 680.224 42.0162 682.338 40.6885 684.624 40.3622 687.08 41.0374Z" fill-rule="evenodd"/><text fill="#000000" fill-opacity="0" font-family="Arial,Arial_MSFontService,sans-serif" font-size="20.1711" x="675.237" y="58.3457">e</text><path d="M702.259 45.687 703.136 45.9754 698.312 60.6562C697.936 61.7999 697.769 62.5885 697.811 63.0221 697.853 63.4557 698.006 63.8191 698.27 64.1123 698.535 64.4056 699.099 64.6942 699.964 64.9782L699.728 65.6963 690.852 62.7795 691.088 62.0614C691.979 62.3542 692.605 62.4644 692.968 62.392 693.331 62.3197 693.667 62.1135 693.978 61.7736 694.288 61.4336 694.63 60.6985 695.001 59.5682L697.315 52.527C697.966 50.5456 698.328 49.2427 698.4 48.6183 698.447 48.1621 698.398 47.8182 698.253 47.5864 698.108 47.3547 697.863 47.182 697.517 47.0684 697.145 46.946 696.66 46.8972 696.062 46.9218L696.019 46.112ZM704.62 35.8769C705.179 36.0604 705.59 36.4128 705.853 36.934 706.116 37.4552 706.156 37.995 705.973 38.5535 705.789 39.112 705.436 39.5263 704.913 39.7963 704.389 40.0664 703.848 40.1096 703.29 39.9261 702.731 39.7425 702.318 39.3858 702.05 38.8557 701.782 38.3257 701.74 37.7815 701.924 37.2229 702.107 36.6644 702.46 36.2535 702.981 35.9901 703.502 35.7267 704.048 35.689 704.62 35.8769Z" fill-rule="evenodd"/><text fill="#000000" fill-opacity="0" font-family="Arial,Arial_MSFontService,sans-serif" font-size="29.9368" x="690.852" y="61.9542">i</text><path d="M705.783 67.8885C704.91 68.3129 704.205 68.7505 703.667 69.2012 703.13 69.652 702.766 70.1184 702.577 70.6006 702.332 71.2261 702.495 71.9216 703.067 72.6871 704.054 74.0061 705.778 75.1484 708.241 76.1142 710.587 77.034 712.479 77.2986 713.918 76.9081 715.356 76.5175 716.26 75.8531 716.627 74.9148 716.893 74.2372 716.75 73.6247 716.198 73.0774 715.633 72.525 714.357 71.8293 712.37 70.9902 709.469 69.7623 707.273 68.7284 705.783 67.8885ZM716.24 51.8044C715.276 51.4262 714.317 51.4938 713.364 52.0072 712.411 52.5205 711.623 53.5721 711 55.1619 710.192 57.2209 710.009 58.9909 710.451 60.4721 710.791 61.5979 711.483 62.3652 712.525 62.774 713.515 63.1624 714.476 63.1104 715.405 62.618 716.335 62.1256 717.112 61.0845 717.735 59.4947 718.548 57.4227 718.734 55.624 718.295 54.0986 717.968 52.9779 717.283 52.2132 716.24 51.8044ZM716.941 50.9964C718.648 51.6659 719.963 52.6628 720.887 53.9874L724.679 55.4744C725.24 55.6942 725.559 55.8382 725.637 55.9066 725.716 55.9749 725.759 56.0558 725.768 56.1494 725.8 56.2973 725.757 56.5211 725.64 56.8209 725.507 57.1597 725.382 57.3815 725.266 57.4862 725.201 57.536 725.113 57.5613 725 57.5621 724.886 57.5629 724.55 57.4534 723.989 57.2337L721.663 56.3215C722.025 57.5459 721.92 58.8879 721.348 60.3474 720.693 62.0154 719.495 63.1919 717.753 63.877 716.011 64.5621 714.065 64.483 711.915 63.6399 711.029 63.2924 710.174 62.8069 709.351 62.1835 708.584 62.4538 708.026 62.7351 707.678 63.0273 707.331 63.3195 707.106 63.5959 707.004 63.8565 706.917 64.078 706.94 64.3352 707.073 64.628 707.207 64.9208 707.568 65.2355 708.158 65.572 708.502 65.7672 709.396 66.1705 710.841 66.7819 713.5 67.8997 715.203 68.6732 715.952 69.1022 717.098 69.7468 717.889 70.5758 718.326 71.5892 718.763 72.6025 718.772 73.6435 718.353 74.7121 717.776 76.1846 716.544 77.2951 714.656 78.0435 711.877 79.1489 708.852 79.0603 705.582 77.7777 703.067 76.7914 701.165 75.3916 699.876 73.5783 699.154 72.5434 698.931 71.6742 699.207 70.9705 699.33 70.6578 699.524 70.3731 699.79 70.1166 700.201 69.7213 700.92 69.229 701.948 68.6398 702.085 68.5583 703.026 68.1152 704.77 67.3106 704.25 66.6409 703.913 66.0915 703.758 65.6623 703.603 65.2332 703.605 64.8166 703.764 64.4127 703.942 63.9566 704.338 63.4951 704.949 63.0283 705.561 62.5614 706.757 62.0308 708.539 61.4365 707.654 60.473 707.106 59.3973 706.895 58.2096 706.684 57.0218 706.806 55.848 707.261 54.6883 707.956 52.916 709.222 51.6532 711.058 50.9 712.895 50.1467 714.856 50.1788 716.941 50.9964Z" fill-rule="evenodd"/><text fill="#000000" fill-opacity="0" font-family="Arial,Arial_MSFontService,sans-serif" font-size="28.4529" x="699.093" y="75.2544">g</text><path d="M737.36 48.7528 738.228 49.1753 732.075 61.8256C734.219 60.9695 735.806 60.5233 736.835 60.487 737.865 60.4507 738.789 60.6316 739.607 61.0295 740.589 61.5071 741.3 62.1879 741.742 63.072 742.184 63.9561 742.293 65.0599 742.069 66.3832 741.917 67.3051 741.32 68.836 740.279 70.9759L737.304 77.0934C736.771 78.1885 736.495 78.9803 736.475 79.4688 736.454 79.8321 736.552 80.1753 736.768 80.4985 736.984 80.8217 737.495 81.1792 738.301 81.571L737.97 82.2507 729.474 78.1181 729.805 77.4384 730.201 77.6312C731.007 78.0231 731.626 78.1728 732.061 78.0804 732.495 77.988 732.891 77.7332 733.25 77.3161 733.385 77.1331 733.692 76.5507 734.169 75.5689L737.145 69.4514C738.063 67.5633 738.569 66.276 738.661 65.5895 738.754 64.903 738.658 64.3077 738.374 63.8037 738.09 63.2998 737.646 62.9009 737.042 62.607 736.425 62.307 735.703 62.1584 734.877 62.1612 734.051 62.1639 732.93 62.436 731.515 62.9774L727.07 72.1158C726.495 73.299 726.203 74.0675 726.194 74.4213 726.185 74.7751 726.313 75.1368 726.577 75.5064 726.84 75.876 727.413 76.2751 728.294 76.7037L727.964 77.3834 719.391 73.214 719.722 72.5343C720.49 72.9078 721.152 73.0821 721.709 73.0572 722.022 73.0538 722.34 72.9126 722.662 72.6336 722.985 72.3546 723.409 71.6739 723.936 70.5913L731.549 54.9389C732.51 52.9627 733.054 51.725 733.18 51.226 733.306 50.7269 733.311 50.3481 733.196 50.0896 733.08 49.831 732.859 49.6222 732.531 49.463 732.267 49.3344 731.79 49.2269 731.101 49.1406L731.158 48.3512Z" fill-rule="evenodd"/><text fill="#000000" fill-opacity="0" font-family="Arial,Arial_MSFontService,sans-serif" font-size="33.8995" x="719.391" y="78.0133">h</text><path d="M755.379 62.9785 755.944 63.3022 752.801 68.7849 756.698 71.0197 755.968 72.2947 752.07 70.06 745.866 80.8796C745.247 81.9604 744.984 82.7777 745.078 83.3317 745.172 83.8857 745.461 84.3019 745.947 84.5804 746.348 84.8101 746.808 84.9084 747.327 84.8753 747.846 84.8422 748.348 84.6419 748.833 84.2746L749.543 84.6818C748.436 85.6282 747.322 86.1792 746.2 86.3347 745.078 86.4902 744.104 86.3313 743.279 85.8579 742.72 85.5376 742.262 85.0695 741.906 84.4535 741.549 83.8376 741.408 83.1681 741.484 82.4451 741.56 81.722 741.942 80.7595 742.631 79.5573L749.064 68.3369 746.423 66.8227 746.768 66.2216C747.589 66.3373 748.531 66.2766 749.595 66.0394 750.658 65.8022 751.714 65.4031 752.762 64.842 753.306 64.5407 754.178 63.9195 755.379 62.9785Z" fill-rule="evenodd"/><text fill="#000000" fill-opacity="0" font-family="Arial,Arial_MSFontService,sans-serif" font-size="23.4139" x="741.464" y="83.4656">t</text><path d="M763.613 74.7683 764.389 75.2696 756.004 88.2501C755.351 89.2613 754.989 89.9818 754.92 90.4119 754.85 90.8419 754.906 91.2323 755.088 91.583 755.27 91.9336 755.743 92.3558 756.507 92.8495L756.097 93.4844 748.249 88.4148 748.659 87.7798C749.447 88.2887 750.025 88.5541 750.394 88.5759 750.764 88.5977 751.141 88.4835 751.528 88.2333 751.915 87.9831 752.431 87.3583 753.076 86.3589L757.098 80.1332C758.229 78.3813 758.909 77.2126 759.138 76.6269 759.299 76.1974 759.338 75.8523 759.257 75.5914 759.175 75.3305 758.982 75.1013 758.676 74.9039 758.347 74.6912 757.89 74.5211 757.306 74.3937L757.469 73.5993ZM768.382 65.8761C768.876 66.1951 769.184 66.6401 769.307 67.211 769.43 67.7819 769.332 68.3142 769.013 68.8081 768.694 69.3019 768.247 69.6131 767.672 69.7418 767.097 69.8705 766.563 69.7753 766.069 69.4563 765.575 69.1374 765.266 68.6876 765.141 68.107 765.016 67.5264 765.113 66.9892 765.432 66.4954 765.751 66.0016 766.196 65.6933 766.767 65.5704 767.338 65.4477 767.876 65.5495 768.382 65.8761Z" fill-rule="evenodd"/><text fill="#000000" fill-opacity="0" font-family="Arial,Arial_MSFontService,sans-serif" font-size="27.9643" x="748.249" y="89.9889">i</text><path d="M773.076 81.2546 773.792 81.8049 771.309 85.034C774.751 84.2549 777.282 84.4881 778.902 85.7337 779.734 86.3736 780.29 87.132 780.569 88.0088 780.848 88.8857 780.799 89.9378 780.42 91.1651 780.152 92.0186 779.49 93.1333 778.432 94.5093L773.428 101.018C772.685 101.983 772.26 102.697 772.151 103.161 772.059 103.532 772.09 103.9 772.242 104.264 772.395 104.629 772.837 105.092 773.57 105.656L773.109 106.255 765.569 100.457 766.029 99.8582 766.346 100.101C767.056 100.647 767.636 100.921 768.085 100.922 768.534 100.923 768.977 100.756 769.412 100.419 769.584 100.287 770.007 99.7826 770.681 98.9059L775.48 92.664C776.547 91.277 777.141 90.1313 777.262 89.227 777.384 88.3228 777.017 87.5422 776.163 86.8853 774.842 85.87 772.973 85.5803 770.554 86.0161L764.373 94.0557C763.579 95.0876 763.15 95.7726 763.084 96.1106 762.992 96.5519 763.024 96.9519 763.181 97.3107 763.338 97.6696 763.832 98.1689 764.665 98.8088L764.204 99.408 756.664 93.6107 757.124 93.0115 757.457 93.2674C758.234 93.8647 758.91 94.0708 759.484 93.8859 760.059 93.701 760.773 93.0537 761.626 91.9441L765.978 86.2847C767.385 84.4538 768.201 83.3066 768.425 82.8431 768.649 82.3796 768.73 82.0096 768.669 81.7331 768.608 81.4566 768.433 81.2075 768.145 80.9857 767.834 80.7468 767.398 80.5442 766.838 80.3779L767.049 79.5867Z" fill-rule="evenodd"/><text fill="#000000" fill-opacity="0" font-family="Arial,Arial_MSFontService,sans-serif" font-size="26.668" x="756.664" y="102.921">n</text><path d="M776.594 109.747C775.624 109.794 774.804 109.919 774.132 110.122 773.461 110.325 772.943 110.612 772.58 110.981 772.109 111.459 771.985 112.163 772.21 113.092 772.599 114.692 773.736 116.42 775.621 118.277 777.416 120.044 779.052 121.031 780.528 121.238 782.005 121.444 783.096 121.188 783.804 120.47 784.314 119.951 784.423 119.332 784.131 118.612 783.828 117.881 782.928 116.74 781.432 115.188 779.246 112.918 777.634 111.105 776.594 109.747ZM792.531 99.0673C791.793 98.3405 790.885 98.0259 789.807 98.1233 788.729 98.2207 787.591 98.8779 786.392 100.095 784.841 101.671 783.977 103.226 783.801 104.762 783.671 105.931 784.005 106.908 784.803 107.694 785.561 108.44 786.465 108.77 787.513 108.682 788.562 108.595 789.685 107.943 790.883 106.726 792.444 105.14 793.323 103.56 793.519 101.984 793.658 100.825 793.329 99.8529 792.531 99.0673ZM793.493 98.5996C794.799 99.8861 795.617 101.32 795.946 102.901L798.848 105.759C799.277 106.181 799.514 106.439 799.56 106.533 799.605 106.626 799.613 106.718 799.584 106.807 799.555 106.956 799.428 107.145 799.202 107.374 798.947 107.634 798.745 107.789 798.597 107.839 798.518 107.86 798.427 107.848 798.322 107.804 798.218 107.761 797.951 107.528 797.523 107.105L795.742 105.352C795.594 106.62 794.969 107.813 793.87 108.93 792.612 110.207 791.048 110.818 789.177 110.763 787.306 110.708 785.548 109.871 783.902 108.25 783.224 107.582 782.629 106.8 782.117 105.903 781.305 105.85 780.682 105.89 780.247 106.022 779.813 106.154 779.497 106.319 779.301 106.519 779.134 106.689 779.054 106.934 779.062 107.256 779.069 107.577 779.278 108.009 779.688 108.55 779.928 108.865 780.591 109.587 781.679 110.717 783.685 112.79 784.947 114.171 785.468 114.86 786.267 115.903 786.669 116.976 786.673 118.08 786.676 119.183 786.276 120.144 785.47 120.962 784.36 122.089 782.791 122.626 780.761 122.572 777.772 122.496 775.025 121.226 772.521 118.761 770.596 116.865 769.398 114.831 768.926 112.657 768.669 111.422 768.805 110.535 769.336 109.996 769.571 109.757 769.862 109.571 770.207 109.44 770.74 109.238 771.595 109.068 772.772 108.93 772.93 108.909 773.969 108.871 775.889 108.817 775.675 107.997 775.581 107.359 775.607 106.904 775.633 106.448 775.798 106.066 776.103 105.757 776.447 105.408 776.991 105.139 777.737 104.95 778.483 104.761 779.792 104.743 781.664 104.897 781.229 103.663 781.147 102.459 781.42 101.284 781.693 100.109 782.267 99.0775 783.141 98.1898 784.477 96.8333 786.137 96.1697 788.122 96.1989 790.106 96.228 791.897 97.0283 793.493 98.5996Z" fill-rule="evenodd"/><text fill="#000000" fill-opacity="0" font-family="Arial,Arial_MSFontService,sans-serif" font-size="26.3777" x="768.8" y="119.278">g</text><path d="M745.259 567.167 745.838 566.87 748.718 572.496 752.718 570.448 753.388 571.757 749.388 573.804 755.072 584.905C755.64 586.014 756.181 586.681 756.697 586.904 757.212 587.128 757.719 587.112 758.217 586.857 758.629 586.646 758.962 586.314 759.217 585.861 759.473 585.408 759.579 584.878 759.536 584.271L760.264 583.898C760.453 585.342 760.307 586.577 759.826 587.602 759.344 588.627 758.679 589.356 757.832 589.79 757.259 590.084 756.617 590.212 755.906 590.175 755.195 590.138 754.558 589.89 753.993 589.432 753.428 588.975 752.83 588.129 752.199 586.895L746.305 575.383 743.595 576.77 743.279 576.154C743.824 575.529 744.287 574.706 744.669 573.685 745.05 572.664 745.292 571.561 745.393 570.377 745.437 569.757 745.392 568.687 745.259 567.167Z" fill-rule="evenodd"/><text fill="#000000" fill-opacity="0" font-family="Arial,Arial_MSFontService,sans-serif" font-size="23.3105" x="743.279" y="587.267">t</text><path d="M760.204 566.841C759.228 567.47 758.599 568.412 758.317 569.668 758.036 570.923 758.266 572.269 759.009 573.706L766.492 568.884C765.766 567.886 765.172 567.236 764.711 566.934 763.992 566.465 763.22 566.229 762.395 566.228 761.57 566.227 760.84 566.431 760.204 566.841ZM760.385 564.951C762.197 563.783 764.07 563.421 766.005 563.864 767.939 564.308 769.551 565.53 770.84 567.53L759.668 574.729C761.203 577.137 762.999 578.645 765.055 579.251 767.111 579.858 768.933 579.649 770.522 578.626 771.581 577.943 772.314 577.059 772.721 575.972 773.128 574.885 773.141 573.466 772.761 571.713L773.535 571.713C774.327 573.484 774.555 575.414 774.22 577.504 773.885 579.593 772.823 581.214 771.034 582.367 769.093 583.618 766.944 583.933 764.587 583.312 762.23 582.691 760.229 581.104 758.584 578.551 756.802 575.786 756.121 573.173 756.542 570.712 756.963 568.251 758.244 566.33 760.385 564.951Z" fill-rule="evenodd"/><text fill="#000000" fill-opacity="0" font-family="Arial,Arial_MSFontService,sans-serif" font-size="19.9397" x="756.422" y="581.128">e</text><path d="M770.811 557.922 771.499 557.338 774.149 560.459C774.31 558.486 774.419 557.338 774.475 557.015 774.611 556.202 774.861 555.448 775.226 554.753 775.591 554.058 776.045 553.479 776.589 553.017 777.507 552.238 778.523 551.835 779.638 551.807 780.752 551.779 781.852 552.177 782.937 553 782.949 550.787 783.164 549.158 783.582 548.115 784 547.072 784.609 546.21 785.409 545.531 786.188 544.87 787.049 544.483 787.992 544.372 788.934 544.26 789.967 544.508 791.089 545.117 791.849 545.536 792.791 546.408 793.914 547.731L799.267 554.038C800.046 554.955 800.65 555.526 801.078 555.75 801.385 555.894 801.752 555.927 802.18 555.847 802.609 555.768 803.149 555.452 803.799 554.9L804.289 555.476 797.053 561.617 796.564 561.041 796.868 560.783C797.498 560.249 797.885 559.709 798.029 559.165 798.129 558.786 798.074 558.364 797.864 557.9 797.753 557.683 797.335 557.147 796.61 556.293L791.257 549.986C790.242 548.791 789.383 548.07 788.678 547.824 787.682 547.494 786.725 547.719 785.807 548.498 785.242 548.978 784.793 549.602 784.463 550.369 784.132 551.137 783.887 552.249 783.728 553.705L783.845 553.909 784.462 554.57 790.399 561.565C791.251 562.568 791.837 563.145 792.157 563.295 792.477 563.445 792.862 563.472 793.312 563.375 793.762 563.277 794.361 562.912 795.108 562.278L795.597 562.854 788.185 569.145 787.696 568.568C788.507 567.88 788.983 567.311 789.125 566.86 789.266 566.41 789.232 565.943 789.023 565.459 788.922 565.233 788.501 564.682 787.758 563.807L782.405 557.5C781.39 556.305 780.485 555.595 779.689 555.371 778.64 555.087 777.694 555.302 776.851 556.018 776.274 556.507 775.835 557.146 775.532 557.936 775.045 559.157 774.81 560.265 774.828 561.26L781.499 569.119C782.314 570.08 782.911 570.647 783.289 570.822 783.667 570.997 784.048 571.046 784.432 570.968 784.815 570.89 785.407 570.511 786.208 569.832L786.697 570.408 779.446 576.563 778.956 575.987C779.629 575.416 780.037 574.946 780.182 574.575 780.326 574.205 780.334 573.803 780.206 573.371 780.077 572.938 779.628 572.268 778.858 571.361L774.103 565.759C772.735 564.147 771.804 563.148 771.309 562.76 770.935 562.471 770.612 562.328 770.339 562.33 770.065 562.333 769.79 562.452 769.513 562.687 769.214 562.941 768.924 563.324 768.644 563.838L767.915 563.465Z" fill-rule="evenodd"/><text fill="#000000" fill-opacity="0" font-family="Arial,Arial_MSFontService,sans-serif" font-size="32.2175" x="767.915" y="572.536">m</text><path d="M799.703 535.434C799.24 535.922 798.905 536.52 798.696 537.228 798.532 537.767 798.508 538.892 798.623 540.602L803.835 545.541C804.962 546.61 805.747 547.267 806.19 547.513 806.914 547.929 807.762 548.072 808.733 547.942 809.705 547.812 810.591 547.326 811.39 546.482 812.353 545.467 812.737 544.268 812.541 542.887 812.285 541.082 811.217 539.289 809.338 537.508 807.204 535.485 805.12 534.398 803.087 534.244 801.678 534.143 800.55 534.54 799.703 535.434ZM798.634 532.136C799.963 530.734 801.619 530.085 803.602 530.191 806.031 530.314 808.322 531.396 810.476 533.437 812.884 535.719 814.22 538.298 814.485 541.172 814.697 543.532 813.984 545.576 812.348 547.303 811.635 548.055 810.912 548.604 810.179 548.951 809.641 549.213 808.903 549.381 807.964 549.456L812.216 553.485C813.171 554.39 813.833 554.907 814.203 555.036 814.573 555.165 814.971 555.157 815.398 555.011 815.825 554.866 816.399 554.413 817.122 553.651L817.685 554.185 810.753 561.5 810.189 560.965 810.55 560.585C811.09 560.035 811.435 559.457 811.587 558.849 811.659 558.55 811.62 558.229 811.473 557.886 811.325 557.544 810.743 556.891 809.727 555.928L796.53 543.42C795.626 542.563 795.014 542.06 794.693 541.91 794.372 541.76 794.066 541.716 793.776 541.779 793.485 541.841 793.196 542.024 792.907 542.329 792.676 542.573 792.453 542.95 792.239 543.461L791.578 543.181 793.914 537.238 794.463 536.658 797.724 539.749C797.178 537.863 797.004 536.323 797.199 535.13 797.395 533.936 797.873 532.938 798.634 532.136Z" fill-rule="evenodd"/><text fill="#000000" fill-opacity="0" font-family="Arial,Arial_MSFontService,sans-serif" font-size="31.3202" x="791.578" y="557.585">p</text><path d="M811.06 519.982C810.59 520.556 810.289 521.273 810.156 522.132 810.024 522.991 810.239 523.949 810.803 525.006 811.366 526.064 812.32 527.142 813.663 528.241 815.83 530.013 818.052 531.111 820.327 531.535 822.603 531.958 824.317 531.466 825.469 530.057 826.328 529.006 826.604 527.785 826.295 526.393 825.987 525.002 824.776 523.442 822.663 521.714 820.019 519.552 817.474 518.419 815.026 518.316 813.357 518.235 812.035 518.79 811.06 519.982ZM810.416 518.614C812.259 516.361 814.595 515.251 817.423 515.286 819.834 515.323 821.988 516.117 823.884 517.668 825.217 518.758 826.304 520.18 827.147 521.936 827.989 523.692 828.298 525.414 828.075 527.103 827.851 528.791 827.176 530.324 826.051 531.7 824.217 533.943 821.865 534.994 818.996 534.854 816.577 534.738 814.431 533.914 812.556 532.381 811.191 531.264 810.111 529.816 809.316 528.035 808.52 526.255 808.252 524.548 808.512 522.916 808.771 521.283 809.405 519.85 810.416 518.614Z" fill-rule="evenodd"/><text fill="#000000" fill-opacity="0" font-family="Arial,Arial_MSFontService,sans-serif" font-size="19.5809" x="808.416" y="532.419">o</text><path d="M819.977 506.267 820.496 505.555 823.992 508.102C822.609 505.103 822.417 502.919 823.414 501.55 823.868 500.928 824.432 500.551 825.108 500.42 825.784 500.289 826.37 500.405 826.868 500.767 827.309 501.089 827.575 501.508 827.667 502.025 827.758 502.541 827.655 503.003 827.358 503.411 827.07 503.806 826.551 504.108 825.802 504.316 825.053 504.524 824.592 504.746 824.419 504.984 824.271 505.188 824.223 505.491 824.276 505.893 824.369 506.74 824.75 507.823 825.417 509.14L832.867 514.568C833.726 515.195 834.455 515.561 835.053 515.668 835.466 515.744 835.91 515.669 836.385 515.444 836.861 515.219 837.354 514.756 837.866 514.054L838.476 514.499 832.677 522.458 832.067 522.013C832.644 521.221 832.948 520.542 832.979 519.976 833.004 519.561 832.86 519.153 832.547 518.752 832.395 518.555 831.867 518.127 830.962 517.467L824.938 513.078C823.128 511.759 822.024 511.011 821.625 510.833 821.227 510.655 820.876 510.607 820.573 510.69 820.271 510.772 820.012 510.961 819.798 511.255 819.542 511.605 819.339 512.063 819.187 512.628L818.452 512.353Z" fill-rule="evenodd"/><text fill="#000000" fill-opacity="0" font-family="Arial,Arial_MSFontService,sans-serif" font-size="22.0902" x="818.452" y="519.697">r</text><path d="M837.92 494.889C837.464 497.117 837.213 498.584 837.168 499.291 837.077 500.554 837.182 501.568 837.483 502.334 837.784 503.101 838.268 503.703 838.935 504.14 839.778 504.693 840.642 504.9 841.529 504.761 842.415 504.622 843.072 504.225 843.502 503.569 844.085 502.679 844.268 501.125 844.049 498.906ZM829.338 492.777C830.274 491.349 831.281 490.336 832.36 489.737 833.176 489.284 834.077 489.147 835.065 489.326 835.706 489.445 836.805 490.015 838.362 491.036L843.823 494.616C845.357 495.621 846.315 496.208 846.699 496.376 847.083 496.544 847.377 496.599 847.583 496.541 847.788 496.483 847.948 496.366 848.063 496.191 848.186 496.003 848.253 495.813 848.263 495.618 848.272 495.273 848.155 494.519 847.913 493.356L848.897 494C849.793 496.463 849.85 498.291 849.067 499.485 848.691 500.058 848.193 500.384 847.572 500.463 846.952 500.542 846.157 500.272 845.19 499.654 845.384 502.141 845.442 503.661 845.365 504.213 845.243 505.037 844.948 505.806 844.48 506.52 843.751 507.632 842.77 508.299 841.537 508.52 840.304 508.741 839.067 508.445 837.827 507.631 837.042 507.117 836.478 506.496 836.135 505.769 835.654 504.767 835.451 503.442 835.528 501.793 835.604 500.145 836.045 497.609 836.849 494.186L836.217 493.772C834.613 492.721 833.346 492.254 832.415 492.372 831.484 492.49 830.701 493.034 830.064 494.006 829.58 494.743 829.395 495.459 829.51 496.153 829.616 496.859 829.927 497.381 830.442 497.718L831.483 498.351C832.022 498.704 832.347 499.114 832.459 499.581 832.572 500.048 832.482 500.504 832.19 500.949 831.906 501.382 831.522 501.636 831.037 501.712 830.553 501.787 830.047 501.652 829.52 501.307 828.513 500.647 827.926 499.526 827.759 497.943 827.591 496.36 828.118 494.638 829.338 492.777Z" fill-rule="evenodd"/><text fill="#000000" fill-opacity="0" font-family="Arial,Arial_MSFontService,sans-serif" font-size="19.3404" x="827.728" y="506.173">a</text><path d="M829.063 474.191 829.546 473.379 851.479 486.407C852.514 487.021 853.244 487.354 853.671 487.403 854.097 487.453 854.49 487.373 854.851 487.164 855.211 486.955 855.645 486.423 856.152 485.568L856.802 485.954 851.988 494.06 851.338 493.674C851.788 492.916 852.018 492.352 852.026 491.982 852.033 491.612 851.903 491.242 851.635 490.871 851.367 490.5 850.722 490.011 849.699 489.403L834.68 480.482C832.814 479.374 831.643 478.736 831.166 478.566 830.688 478.396 830.316 478.359 830.049 478.452 829.782 478.546 829.562 478.737 829.391 479.026 829.205 479.339 829.065 479.793 828.972 480.389L828.158 480.32Z" fill-rule="evenodd"/><text fill="#000000" fill-opacity="0" font-family="Arial,Arial_MSFontService,sans-serif" font-size="20.6807" x="828.158" y="491.475">l</text><path d="M857.651 459.855C857.46 462.121 857.385 463.608 857.423 464.315 857.482 465.58 857.706 466.575 858.095 467.3 858.484 468.026 859.036 468.566 859.75 468.922 860.652 469.371 861.535 469.474 862.399 469.232 863.262 468.989 863.869 468.517 864.218 467.816 864.692 466.863 864.69 465.298 864.21 463.121ZM848.879 458.771C849.64 457.242 850.521 456.117 851.521 455.395 852.278 454.85 853.157 454.607 854.158 454.668 854.809 454.711 855.968 455.147 857.635 455.977L863.48 458.887C865.121 459.704 866.143 460.174 866.543 460.295 866.944 460.417 867.243 460.436 867.44 460.355 867.637 460.273 867.783 460.138 867.876 459.95 867.976 459.75 868.02 459.552 868.007 459.358 867.975 459.014 867.77 458.279 867.393 457.153L868.445 457.677C869.626 460.016 869.898 461.825 869.262 463.103 868.956 463.717 868.5 464.099 867.893 464.251 867.286 464.402 866.466 464.228 865.432 463.729 865.918 466.176 866.155 467.678 866.144 468.235 866.12 469.068 865.918 469.866 865.537 470.63 864.945 471.821 864.049 472.598 862.851 472.963 861.653 473.329 860.39 473.18 859.062 472.519 858.222 472.101 857.589 471.551 857.162 470.87 856.566 469.932 856.208 468.64 856.09 466.994 855.971 465.347 856.109 462.777 856.504 459.284L855.827 458.947C854.111 458.092 852.797 457.778 851.887 458.005 850.976 458.232 850.262 458.866 849.745 459.906 849.351 460.695 849.253 461.427 849.448 462.103 849.637 462.791 850.007 463.273 850.558 463.547L851.667 464.053C852.243 464.34 852.615 464.708 852.781 465.159 852.948 465.609 852.913 466.072 852.676 466.549 852.445 467.012 852.093 467.31 851.621 467.442 851.149 467.575 850.63 467.5 850.067 467.22 848.989 466.683 848.274 465.639 847.921 464.087 847.567 462.535 847.887 460.763 848.879 458.771Z" fill-rule="evenodd"/><text fill="#000000" fill-opacity="0" font-family="Arial,Arial_MSFontService,sans-serif" font-size="18.4994" x="847.781" y="470.846">a</text><path d="M855.143 445.546 855.496 444.715 859.244 446.311C857.628 443.174 857.221 440.665 858.021 438.785 858.432 437.819 859.028 437.091 859.807 436.601 860.586 436.111 861.617 435.896 862.9 435.955 863.793 436.001 865.038 436.364 866.635 437.044L874.189 440.259C875.309 440.736 876.107 440.969 876.583 440.959 876.966 440.955 877.314 440.833 877.629 440.594 877.943 440.355 878.282 439.811 878.643 438.961L879.339 439.257 875.613 448.008 874.918 447.712 875.074 447.345C875.425 446.521 875.545 445.891 875.434 445.456 875.322 445.02 875.049 444.634 874.615 444.297 874.443 444.163 873.849 443.88 872.832 443.447L865.587 440.363C863.977 439.677 862.72 439.389 861.814 439.498 860.908 439.607 860.244 440.157 859.822 441.149 859.169 442.681 859.357 444.564 860.384 446.796L869.715 450.768C870.912 451.278 871.683 451.523 872.027 451.502 872.477 451.48 872.856 451.349 873.164 451.107 873.473 450.866 873.832 450.262 874.244 449.296L874.939 449.592 871.214 458.344 870.518 458.047 870.683 457.661C871.066 456.76 871.097 456.054 870.774 455.544 870.451 455.033 869.646 454.504 868.358 453.956L861.79 451.16C859.664 450.255 858.35 449.752 857.845 449.652 857.34 449.551 856.961 449.565 856.709 449.693 856.457 449.821 856.259 450.053 856.117 450.388 855.963 450.748 855.876 451.221 855.855 451.805L855.037 451.799Z" fill-rule="evenodd"/><text fill="#000000" fill-opacity="0" font-family="Arial,Arial_MSFontService,sans-serif" font-size="22.3979" x="855.037" y="455.544">n</text><path d="M872.618 423.783C872.706 426.055 872.813 427.54 872.938 428.238 873.151 429.485 873.494 430.445 873.97 431.118 874.445 431.79 875.058 432.259 875.811 432.525 876.761 432.86 877.65 432.855 878.477 432.509 879.305 432.163 879.849 431.62 880.11 430.881 880.464 429.878 880.27 428.325 879.528 426.222ZM863.779 423.78C864.348 422.169 865.084 420.945 865.989 420.107 866.673 419.472 867.516 419.124 868.518 419.062 869.169 419.025 870.372 419.316 872.128 419.936L878.285 422.11C880.014 422.72 881.085 423.061 881.498 423.132 881.911 423.204 882.21 423.187 882.395 423.082 882.581 422.977 882.709 422.825 882.779 422.627 882.853 422.416 882.872 422.215 882.836 422.024 882.762 421.686 882.469 420.981 881.956 419.91L883.065 420.301C884.523 422.478 885.015 424.24 884.539 425.587 884.311 426.233 883.905 426.669 883.321 426.893 882.737 427.118 881.902 427.045 880.815 426.676 881.596 429.045 882.015 430.507 882.072 431.061 882.15 431.891 882.047 432.708 881.763 433.513 881.321 434.767 880.527 435.648 879.383 436.157 878.238 436.666 876.966 436.673 875.567 436.18 874.683 435.867 873.987 435.399 873.48 434.775 872.774 433.917 872.261 432.678 871.942 431.059 871.623 429.44 871.446 426.872 871.41 423.356L870.698 423.105C868.889 422.466 867.547 422.315 866.671 422.652 865.796 422.989 865.164 423.705 864.777 424.8 864.484 425.632 864.475 426.371 864.752 427.018 865.023 427.678 865.45 428.11 866.03 428.315L867.193 428.681C867.8 428.895 868.214 429.216 868.434 429.642 868.655 430.069 868.676 430.533 868.499 431.035 868.327 431.523 868.014 431.862 867.562 432.051 867.109 432.24 866.586 432.23 865.992 432.02 864.857 431.619 864.019 430.67 863.479 429.173 862.938 427.676 863.039 425.878 863.779 423.78Z" fill-rule="evenodd"/><text fill="#000000" fill-opacity="0" font-family="Arial,Arial_MSFontService,sans-serif" font-size="17.4855" x="863.137" y="434.359">a</text><path d="M858.987 405.895 859.255 404.989 883.719 412.221C884.873 412.562 885.663 412.704 886.089 412.648 886.514 412.591 886.876 412.417 887.174 412.125 887.471 411.834 887.761 411.212 888.043 410.259L888.768 410.473 886.095 419.513 885.371 419.299C885.621 418.453 885.704 417.85 885.621 417.49 885.537 417.13 885.32 416.803 884.969 416.509 884.618 416.216 883.872 415.9 882.731 415.563L865.979 410.611C863.898 409.996 862.606 409.665 862.102 409.618 861.597 409.572 861.227 409.626 860.991 409.783 860.755 409.939 860.589 410.179 860.494 410.501 860.391 410.85 860.367 411.324 860.424 411.925L859.618 412.059Z" fill-rule="evenodd"/><text fill="#000000" fill-opacity="0" font-family="Arial,Arial_MSFontService,sans-serif" font-size="14.524" x="858.987" y="417.698">l</text><path d="M870.489 405.058 872.503 396.322 873.26 396.496 873.161 396.926C873.019 397.539 873.046 398.03 873.241 398.399 873.437 398.767 873.732 398.997 874.128 399.088 874.66 399.21 875.448 399.155 876.493 398.922L886.997 396.538 877.611 389.958C877.105 389.597 876.579 389.354 876.034 389.228 875.788 389.171 875.593 389.177 875.448 389.244 875.273 389.318 875.115 389.461 874.972 389.673 874.83 389.884 874.692 390.283 874.557 390.87L873.8 390.695 875.205 384.598 875.962 384.773C875.9 385.29 875.92 385.704 876.02 386.014 876.121 386.325 876.359 386.696 876.734 387.127 876.896 387.293 877.368 387.646 878.149 388.185L895.09 400.127C896.734 401.282 897.883 402.563 898.535 403.97 899.187 405.377 899.386 406.633 899.132 407.738 898.946 408.543 898.562 409.151 897.979 409.562 897.395 409.974 896.804 410.11 896.204 409.972 895.631 409.84 895.214 409.546 894.952 409.091 894.691 408.636 894.636 408.081 894.786 407.426 894.89 406.976 895.182 406.397 895.661 405.688 895.991 405.19 896.172 404.873 896.204 404.736 896.298 404.327 896.19 403.832 895.878 403.25 895.567 402.668 894.861 401.992 893.76 401.221L890.814 399.141 875.125 402.614C874.655 402.721 874.054 402.928 873.323 403.233 872.767 403.464 872.382 403.67 872.168 403.85 871.877 404.114 871.57 404.574 871.246 405.232Z" fill-rule="evenodd"/><text fill="#000000" fill-opacity="0" font-family="Arial,Arial_MSFontService,sans-serif" font-size="25.4259" x="870.489" y="406.846">y</text><path d="M875.522 377.817C875.633 377.069 875.927 376.186 876.404 375.167 876.716 374.492 876.89 374.037 876.925 373.802 876.958 373.58 876.935 373.4 876.857 373.261 876.779 373.122 876.586 372.944 876.278 372.729L876.38 372.044 882.859 373.007 882.758 373.692C880.644 373.916 879.159 374.385 878.303 375.1 877.447 375.814 876.924 376.808 876.735 378.082 876.59 379.051 876.73 379.872 877.154 380.543 877.578 381.215 878.101 381.597 878.724 381.689 879.5 381.805 880.197 381.682 880.817 381.321 881.448 380.976 882.18 380.194 883.013 378.973L884.938 376.16C886.726 373.553 888.742 372.417 890.985 372.75 892.716 373.007 894.013 373.869 894.878 375.335 895.743 376.801 896.055 378.343 895.814 379.963 895.641 381.126 895.236 382.425 894.598 383.858 894.392 384.294 894.267 384.658 894.224 384.949 894.176 385.267 894.319 385.543 894.652 385.777L894.55 386.462 887.759 385.452 887.861 384.767C889.857 384.668 891.428 384.144 892.574 383.196 893.719 382.249 894.393 381.096 894.595 379.74 894.737 378.784 894.572 377.964 894.101 377.278 893.63 376.593 893 376.191 892.21 376.074 891.255 375.932 890.402 376.148 889.651 376.723 888.901 377.298 887.878 378.515 886.583 380.374 885.287 382.233 884.192 383.415 883.296 383.919 882.414 384.424 881.371 384.588 880.167 384.409 878.602 384.176 877.374 383.445 876.481 382.216 875.588 380.986 875.268 379.52 875.522 377.817Z" fill-rule="evenodd"/><text fill="#000000" fill-opacity="0" font-family="Arial,Arial_MSFontService,sans-serif" font-size="14.4185" x="875.438" y="384.66">s</text><path d="M877.166 363.242 877.239 362.321 892.644 363.541C893.844 363.637 894.65 363.613 895.062 363.47 895.473 363.327 895.79 363.092 896.012 362.766 896.235 362.439 896.382 361.823 896.454 360.916L897.207 360.975 896.469 370.289 895.716 370.23C895.79 369.295 895.749 368.66 895.593 368.324 895.437 367.989 895.157 367.711 894.754 367.489 894.35 367.268 893.555 367.11 892.369 367.016L884.98 366.431C882.901 366.266 881.55 366.222 880.926 366.299 880.472 366.361 880.149 366.49 879.958 366.686 879.767 366.881 879.657 367.16 879.628 367.523 879.598 367.914 879.665 368.396 879.83 368.971L879.053 369.204ZM867.076 363.264C867.122 362.678 867.368 362.195 867.812 361.816 868.256 361.437 868.771 361.271 869.358 361.317 869.944 361.364 870.43 361.609 870.816 362.054 871.202 362.499 871.371 363.014 871.325 363.6 871.279 364.186 871.029 364.672 870.578 365.058 870.126 365.443 869.607 365.613 869.021 365.566 868.435 365.52 867.952 365.274 867.573 364.83 867.194 364.386 867.029 363.864 867.076 363.264Z" fill-rule="evenodd"/><text fill="#000000" fill-opacity="0" font-family="Arial,Arial_MSFontService,sans-serif" font-size="9.37378" x="867.068" y="369.118">i</text><path d="M877.6 351.801C877.599 351.045 877.759 350.128 878.08 349.05 878.289 348.336 878.394 347.86 878.394 347.622 878.394 347.398 878.344 347.223 878.246 347.097 878.148 346.971 877.931 346.824 877.595 346.657L877.594 345.964 884.145 345.957 884.146 346.65C882.089 347.184 880.69 347.868 879.948 348.702 879.207 349.535 878.838 350.596 878.839 351.884 878.84 352.863 879.099 353.654 879.618 354.255 880.136 354.857 880.711 355.157 881.34 355.157 882.124 355.156 882.796 354.931 883.355 354.483 883.929 354.048 884.537 353.166 885.18 351.835L886.667 348.769C888.05 345.926 889.876 344.503 892.143 344.501 893.893 344.499 895.304 345.159 896.376 346.481 897.448 347.803 897.985 349.282 897.986 350.92 897.987 352.096 897.779 353.44 897.36 354.952 897.221 355.414 897.151 355.792 897.151 356.086 897.152 356.408 897.334 356.66 897.698 356.841L897.699 357.534 890.833 357.541 890.832 356.848C892.792 356.454 894.268 355.704 895.26 354.597 896.253 353.49 896.749 352.251 896.747 350.879 896.747 349.914 896.462 349.126 895.895 348.518 895.327 347.91 894.645 347.606 893.847 347.607 892.881 347.608 892.07 347.948 891.412 348.628 890.755 349.307 889.924 350.662 888.918 352.693 887.912 354.723 887.003 356.054 886.192 356.685 885.395 357.315 884.387 357.631 883.17 357.632 881.588 357.634 880.265 357.093 879.2 356.009 878.135 354.925 877.602 353.522 877.6 351.801Z" fill-rule="evenodd"/><text fill="#000000" fill-opacity="0" font-family="Arial,Arial_MSFontService,sans-serif" font-size="13.1313" x="877.594" y="355.991">s</text><path d="M290.881 358.886C289.981 356.798 289.347 355.451 288.979 354.845 288.331 353.758 287.665 352.986 286.98 352.529 286.294 352.073 285.553 351.856 284.755 351.879 283.748 351.909 282.921 352.234 282.273 352.854 281.626 353.475 281.314 354.177 281.337 354.961 281.367 356.024 282.107 357.403 283.557 359.098ZM299.128 355.707C299.178 357.414 298.931 358.821 298.389 359.929 297.979 360.767 297.318 361.395 296.406 361.814 295.812 362.083 294.584 362.245 292.723 362.298L286.196 362.487C284.363 362.54 283.242 362.608 282.831 362.69 282.42 362.772 282.147 362.895 282.012 363.06 281.877 363.225 281.812 363.412 281.818 363.622 281.825 363.846 281.879 364.04 281.982 364.206 282.172 364.494 282.7 365.046 283.563 365.861L282.388 365.895C280.244 364.389 279.151 362.922 279.11 361.495 279.09 360.809 279.312 360.257 279.776 359.837 280.24 359.418 281.046 359.184 282.193 359.137 280.61 357.209 279.693 355.996 279.441 355.499 279.069 354.754 278.871 353.954 278.846 353.101 278.808 351.771 279.231 350.663 280.115 349.777 281 348.89 282.184 348.425 283.667 348.382 284.604 348.355 285.422 348.541 286.12 348.941 287.088 349.487 288.012 350.458 288.893 351.854 289.773 353.25 290.863 355.582 292.162 358.849L292.917 358.827C294.834 358.772 296.14 358.429 296.836 357.8 297.532 357.171 297.863 356.275 297.83 355.114 297.804 354.233 297.546 353.54 297.056 353.036 296.564 352.518 296.011 352.268 295.396 352.286L294.179 352.363C293.536 352.382 293.034 352.232 292.675 351.913 292.316 351.594 292.128 351.169 292.113 350.637 292.098 350.12 292.268 349.691 292.622 349.352 292.976 349.013 293.468 348.834 294.098 348.816 295.301 348.781 296.424 349.364 297.467 350.567 298.51 351.769 299.064 353.482 299.128 355.707Z" fill-rule="evenodd"/><text fill="#000000" fill-opacity="0" font-family="Arial,Arial_MSFontService,sans-serif" font-size="17.5156" x="278.844" y="363.706">a</text><path d="M305.973 369.885 306.05 370.531 299.774 371.28 300.307 375.742 298.847 375.916 298.315 371.454 285.931 372.932C284.694 373.079 283.881 373.356 283.493 373.762 283.104 374.167 282.943 374.648 283.009 375.204 283.064 375.663 283.26 376.091 283.596 376.488 283.932 376.884 284.393 377.168 284.977 377.338L285.074 378.151C283.654 377.827 282.546 377.261 281.752 376.454 280.958 375.646 280.505 374.77 280.392 373.825 280.316 373.186 280.418 372.539 280.7 371.885 280.981 371.231 281.435 370.719 282.06 370.349 282.685 369.978 283.686 369.71 285.062 369.546L297.905 368.014 297.544 364.991 298.232 364.909C298.629 365.637 299.24 366.357 300.065 367.069 300.89 367.781 301.84 368.391 302.916 368.897 303.482 369.153 304.501 369.483 305.973 369.885Z" fill-rule="evenodd"/><text fill="#000000" fill-opacity="0" font-family="Arial,Arial_MSFontService,sans-serif" font-size="13.2418" x="280.368" y="376.496">t</text><path d="M307.588 380.562 307.702 381.203 301.48 382.311 302.267 386.735 300.82 386.992 300.033 382.569 287.754 384.755C286.528 384.973 285.732 385.296 285.367 385.724 285.003 386.151 284.87 386.641 284.968 387.192 285.049 387.647 285.268 388.062 285.627 388.439 285.986 388.816 286.461 389.073 287.054 389.209L287.198 390.015C285.761 389.773 284.624 389.272 283.785 388.512 282.945 387.751 282.442 386.902 282.275 385.965 282.163 385.331 282.228 384.68 282.471 384.011 282.715 383.342 283.138 382.805 283.741 382.399 284.344 381.993 285.328 381.668 286.692 381.425L299.425 379.158 298.892 376.161 299.574 376.039C300.012 376.743 300.663 377.427 301.528 378.091 302.392 378.754 303.376 379.308 304.479 379.751 305.059 379.975 306.095 380.245 307.588 380.562Z" fill-rule="evenodd"/><text fill="#000000" fill-opacity="0" font-family="Arial,Arial_MSFontService,sans-serif" font-size="13.9758" x="282.222" y="388.268">t</text><path d="M304.136 392.323 304.339 393.181 300.129 394.174C303.305 395.079 305.087 396.356 305.476 398.004 305.652 398.754 305.57 399.427 305.23 400.025 304.889 400.623 304.419 400.993 303.819 401.134 303.288 401.26 302.797 401.189 302.345 400.921 301.894 400.654 301.61 400.275 301.495 399.784 301.382 399.307 301.491 398.717 301.822 398.014 302.152 397.31 302.283 396.815 302.216 396.529 302.158 396.284 301.959 396.051 301.619 395.829 300.916 395.347 299.847 394.931 298.412 394.579L289.441 396.694C288.406 396.938 287.653 397.252 287.182 397.636 286.856 397.9 286.624 398.286 286.484 398.793 286.345 399.3 286.375 399.976 286.574 400.821L285.839 400.995 283.579 391.41 284.315 391.237C284.539 392.19 284.856 392.864 285.265 393.256 285.564 393.545 285.967 393.702 286.476 393.726 286.724 393.739 287.393 393.617 288.482 393.36L295.737 391.65C297.917 391.136 299.204 390.786 299.599 390.599 299.994 390.413 300.258 390.178 300.393 389.895 300.527 389.611 300.553 389.292 300.469 388.938 300.37 388.516 300.155 388.063 299.825 387.58L300.513 387.202Z" fill-rule="evenodd"/><text fill="#000000" fill-opacity="0" font-family="Arial,Arial_MSFontService,sans-serif" font-size="13.9923" x="283.579" y="399.445">r</text><path d="M307.824 406.368 308.08 407.255 293.232 411.538C292.076 411.871 291.33 412.177 290.995 412.456 290.66 412.735 290.446 413.066 290.353 413.45 290.26 413.833 290.339 414.462 290.591 415.337L289.865 415.546 287.276 406.569 288.002 406.359C288.262 407.26 288.524 407.84 288.788 408.099 289.052 408.358 289.412 408.52 289.868 408.585 290.324 408.651 291.123 408.518 292.266 408.189L299.388 406.135C301.392 405.557 302.672 405.122 303.229 404.83 303.632 404.612 303.889 404.378 303.999 404.128 304.108 403.877 304.113 403.577 304.012 403.228 303.904 402.851 303.671 402.423 303.314 401.943L303.959 401.451ZM317.26 402.794C317.423 403.359 317.364 403.897 317.081 404.408 316.799 404.919 316.375 405.256 315.81 405.419 315.246 405.582 314.704 405.523 314.186 405.243 313.668 404.962 313.328 404.54 313.165 403.975 313.002 403.41 313.064 402.868 313.351 402.348 313.638 401.828 314.064 401.487 314.629 401.324 315.194 401.161 315.732 401.22 316.243 401.503 316.755 401.785 317.094 402.215 317.26 402.794Z" fill-rule="evenodd"/><text fill="#000000" fill-opacity="0" font-family="Arial,Arial_MSFontService,sans-serif" font-size="14.312" x="287.276" y="413.757">i</text><path d="M309.638 421.684C309.393 420.984 308.969 420.346 308.366 419.771 307.917 419.336 307.152 418.847 306.072 418.307L295.215 422.116C294.791 423.021 294.537 423.893 294.453 424.731 294.369 425.569 294.459 426.364 294.723 427.117 295.144 428.319 296.198 429.206 297.882 429.78 299.567 430.353 301.67 430.198 304.193 429.312 306.518 428.497 308.122 427.352 309.007 425.877 309.891 424.402 310.102 423.005 309.638 421.684ZM320.183 412.355 320.496 413.246 307.34 417.862C310.4 418.761 312.287 420.228 313.001 422.262 313.654 424.124 313.428 426.028 312.323 427.973 311.218 429.918 309.285 431.375 306.525 432.344 303.302 433.474 300.331 433.315 297.613 431.866 295.278 430.623 293.714 428.872 292.922 426.614 292.551 425.557 292.366 424.417 292.367 423.193 292.368 421.969 292.552 420.654 292.919 419.25L311.721 412.653C313.782 411.93 315.032 411.436 315.473 411.17 315.914 410.904 316.183 410.636 316.28 410.364 316.378 410.092 316.371 409.798 316.26 409.481 316.13 409.111 315.862 408.686 315.456 408.206L316.052 407.685Z" fill-rule="evenodd"/><text fill="#000000" fill-opacity="0" font-family="Arial,Arial_MSFontService,sans-serif" font-size="25.4022" x="292.367" y="429.912">b</text><path d="M315.093 429.973 317.738 436.172 305.899 441.222C304.252 441.925 303.292 442.673 303.022 443.466 302.751 444.258 302.789 445.06 303.135 445.871 303.371 446.425 303.813 446.979 304.46 447.532 305.107 448.085 306.125 448.636 307.516 449.184L317.539 444.908C318.543 444.48 319.144 444.007 319.341 443.489 319.539 442.971 319.403 442.127 318.935 440.957L319.649 440.652 322.22 446.678 311.502 451.25C309.454 452.124 308.223 452.706 307.807 452.997 307.391 453.289 307.139 453.579 307.049 453.869 306.959 454.158 306.975 454.444 307.096 454.728 307.266 455.127 307.568 455.531 308.001 455.939L307.44 456.498 303.001 452.138 302.63 451.269 306.376 449.67C304.08 448.854 302.549 448.138 301.784 447.521 301.019 446.904 300.446 446.151 300.067 445.263 299.645 444.271 299.564 443.29 299.827 442.318 300.09 441.346 300.611 440.526 301.391 439.858 302.172 439.191 303.386 438.505 305.034 437.802L312.933 434.433C313.769 434.076 314.31 433.738 314.555 433.421 314.8 433.103 314.934 432.73 314.957 432.302 314.98 431.874 314.787 431.199 314.379 430.277Z" fill-rule="evenodd"/><text fill="#000000" fill-opacity="0" font-family="Arial,Arial_MSFontService,sans-serif" font-size="26.5255" x="299.676" y="453.182">u</text><path d="M331.746 451.897 332.029 452.483 326.341 455.236 328.298 459.281 326.975 459.921 325.018 455.877 313.792 461.31C312.671 461.853 311.992 462.379 311.757 462.89 311.522 463.4 311.527 463.907 311.771 464.411 311.972 464.827 312.296 465.167 312.743 465.433 313.191 465.699 313.718 465.816 314.326 465.787L314.683 466.524C313.234 466.68 312.003 466.506 310.99 466.002 309.976 465.497 309.261 464.817 308.847 463.96 308.566 463.381 308.452 462.736 308.505 462.026 308.558 461.316 308.82 460.684 309.29 460.13 309.761 459.576 310.62 458.997 311.867 458.393L323.509 452.758 322.182 450.018 322.806 449.716C323.419 450.275 324.231 450.756 325.243 451.161 326.255 451.565 327.352 451.831 328.533 451.959 329.152 452.017 330.223 451.996 331.746 451.897Z" fill-rule="evenodd"/><text fill="#000000" fill-opacity="0" font-family="Arial,Arial_MSFontService,sans-serif" font-size="16.8633" x="308.493" y="464.472">t</text><path d="M331.795 467.867C331.245 466.844 330.356 466.142 329.127 465.762 327.897 465.381 326.537 465.504 325.046 466.131L329.26 473.972C330.312 473.328 331.007 472.788 331.345 472.352 331.87 471.672 332.165 470.922 332.232 470.099 332.299 469.277 332.153 468.533 331.795 467.867ZM333.665 468.197C334.685 470.096 334.898 471.992 334.302 473.885 333.707 475.778 332.361 477.288 330.265 478.414L323.974 466.707C321.452 468.046 319.807 469.717 319.039 471.718 318.271 473.72 318.335 475.553 319.229 477.218 319.826 478.327 320.649 479.128 321.7 479.62 322.751 480.112 324.165 480.238 325.943 479.998L325.881 480.77C324.053 481.419 322.111 481.493 320.054 480.993 317.998 480.493 316.466 479.306 315.459 477.432 314.366 475.397 314.222 473.23 315.028 470.93 315.834 468.63 317.575 466.761 320.251 465.323 323.148 463.766 325.807 463.295 328.227 463.909 330.646 464.524 332.459 465.953 333.665 468.197Z" fill-rule="evenodd"/><text fill="#000000" fill-opacity="0" font-family="Arial,Arial_MSFontService,sans-serif" font-size="17.6709" x="314.515" y="479.111">e</text><path d="M342.226 498.868C340.375 497.546 339.136 496.721 338.508 496.393 337.391 495.797 336.421 495.481 335.599 495.445 334.776 495.409 334.03 495.608 333.359 496.04 332.512 496.586 331.972 497.292 331.739 498.158 331.507 499.024 331.602 499.786 332.027 500.445 332.603 501.34 333.95 502.137 336.067 502.837ZM347.64 491.881C348.565 493.317 349.082 494.648 349.191 495.877 349.274 496.806 349.033 497.686 348.469 498.516 348.1 499.054 347.132 499.827 345.568 500.835L340.079 504.373C338.538 505.366 337.613 506.004 337.304 506.287 336.994 506.569 336.825 506.816 336.794 507.027 336.764 507.239 336.805 507.432 336.919 507.609 337.04 507.797 337.188 507.935 337.361 508.023 337.673 508.172 338.41 508.372 339.571 508.622L338.582 509.259C335.968 509.079 334.275 508.389 333.501 507.189 333.129 506.613 333.034 506.025 333.214 505.426 333.394 504.827 333.963 504.21 334.92 503.577 332.568 502.745 331.156 502.181 330.683 501.886 329.979 501.441 329.396 500.859 328.934 500.141 328.213 499.024 328.002 497.856 328.3 496.64 328.599 495.423 329.372 494.413 330.619 493.61 331.407 493.101 332.203 492.838 333.007 492.819 334.118 492.786 335.411 493.139 336.887 493.878 338.363 494.618 340.501 496.049 343.303 498.174L343.938 497.764C345.55 496.725 346.491 495.757 346.761 494.858 347.031 493.96 346.851 493.022 346.222 492.046 345.744 491.304 345.165 490.845 344.485 490.668 343.796 490.478 343.193 490.55 342.676 490.884L341.675 491.579C341.134 491.928 340.627 492.059 340.155 491.972 339.682 491.885 339.302 491.618 339.014 491.171 338.733 490.736 338.657 490.281 338.785 489.808 338.912 489.334 339.241 488.927 339.77 488.585 340.782 487.933 342.045 487.852 343.56 488.341 345.074 488.83 346.434 490.01 347.64 491.881Z" fill-rule="evenodd"/><text fill="#000000" fill-opacity="0" font-family="Arial,Arial_MSFontService,sans-serif" font-size="21.233" x="328.169" y="506.605">a</text><path d="M356.044 504.397 356.576 505.127 353.282 507.523C356.803 507.748 359.165 508.687 360.367 510.339 360.985 511.188 361.304 512.073 361.324 512.993 361.344 513.913 360.999 514.908 360.289 515.978 359.791 516.721 358.841 517.604 357.437 518.625L350.798 523.454C349.814 524.17 349.203 524.735 348.968 525.149 348.775 525.48 348.701 525.841 348.744 526.234 348.787 526.626 349.081 527.196 349.624 527.943L349.013 528.388 343.418 520.696 344.029 520.252 344.264 520.574C344.791 521.299 345.27 521.725 345.7 521.853 346.131 521.981 346.603 521.945 347.115 521.746 347.318 521.667 347.866 521.303 348.76 520.653L355.127 516.021C356.542 514.991 357.436 514.06 357.808 513.227 358.18 512.394 358.049 511.542 357.414 510.67 356.435 509.323 354.723 508.517 352.28 508.252L344.079 514.218C343.027 514.983 342.421 515.519 342.263 515.825 342.05 516.222 341.968 516.615 342.016 517.003 342.065 517.392 342.399 518.011 343.016 518.859L342.405 519.304 336.81 511.613 337.421 511.168 337.668 511.508C338.244 512.3 338.834 512.689 339.438 512.674 340.042 512.659 340.909 512.24 342.041 511.416L347.814 507.217C349.682 505.858 350.788 504.988 351.134 504.607 351.48 504.225 351.662 503.893 351.682 503.611 351.702 503.328 351.604 503.04 351.39 502.746 351.16 502.429 350.799 502.111 350.308 501.793L350.734 501.094Z" fill-rule="evenodd"/><text fill="#000000" fill-opacity="0" font-family="Arial,Arial_MSFontService,sans-serif" font-size="27.2938" x="336.81" y="524.976">n</text><path d="M365.988 530.944C363.995 529.847 362.668 529.172 362.007 528.919 360.828 528.458 359.828 528.257 359.007 528.317 358.186 528.377 357.468 528.661 356.852 529.168 356.074 529.809 355.62 530.573 355.49 531.46 355.359 532.348 355.544 533.094 356.042 533.699 356.719 534.52 358.149 535.155 360.333 535.604ZM370.551 523.375C371.637 524.693 372.306 525.955 372.557 527.163 372.748 528.076 372.611 528.978 372.147 529.868 371.843 530.445 370.973 531.325 369.536 532.509L364.497 536.662C363.082 537.828 362.237 538.57 361.963 538.886 361.689 539.203 361.549 539.468 361.543 539.681 361.537 539.894 361.601 540.082 361.735 540.244 361.877 540.417 362.04 540.537 362.222 540.604 362.55 540.715 363.304 540.828 364.487 540.942L363.579 541.689C360.962 541.815 359.199 541.327 358.291 540.225 357.855 539.696 357.692 539.123 357.801 538.507 357.91 537.891 358.403 537.213 359.28 536.472 356.847 535.919 355.379 535.524 354.875 535.286 354.124 534.926 353.477 534.416 352.934 533.757 352.088 532.731 351.743 531.596 351.898 530.353 352.052 529.11 352.702 528.017 353.847 527.073 354.571 526.477 355.331 526.123 356.127 526.011 357.227 525.848 358.552 526.048 360.104 526.61 361.656 527.173 363.946 528.346 366.976 530.13L367.56 529.649C369.039 528.429 369.861 527.358 370.025 526.434 370.189 525.51 369.901 524.6 369.162 523.703 368.601 523.023 367.973 522.634 367.276 522.537 366.57 522.429 365.98 522.571 365.505 522.963L364.592 523.769C364.095 524.179 363.607 524.368 363.127 524.337 362.648 524.305 362.239 524.084 361.901 523.674 361.572 523.274 361.443 522.832 361.515 522.346 361.586 521.861 361.865 521.418 362.351 521.018 363.28 520.252 364.525 520.024 366.086 520.334 367.647 520.644 369.136 521.657 370.551 523.375Z" fill-rule="evenodd"/><text fill="#000000" fill-opacity="0" font-family="Arial,Arial_MSFontService,sans-serif" font-size="21.5086" x="351.862" y="539.02">a</text><path d="M388.552 528.763 389.188 529.461 370.337 546.649C369.448 547.46 368.917 548.062 368.745 548.456 368.574 548.849 368.535 549.249 368.631 549.654 368.726 550.06 369.108 550.63 369.778 551.364L369.219 551.874 362.868 544.907 363.426 544.398C364.02 545.05 364.493 545.433 364.844 545.548 365.196 545.664 365.588 545.647 366.021 545.499 366.454 545.35 367.11 544.875 367.989 544.074L380.898 532.304C382.501 530.842 383.453 529.908 383.754 529.5 384.055 529.093 384.2 528.748 384.188 528.465 384.177 528.182 384.058 527.917 383.831 527.668 383.586 527.4 383.192 527.134 382.649 526.871L382.952 526.112Z" fill-rule="evenodd"/><text fill="#000000" fill-opacity="0" font-family="Arial,Arial_MSFontService,sans-serif" font-size="25.7617" x="362.868" y="548.653">l</text><path d="M383.558 539.286 389.982 545.54 389.44 546.097 389.124 545.789C388.673 545.35 388.239 545.118 387.823 545.094 387.407 545.07 387.057 545.203 386.774 545.494 386.393 545.885 386.032 546.588 385.689 547.602L382.277 557.819 392.772 553.209C393.343 552.964 393.824 552.641 394.214 552.24 394.39 552.059 394.487 551.889 394.504 551.731 394.532 551.542 394.492 551.333 394.385 551.101 394.278 550.87 394.008 550.545 393.577 550.125L394.119 549.568 398.602 553.933 398.06 554.49C397.65 554.168 397.286 553.97 396.968 553.895 396.651 553.82 396.21 553.831 395.647 553.928 395.42 553.98 394.874 554.201 394.008 554.588L375.01 562.875C373.17 563.682 371.479 563.999 369.937 563.826 368.396 563.654 367.219 563.172 366.406 562.381 365.815 561.805 365.494 561.161 365.445 560.449 365.396 559.737 365.586 559.161 366.016 558.719 366.426 558.298 366.893 558.094 367.418 558.107 367.943 558.119 368.446 558.36 368.927 558.829 369.258 559.151 369.602 559.701 369.959 560.478 370.214 561.019 370.391 561.338 370.492 561.436 370.793 561.729 371.272 561.893 371.931 561.929 372.59 561.965 373.534 561.712 374.764 561.171L378.071 559.731 383.242 544.517C383.395 544.06 383.53 543.439 383.648 542.656 383.739 542.06 383.763 541.625 383.72 541.348 383.645 540.963 383.411 540.461 383.016 539.843Z" fill-rule="evenodd"/><text fill="#000000" fill-opacity="0" font-family="Arial,Arial_MSFontService,sans-serif" font-size="24.5856" x="365.438" y="560.799">y</text><path d="M404.536 557.998C405.118 558.481 405.72 559.191 406.344 560.127 406.759 560.744 407.058 561.129 407.241 561.281 407.413 561.424 407.579 561.498 407.739 561.504 407.898 561.509 408.15 561.436 408.494 561.284L409.027 561.727 404.841 566.767 404.308 566.324C405.214 564.401 405.583 562.888 405.416 561.786 405.25 560.683 404.671 559.72 403.68 558.897 402.926 558.271 402.153 557.965 401.359 557.979 400.565 557.993 399.967 558.242 399.564 558.727 399.063 559.33 398.806 559.99 398.793 560.707 398.76 561.426 399.05 562.457 399.661 563.802L401.067 566.908C402.368 569.789 402.294 572.102 400.845 573.846 399.728 575.192 398.318 575.855 396.616 575.833 394.914 575.812 393.434 575.278 392.174 574.232 391.269 573.481 390.369 572.461 389.475 571.172 389.209 570.769 388.963 570.474 388.737 570.286 388.489 570.081 388.179 570.06 387.806 570.223L387.273 569.781 391.66 564.499 392.193 564.941C391.242 566.699 390.875 568.314 391.091 569.785 391.306 571.256 391.942 572.43 392.997 573.306 393.74 573.923 394.527 574.208 395.358 574.161 396.188 574.114 396.859 573.783 397.368 573.169 397.985 572.426 398.243 571.585 398.141 570.645 398.039 569.705 397.529 568.199 396.612 566.127 395.694 564.055 395.252 562.506 395.286 561.479 395.312 560.463 395.713 559.486 396.491 558.549 397.502 557.333 398.764 556.661 400.278 556.536 401.792 556.411 403.212 556.898 404.536 557.998Z" fill-rule="evenodd"/><text fill="#000000" fill-opacity="0" font-family="Arial,Arial_MSFontService,sans-serif" font-size="19.3171" x="387.273" y="573.419">s</text><path d="M416.342 567.105 417.092 567.644 408.08 580.197C407.378 581.175 406.981 581.877 406.891 582.303 406.8 582.729 406.837 583.121 407.001 583.481 407.166 583.84 407.617 584.285 408.356 584.815L407.916 585.429 400.326 579.98 400.767 579.366C401.529 579.913 402.093 580.207 402.461 580.247 402.829 580.287 403.212 580.191 403.61 579.96 404.008 579.729 404.555 579.131 405.248 578.164L409.571 572.143C410.787 570.449 411.524 569.315 411.781 568.741 411.962 568.32 412.019 567.978 411.95 567.713 411.882 567.449 411.7 567.21 411.404 566.998 411.086 566.769 410.638 566.577 410.061 566.421L410.263 565.636ZM421.542 558.458C422.019 558.801 422.305 559.26 422.4 559.836 422.495 560.413 422.37 560.94 422.028 561.417 421.685 561.895 421.223 562.184 420.643 562.284 420.062 562.384 419.534 562.263 419.056 561.92 418.578 561.577 418.292 561.113 418.195 560.527 418.099 559.941 418.222 559.409 418.565 558.931 418.908 558.454 419.368 558.168 419.944 558.073 420.52 557.979 421.053 558.107 421.542 558.458Z" fill-rule="evenodd"/><text fill="#000000" fill-opacity="0" font-family="Arial,Arial_MSFontService,sans-serif" font-size="27.3862" x="400.326" y="582.006">i</text><path d="M426.144 573.514C426.793 573.901 427.499 574.508 428.26 575.336 428.766 575.882 429.121 576.215 429.325 576.337 429.518 576.452 429.693 576.499 429.852 576.479 430.01 576.46 430.247 576.349 430.563 576.146L431.159 576.5 427.807 582.129 427.212 581.774C427.808 579.734 427.937 578.182 427.601 577.119 427.265 576.055 426.544 575.194 425.438 574.535 424.596 574.034 423.784 573.852 423.002 573.989 422.22 574.126 421.667 574.465 421.345 575.006 420.944 575.68 420.793 576.371 420.891 577.082 420.97 577.797 421.417 578.771 422.23 580.005L424.101 582.854C425.833 585.498 426.119 587.795 424.959 589.743 424.064 591.246 422.774 592.12 421.09 592.363 419.405 592.606 417.859 592.309 416.452 591.471 415.442 590.869 414.395 590.001 413.311 588.867 412.986 588.51 412.697 588.257 412.444 588.107 412.168 587.942 411.858 587.969 411.516 588.189L410.92 587.834 414.433 581.935 415.028 582.29C414.362 584.174 414.25 585.826 414.692 587.246 415.133 588.665 415.944 589.726 417.122 590.428 417.952 590.922 418.774 591.082 419.587 590.906 420.4 590.73 421.011 590.3 421.419 589.614 421.913 588.785 422.037 587.913 421.79 587.001 421.543 586.088 420.806 584.68 419.578 582.775 418.35 580.871 417.673 579.409 417.547 578.389 417.414 577.381 417.659 576.354 418.282 575.308 419.091 573.949 420.234 573.09 421.71 572.731 423.187 572.372 424.664 572.633 426.144 573.514Z" fill-rule="evenodd"/><text fill="#000000" fill-opacity="0" font-family="Arial,Arial_MSFontService,sans-serif" font-size="19.8699" x="410.92" y="589.961">s</text><path d="M327 329.5C327 184.525 444.525 67 589.5 67 734.475 67 852 184.525 852 329.5 852 474.475 734.475 592 589.5 592 444.525 592 327 474.475 327 329.5Z" stroke="#A6A6A6" stroke-width="2" stroke-miterlimit="8" stroke-dasharray="2 2" fill="#F2F2F2" fill-rule="evenodd"/><path d="M417 329.5C417 234.231 494.231 157 589.5 157 684.769 157 762 234.231 762 329.5 762 424.769 684.769 502 589.5 502 494.231 502 417 424.769 417 329.5Z" stroke="#A6A6A6" stroke-width="2" stroke-miterlimit="8" stroke-dasharray="2 2" fill="#F2F2F2" fill-rule="evenodd"/><path d="M503 329.5C503 281.727 541.951 243 590 243 638.049 243 677 281.727 677 329.5 677 377.273 638.049 416 590 416 541.951 416 503 377.273 503 329.5Z" stroke="#A6A6A6" stroke-width="2" stroke-miterlimit="8" stroke-dasharray="2 2" fill="#F2F2F2" fill-rule="evenodd"/><path d="M589.774 67 361 460 818 459.454 589.774 67Z" fill="#FDA830" fill-rule="evenodd" fill-opacity="0.756863"/><path d="M589 156 362 459 589 329.299 589 156Z" fill="#26A199" fill-rule="evenodd" fill-opacity="0.741176"/><path d="M590 242 361 461 589.886 329.2C589.915 286.79 589.972 284.41 590 242Z" fill="#9771BC" fill-rule="evenodd" fill-opacity="0.74902"/><path d="M0 0 227.243 129.345" stroke="#A6A6A6" stroke-width="2" stroke-miterlimit="8" stroke-dasharray="2 2" fill="none" fill-rule="evenodd" transform="matrix(-1 0 0 1 590.243 330)"/><path d="M590 330 817.243 459.345" stroke="#A6A6A6" stroke-width="2" stroke-miterlimit="8" stroke-dasharray="2 2" fill="none" fill-rule="evenodd"/><path d="M590 67 590 329.454" stroke="#A6A6A6" stroke-width="2" stroke-miterlimit="8" stroke-dasharray="2 2" fill="none" fill-rule="evenodd"/></g></svg>