<?xml version="1.0" encoding="UTF-8"?><svg id="_层_2" xmlns="http://www.w3.org/2000/svg" viewBox="0 0 151.28 163.51"><defs><style>.cls-1{stroke:#666;}.cls-1,.cls-2,.cls-3,.cls-4,.cls-5,.cls-6{fill:none;stroke-miterlimit:10;stroke-width:3px;}.cls-1,.cls-2,.cls-6{fill-rule:evenodd;}.cls-2{stroke:#f7931e;}.cls-3{stroke:#000;}.cls-4{stroke:#ccc;}.cls-5{stroke:#e6e6e6;}.cls-6{stroke:#ed1c24;}</style></defs><g id="_层_1-2"><g><polygon class="cls-1" points="3.13 82.61 76.29 82.39 39.51 145.63 3.13 82.61 3.13 82.61"/><path class="cls-2" d="M21.57,82.56c7.46-.02,14.92-.09,22.38-.07,5.39,9.22,10.99,18.32,16.22,27.63-3.63,6.33-7.31,12.63-11,18.92-9.22-15.48-18.39-30.99-27.6-46.48h0Z"/><polygon class="cls-2" points="112.3 145.21 76.26 82.39 148.68 82.19 112.3 145.21 112.3 145.21"/><polygon class="cls-6" points="112.66 19.67 76.28 82.41 39.89 19.67 112.66 19.67 112.66 19.67"/><line class="cls-4" x1="8.09" y1="149.07" x2="8.09" y2="159.39"/><line class="cls-4" x1="23.2" y1="149.07" x2="23.2" y2="159.39"/><line class="cls-4" x1="38.32" y1="149.07" x2="38.32" y2="159.39"/><line class="cls-3" y1="146.54" x2="150.12" y2="146.54"/><line class="cls-4" x1="53.44" y1="149.07" x2="53.44" y2="159.39"/><line class="cls-4" x1="68.55" y1="149.07" x2="68.55" y2="159.39"/><line class="cls-4" x1="83.67" y1="149.07" x2="83.67" y2="159.39"/><line class="cls-4" x1="98.78" y1="149.07" x2="98.78" y2="159.39"/><line class="cls-4" x1="113.9" y1="149.07" x2="113.9" y2="159.39"/><line class="cls-4" x1="129.01" y1="149.07" x2="129.01" y2="159.39"/><line class="cls-4" x1="144.13" y1="149.07" x2="144.13" y2="159.39"/><line class="cls-3" x1=".2" y1="162.01" x2="150.32" y2="162.01"/><line class="cls-5" x1="8.21" y1="4.02" x2="8.21" y2="14.35"/><line class="cls-5" x1="23.32" y1="4.02" x2="23.32" y2="14.35"/><line class="cls-5" x1="38.44" y1="4.02" x2="38.44" y2="14.35"/><line class="cls-3" x1=".1" y1="1.5" x2="150.22" y2="1.5"/><line class="cls-5" x1="53.55" y1="4.02" x2="53.55" y2="14.35"/><line class="cls-5" x1="68.67" y1="4.02" x2="68.67" y2="14.35"/><line class="cls-5" x1="83.79" y1="4.02" x2="83.79" y2="14.35"/><line class="cls-5" x1="98.9" y1="4.02" x2="98.9" y2="14.35"/><line class="cls-5" x1="114.02" y1="4.02" x2="114.02" y2="14.35"/><line class="cls-5" x1="129.13" y1="4.02" x2="129.13" y2="14.35"/><line class="cls-5" x1="144.25" y1="4.02" x2="144.25" y2="14.35"/><line class="cls-3" x1=".88" y1="16.96" x2="151" y2="16.96"/></g></g></svg>