<?xml version="1.0" encoding="UTF-8"?><svg id="_层_2" xmlns="http://www.w3.org/2000/svg" viewBox="0 0 180.01 163.51"><defs><style>.cls-1{stroke:#ed1c24;}.cls-1,.cls-2,.cls-3,.cls-4,.cls-5,.cls-6{fill:none;stroke-miterlimit:10;}.cls-1,.cls-2,.cls-4{fill-rule:evenodd;}.cls-2{stroke:#666;}.cls-3{stroke:#000;}.cls-3,.cls-5,.cls-6{stroke-width:3px;}.cls-4{stroke:#f7931e;}.cls-5{stroke:#ccc;}.cls-6{stroke:#e6e6e6;}</style></defs><g id="_层_1-2"><g><polygon class="cls-2" points="16.96 82.61 90.11 82.39 53.34 145.63 16.96 82.61 16.96 82.61"/><polygon class="cls-4" points="34.41 83.12 56.73 83.01 73.21 110.69 61.95 129.39 34.41 83.12 34.41 83.12"/><polygon class="cls-4" points="126.12 145.21 90.09 82.39 162.51 82.19 126.12 145.21 126.12 145.21"/><polygon class="cls-1" points="126.48 19.67 90.1 82.41 53.72 19.67 126.48 19.67 126.48 19.67"/><line class="cls-5" x1="6.95" y1="149.07" x2="6.95" y2="159.39"/><line class="cls-5" x1="21.91" y1="149.07" x2="21.91" y2="159.39"/><line class="cls-5" x1="37.03" y1="149.07" x2="37.03" y2="159.39"/><line class="cls-5" x1="52.15" y1="149.07" x2="52.15" y2="159.39"/><line class="cls-3" y1="146.54" x2="178.96" y2="146.54"/><line class="cls-5" x1="67.26" y1="149.07" x2="67.26" y2="159.39"/><line class="cls-5" x1="82.38" y1="149.07" x2="82.38" y2="159.39"/><line class="cls-5" x1="97.49" y1="149.07" x2="97.49" y2="159.39"/><line class="cls-5" x1="112.61" y1="149.07" x2="112.61" y2="159.39"/><line class="cls-5" x1="127.72" y1="149.07" x2="127.72" y2="159.39"/><line class="cls-5" x1="142.84" y1="149.07" x2="142.84" y2="159.39"/><line class="cls-5" x1="157.96" y1="149.07" x2="157.96" y2="159.39"/><line class="cls-5" x1="173.07" y1="149.07" x2="173.07" y2="159.39"/><line class="cls-3" x1=".24" y1="162.01" x2="179.2" y2="162.01"/><line class="cls-6" x1="7.07" y1="4.02" x2="7.07" y2="14.35"/><line class="cls-6" x1="22.03" y1="4.02" x2="22.03" y2="14.35"/><line class="cls-6" x1="37.15" y1="4.02" x2="37.15" y2="14.35"/><line class="cls-6" x1="52.26" y1="4.02" x2="52.26" y2="14.35"/><line class="cls-3" x1=".12" y1="1.5" x2="179.08" y2="1.5"/><line class="cls-6" x1="67.38" y1="4.02" x2="67.38" y2="14.35"/><line class="cls-6" x1="82.5" y1="4.02" x2="82.5" y2="14.35"/><line class="cls-6" x1="97.61" y1="4.02" x2="97.61" y2="14.35"/><line class="cls-6" x1="112.73" y1="4.02" x2="112.73" y2="14.35"/><line class="cls-6" x1="127.84" y1="4.02" x2="127.84" y2="14.35"/><line class="cls-6" x1="142.96" y1="4.02" x2="142.96" y2="14.35"/><line class="cls-6" x1="158.07" y1="4.02" x2="158.07" y2="14.35"/><line class="cls-6" x1="173.19" y1="4.02" x2="173.19" y2="14.35"/><line class="cls-3" x1="1.05" y1="16.96" x2="180.01" y2="16.96"/></g></g></svg>